<svg version="1.1" viewBox="0.0 0.0 465.9448818897638 100.0" fill="none" stroke="none" stroke-linecap="square" stroke-miterlimit="10" xmlns:xlink="http://www.w3.org/1999/xlink" xmlns="http://www.w3.org/2000/svg"><clipPath id="p.0"><path d="m0 0l465.9449 0l0 100.0l-465.9449 0l0 -100.0z" clip-rule="nonzero"/></clipPath><g clip-path="url(#p.0)"><path fill="#000000" fill-opacity="0.0" d="m0 0l465.9449 0l0 100.0l-465.9449 0z" fill-rule="evenodd"/><path fill="#9471f5" d="m196.57874 31.290108l0 0c0 -2.548153 2.065689 -4.61384 4.613846 -4.61384l63.559708 0c1.2236938 0 2.3972168 0.48610115 3.2624817 1.3513622c0.8652649 0.865263 1.3513794 2.0388126 1.3513794 3.2624779l0 34.772324c0 2.548149 -2.0657043 4.613838 -4.613861 4.613838l-63.559708 0l0 0c-2.5481567 0 -4.613846 -2.065689 -4.613846 -4.613838z" fill-rule="evenodd"/><path fill="#ffffff" d="m222.10016 44.007515l0 1.046875l2.21875 0l0 7.375l-2.21875 0l0 1.046875l5.734375 0l0 -1.046875l-2.265625 0l0 -7.375l2.265625 0l0 -1.046875l-5.734375 0zm13.951309 0l-1.15625 0l-0.03125 6.40625q0 0.421875 -0.125 0.8125q-0.125 0.390625 -0.359375 0.6875q-0.25 0.3125 -0.609375 0.5q-0.34375 0.171875 -0.796875 0.171875q-0.46875 0 -0.828125 -0.171875q-0.34375 -0.1875 -0.578125 -0.5q-0.25 -0.296875 -0.375 -0.6875q-0.125 -0.390625 -0.125 -0.8125l-0.03125 -6.40625l-1.140625 0l-0.015625 6.40625q0 0.671875 0.21875 1.25q0.234375 0.578125 0.640625 1.015625q0.40625 0.4375 0.96875 0.6875q0.578125 0.234375 1.265625 0.234375q0.671875 0 1.234375 -0.25q0.578125 -0.25 0.984375 -0.6875q0.40625 -0.421875 0.640625 -1.0q0.234375 -0.578125 0.234375 -1.25l-0.015625 -6.40625zm8.435684 1.015625l0 -1.015625l-7.015625 0l0 1.015625l2.921875 0l0 8.453125l1.171875 0l0 -8.453125l2.921875 0z" fill-rule="nonzero"/><path fill="#2c9693" d="m11.675715 32.50671l0 0c0 -3.2200642 2.6103764 -5.8304424 5.8304396 -5.8304424l61.12652 0c1.5463333 0 3.0293274 0.6142769 4.1227417 1.7076969c1.0934219 1.09342 1.7077026 2.576414 1.7077026 4.1227455l0 32.339115c0 3.22007 -2.610382 5.8304443 -5.8304443 5.8304443l-61.12652 0c-3.2200632 0 -5.8304396 -2.6103745 -5.8304396 -5.8304443z" fill-rule="evenodd"/><path fill="#ffffff" d="m30.573956 44.460644l0 -8.453125l-1.21875 0l0 9.46875l5.84375 0l0 -1.015625l-4.625 0zm6.295059 -2.5625l0 0.140625q0 0.75 0.21875 1.40625q0.21875 0.65625 0.640625 1.140625q0.40625 0.46875 1.0 0.75q0.59375 0.265625 1.34375 0.265625q0.75 0 1.328125 -0.265625q0.59375 -0.28125 1.015625 -0.75q0.40625 -0.484375 0.625 -1.140625q0.234375 -0.65625 0.234375 -1.40625l0 -0.140625q0 -0.765625 -0.234375 -1.421875q-0.21875 -0.65625 -0.625 -1.140625q-0.421875 -0.484375 -1.015625 -0.75q-0.59375 -0.28125 -1.34375 -0.28125q-0.734375 0 -1.328125 0.28125q-0.59375 0.265625 -1.0 0.75q-0.421875 0.484375 -0.640625 1.140625q-0.21875 0.65625 -0.21875 1.421875zm1.203125 0.140625l0 -0.140625q0 -0.515625 0.125 -0.984375q0.125 -0.484375 0.375 -0.84375q0.25 -0.359375 0.609375 -0.5625q0.375 -0.21875 0.875 -0.21875q0.5 0 0.875 0.21875q0.375 0.203125 0.640625 0.5625q0.234375 0.359375 0.359375 0.84375q0.140625 0.46875 0.140625 0.984375l0 0.140625q0 0.515625 -0.125 0.984375q-0.125 0.46875 -0.375 0.828125q-0.25 0.359375 -0.625 0.578125q-0.375 0.203125 -0.875 0.203125q-0.5 0 -0.875 -0.203125q-0.375 -0.21875 -0.625 -0.578125q-0.25 -0.359375 -0.375 -0.828125q-0.125 -0.46875 -0.125 -0.984375zm7.810684 3.4375l0.953125 0l1.078125 -4.3125l0.171875 -1.09375l0.1875 1.09375l1.09375 4.3125l0.953125 0l1.5 -7.046875l-1.0625 0l-0.78125 4.5l-0.171875 1.109375l-0.203125 -1.109375l-1.109375 -4.5l-0.78125 0l-1.125 4.5l-0.171875 1.0l-0.140625 -1.0l-0.828125 -4.5l-1.0625 0l1.5 7.046875zm10.435684 0.125q1.015625 0 1.71875 -0.40625q0.703125 -0.421875 1.046875 -0.953125l-0.734375 -0.5625q-0.328125 0.421875 -0.828125 0.6875q-0.5 0.25 -1.140625 0.25q-0.5 0 -0.90625 -0.171875q-0.390625 -0.1875 -0.671875 -0.5q-0.28125 -0.296875 -0.453125 -0.6875q-0.15625 -0.390625 -0.203125 -0.90625l0 -0.046875l5.03125 0l0 -0.546875q0 -0.734375 -0.1875 -1.359375q-0.1875 -0.640625 -0.5625 -1.109375q-0.375 -0.453125 -0.953125 -0.71875q-0.5625 -0.265625 -1.3125 -0.265625q-0.609375 0 -1.1875 0.25q-0.578125 0.25 -1.03125 0.703125q-0.453125 0.46875 -0.734375 1.140625q-0.265625 0.671875 -0.265625 1.53125l0 0.265625q0 0.75 0.25 1.375q0.25 0.625 0.6875 1.078125q0.453125 0.453125 1.0625 0.703125q0.625 0.25 1.375 0.25zm-0.15625 -6.3125q0.453125 0 0.78125 0.171875q0.34375 0.171875 0.5625 0.4375q0.21875 0.28125 0.34375 0.65625q0.125 0.375 0.125 0.703125l0 0.046875l-3.78125 0q0.0625 -0.484375 0.234375 -0.859375q0.1875 -0.375 0.453125 -0.625q0.265625 -0.265625 0.578125 -0.390625q0.328125 -0.140625 0.703125 -0.140625zm9.654438 -0.984375q-0.765625 0 -1.375 0.34375q-0.5937538 0.328125 -1.0312538 0.90625l0 -0.171875l-0.0625 -0.953125l-1.140625 0l0 7.046875l1.203125 0l0 -4.515625q0.125 -0.328125 0.296875 -0.59375q0.1875 -0.265625 0.4218788 -0.4375q0.265625 -0.21875 0.625 -0.3125q0.359375 -0.109375 0.8125 -0.109375q0.34375 0 0.65625 0.03125q0.3125 0.03125 0.65625 0.109375l0.171875 -1.171875q-0.1875 -0.078125 -0.546875 -0.125q-0.359375 -0.046875 -0.6875 -0.046875z" fill-rule="nonzero"/><path fill="#ffffff" d="m31.590488 53.023144l0 -1.015625l-7.015625 0l0 1.015625l2.921875 0l0 8.453125l1.171875 0l0 -8.453125l2.921875 0zm4.732559 8.578125q1.015625 0 1.71875 -0.40625q0.703125 -0.421875 1.046875 -0.953125l-0.734375 -0.5625q-0.328125 0.421875 -0.828125 0.6875q-0.5 0.25 -1.140625 0.25q-0.5 0 -0.90625 -0.171875q-0.390625 -0.1875 -0.671875 -0.5q-0.28125 -0.296875 -0.453125 -0.6875q-0.15625 -0.390625 -0.203125 -0.90625l0 -0.046875l5.03125 0l0 -0.546875q0 -0.734375 -0.1875 -1.359375q-0.1875 -0.640625 -0.5625 -1.109375q-0.375 -0.453125 -0.953125 -0.71875q-0.5625 -0.265625 -1.3125 -0.265625q-0.609375 0 -1.1875 0.25q-0.578125 0.25 -1.03125 0.703125q-0.453125 0.46875 -0.734375 1.140625q-0.265625 0.671875 -0.265625 1.53125l0 0.265625q0 0.75 0.25 1.375q0.25 0.625 0.6875 1.078125q0.453125 0.453125 1.0625 0.703125q0.625 0.25 1.375 0.25zm-0.15625 -6.3125q0.453125 0 0.78125 0.171875q0.34375 0.171875 0.5625 0.4375q0.21875 0.28125 0.34375 0.65625q0.125 0.375 0.125 0.703125l0 0.046875l-3.78125 0q0.0625 -0.484375 0.234375 -0.859375q0.1875 -0.375 0.453125 -0.625q0.265625 -0.265625 0.578125 -0.390625q0.328125 -0.140625 0.703125 -0.140625zm9.716934 4.3125q0 0.171875 -0.0625 0.328125q-0.0625 0.140625 -0.1875 0.265625q-0.203125 0.203125 -0.5625 0.328125q-0.359375 0.109375 -0.84375 0.109375q-0.296875 0 -0.609375 -0.0625q-0.3125 -0.0625 -0.578125 -0.21875q-0.25 -0.15625 -0.421875 -0.40625q-0.171875 -0.265625 -0.203125 -0.640625l-1.203125 0q0 0.453125 0.203125 0.875q0.203125 0.40625 0.59375 0.71875q0.390625 0.328125 0.9375 0.515625q0.5625 0.1875 1.28125 0.1875q0.625 0 1.15625 -0.140625q0.53125 -0.15625 0.90625 -0.421875q0.375 -0.28125 0.578125 -0.65625q0.21875 -0.390625 0.21875 -0.859375q0 -0.4375 -0.1875 -0.765625q-0.1875 -0.328125 -0.53125 -0.59375q-0.359375 -0.234375 -0.875 -0.40625q-0.515625 -0.1875 -1.15625 -0.328125q-0.5 -0.09375 -0.828125 -0.203125q-0.3125 -0.109375 -0.5 -0.234375q-0.203125 -0.125 -0.28125 -0.28125q-0.078125 -0.171875 -0.078125 -0.375q0 -0.203125 0.09375 -0.390625q0.109375 -0.203125 0.296875 -0.34375q0.1875 -0.140625 0.46875 -0.21875q0.296875 -0.09375 0.6875 -0.09375q0.375 0 0.671875 0.109375q0.296875 0.109375 0.5 0.265625q0.203125 0.171875 0.3125 0.390625q0.125 0.21875 0.125 0.453125l1.203125 0q0 -0.46875 -0.203125 -0.859375q-0.1875 -0.40625 -0.546875 -0.703125q-0.375 -0.296875 -0.890625 -0.46875q-0.515625 -0.171875 -1.171875 -0.171875q-0.609375 0 -1.109375 0.171875q-0.5 0.15625 -0.875 0.4375q-0.359375 0.28125 -0.5625 0.65625q-0.203125 0.375 -0.203125 0.796875q0 0.4375 0.1875 0.765625q0.203125 0.328125 0.5625 0.5625q0.359375 0.25 0.84375 0.4375q0.5 0.171875 1.109375 0.296875q0.5 0.09375 0.828125 0.21875q0.328125 0.109375 0.53125 0.25q0.203125 0.15625 0.28125 0.328125q0.09375 0.171875 0.09375 0.375zm6.170059 -6.875l-1.21875 0l0 1.703125l-1.84375 0l0 0.9375l1.84375 0l0 3.828125q0 0.640625 0.171875 1.109375q0.1875 0.453125 0.484375 0.75q0.296875 0.28125 0.703125 0.421875q0.40625 0.125 0.875 0.125q0.28125 0 0.5625 -0.03125q0.28125 -0.015625 0.53125 -0.0625q0.265625 -0.046875 0.46875 -0.109375q0.21875 -0.078125 0.375 -0.171875l-0.171875 -0.84375q-0.109375 0.015625 -0.28125 0.0625q-0.171875 0.03125 -0.375 0.0625q-0.203125 0.03125 -0.40625 0.0625q-0.203125 0.015625 -0.40625 0.015625q-0.265625 0 -0.5 -0.0625q-0.234375 -0.0625 -0.421875 -0.234375q-0.1875 -0.15625 -0.296875 -0.421875q-0.09375 -0.265625 -0.09375 -0.671875l0 -3.828125l2.6875 0l0 -0.9375l-2.6875 0l0 -1.703125zm8.263809 8.875q1.015625 0 1.71875 -0.40625q0.703125 -0.421875 1.046875 -0.953125l-0.734375 -0.5625q-0.328125 0.421875 -0.828125 0.6875q-0.5 0.25 -1.140625 0.25q-0.5 0 -0.90625 -0.171875q-0.390625 -0.1875 -0.671875 -0.5q-0.28125 -0.296875 -0.453125 -0.6875q-0.15625 -0.390625 -0.203125 -0.90625l0 -0.046875l5.03125 0l0 -0.546875q0 -0.734375 -0.1875 -1.359375q-0.1875 -0.640625 -0.5625 -1.109375q-0.375 -0.453125 -0.953125 -0.71875q-0.5625 -0.265625 -1.3125 -0.265625q-0.609375 0 -1.1875 0.25q-0.578125 0.25 -1.03125 0.703125q-0.453125 0.46875 -0.734375 1.140625q-0.265625 0.671875 -0.265625 1.53125l0 0.265625q0 0.75 0.25 1.375q0.25 0.625 0.6875 1.078125q0.453125 0.453125 1.0625 0.703125q0.625 0.25 1.375 0.25zm-0.15625 -6.3125q0.453125 0 0.78125 0.171875q0.34375 0.171875 0.5625 0.4375q0.21875 0.28125 0.34375 0.65625q0.125 0.375 0.125 0.703125l0 0.046875l-3.78125 0q0.0625 -0.484375 0.234375 -0.859375q0.1875 -0.375 0.453125 -0.625q0.265625 -0.265625 0.578125 -0.390625q0.328125 -0.140625 0.703125 -0.140625zm9.654438 -0.984375q-0.765625 0 -1.375 0.34375q-0.59375 0.328125 -1.03125 0.90625l0 -0.171875l-0.0625 -0.953125l-1.140625 0l0 7.046875l1.203125 0l0 -4.515625q0.125 -0.328125 0.296875 -0.59375q0.1875 -0.265625 0.421875 -0.4375q0.265625 -0.21875 0.625 -0.3125q0.359375 -0.109375 0.8125 -0.109375q0.34375 0 0.65625 0.03125q0.3125 0.03125 0.65625 0.109375l0.171875 -1.171875q-0.1875 -0.078125 -0.546875 -0.125q-0.359375 -0.046875 -0.6875 -0.046875z" fill-rule="nonzero"/><path fill="#4285f4" d="m381.48148 32.50671l0 0c0 -3.2200642 2.610382 -5.8304424 5.8304443 -5.8304424l61.126526 0c1.5463257 0 3.0293274 0.6142769 4.1227417 1.7076969c1.0934143 1.09342 1.7077026 2.576414 1.7077026 4.1227455l0 32.339115c0 3.22007 -2.610382 5.8304443 -5.8304443 5.8304443l-61.126526 0c-3.2200623 0 -5.8304443 -2.6103745 -5.8304443 -5.8304443z" fill-rule="evenodd"/><path fill="#ffffff" d="m404.95786 36.00752l-1.15625 0l-0.03125 6.40625q0 0.421875 -0.125 0.8125q-0.125 0.390625 -0.359375 0.6875q-0.25 0.3125 -0.609375 0.5q-0.34375 0.171875 -0.796875 0.171875q-0.46875 0 -0.828125 -0.171875q-0.34375 -0.1875 -0.578125 -0.5q-0.25 -0.296875 -0.375 -0.6875q-0.125 -0.390625 -0.125 -0.8125l-0.03125 -6.40625l-1.140625 0l-0.015625 6.40625q0 0.671875 0.21875 1.25q0.234375 0.578125 0.640625 1.015625q0.40625 0.4375 0.96875 0.6875q0.578125 0.234375 1.265625 0.234375q0.671875 0 1.234375 -0.25q0.578125 -0.25 0.984375 -0.6875q0.40625 -0.421875 0.640625 -1.0q0.234375 -0.578125 0.234375 -1.25l-0.015625 -6.40625zm2.0450745 12.171875l1.203125 0l0 -3.375q0.125 0.140625 0.28125 0.265625q0.15625 0.109375 0.3125 0.21875q0.28125 0.15625 0.625 0.234375q0.359375 0.078125 0.765625 0.078125q0.65625 0 1.171875 -0.265625q0.515625 -0.28125 0.875 -0.75q0.34375 -0.484375 0.53125 -1.140625q0.1875 -0.65625 0.1875 -1.40625l0 -0.140625q0 -0.78125 -0.1875 -1.4375q-0.1875 -0.671875 -0.53125 -1.140625q-0.359375 -0.484375 -0.875 -0.75q-0.515625 -0.265625 -1.203125 -0.265625q-0.375 0 -0.71875 0.078125q-0.328125 0.078125 -0.59375 0.234375q-0.203125 0.109375 -0.375 0.265625q-0.171875 0.140625 -0.3125 0.3125l-0.0625 -0.765625l-1.09375 0l0 9.75zm4.75 -6.28125l0 0.140625q0 0.515625 -0.125 0.984375q-0.109375 0.46875 -0.34375 0.8125q-0.234375 0.359375 -0.609375 0.578125q-0.359375 0.203125 -0.859375 0.203125q-0.3125 0 -0.5625 -0.078125q-0.25 -0.078125 -0.46875 -0.203125q-0.171875 -0.125 -0.328125 -0.28125q-0.140625 -0.171875 -0.25 -0.375l0 -3.390625q0.125 -0.21875 0.28125 -0.390625q0.171875 -0.1875 0.375 -0.3125q0.1875 -0.125 0.421875 -0.1875q0.25 -0.078125 0.53125 -0.078125q0.5 0 0.859375 0.21875q0.375 0.203125 0.609375 0.5625q0.234375 0.34375 0.34375 0.8125q0.125 0.46875 0.125 0.984375zm3.248169 6.28125l1.203125 0l0 -3.375q0.125 0.140625 0.28125 0.265625q0.15625 0.109375 0.3125 0.21875q0.28125 0.15625 0.625 0.234375q0.359375 0.078125 0.765625 0.078125q0.65625 0 1.171875 -0.265625q0.515625 -0.28125 0.875 -0.75q0.34375 -0.484375 0.53125 -1.140625q0.1875 -0.65625 0.1875 -1.40625l0 -0.140625q0 -0.78125 -0.1875 -1.4375q-0.1875 -0.671875 -0.53125 -1.140625q-0.359375 -0.484375 -0.875 -0.75q-0.515625 -0.265625 -1.203125 -0.265625q-0.375 0 -0.71875 0.078125q-0.328125 0.078125 -0.59375 0.234375q-0.203125 0.109375 -0.375 0.265625q-0.171875 0.140625 -0.3125 0.3125l-0.0625 -0.765625l-1.09375 0l0 9.75zm4.75 -6.28125l0 0.140625q0 0.515625 -0.125 0.984375q-0.109375 0.46875 -0.34375 0.8125q-0.234375 0.359375 -0.609375 0.578125q-0.359375 0.203125 -0.859375 0.203125q-0.3125 0 -0.5625 -0.078125q-0.25 -0.078125 -0.46875 -0.203125q-0.171875 -0.125 -0.328125 -0.28125q-0.140625 -0.171875 -0.25 -0.375l0 -3.390625q0.125 -0.21875 0.28125 -0.390625q0.171875 -0.1875 0.375 -0.3125q0.1875 -0.125 0.421875 -0.1875q0.25 -0.078125 0.53125 -0.078125q0.5 0 0.859375 0.21875q0.375 0.203125 0.609375 0.5625q0.234375 0.34375 0.34375 0.8125q0.125 0.46875 0.125 0.984375zm6.3731995 3.703125q1.015625 0 1.71875 -0.40625q0.703125 -0.421875 1.046875 -0.953125l-0.734375 -0.5625q-0.328125 0.421875 -0.828125 0.6875q-0.5 0.25 -1.140625 0.25q-0.5 0 -0.90625 -0.171875q-0.390625 -0.1875 -0.671875 -0.5q-0.28125 -0.296875 -0.453125 -0.6875q-0.15625 -0.390625 -0.203125 -0.90625l0 -0.046875l5.03125 0l0 -0.546875q0 -0.734375 -0.1875 -1.359375q-0.1875 -0.640625 -0.5625 -1.109375q-0.375 -0.453125 -0.953125 -0.71875q-0.5625 -0.265625 -1.3125 -0.265625q-0.609375 0 -1.1875 0.25q-0.578125 0.25 -1.03125 0.703125q-0.453125 0.46875 -0.734375 1.140625q-0.265625 0.671875 -0.265625 1.53125l0 0.265625q0 0.75 0.25 1.375q0.25 0.625 0.6875 1.078125q0.453125 0.453125 1.0625 0.703125q0.625 0.25 1.375 0.25zm-0.15625 -6.3125q0.453125 0 0.78125 0.171875q0.34375 0.171875 0.5625 0.4375q0.21875 0.28125 0.34375 0.65625q0.125 0.375 0.125 0.703125l0 0.046875l-3.78125 0q0.0625 -0.484375 0.234375 -0.859375q0.1875 -0.375 0.453125 -0.625q0.265625 -0.265625 0.578125 -0.390625q0.328125 -0.140625 0.703125 -0.140625zm9.654419 -0.984375q-0.765625 0 -1.375 0.34375q-0.59375 0.328125 -1.03125 0.90625l0 -0.171875l-0.0625 -0.953125l-1.140625 0l0 7.046875l1.203125 0l0 -4.515625q0.125 -0.328125 0.296875 -0.59375q0.1875 -0.265625 0.421875 -0.4375q0.265625 -0.21875 0.625 -0.3125q0.359375 -0.109375 0.8125 -0.109375q0.34375 0 0.65625 0.03125q0.3125 0.03125 0.65625 0.109375l0.171875 -1.171875q-0.1875 -0.078125 -0.546875 -0.125q-0.359375 -0.046875 -0.6875 -0.046875z" fill-rule="nonzero"/><path fill="#ffffff" d="m401.39627 53.023144l0 -1.015625l-7.015625 0l0 1.015625l2.921875 0l0 8.453125l1.171875 0l0 -8.453125l2.921875 0zm4.732544 8.578125q1.015625 0 1.71875 -0.40625q0.703125 -0.421875 1.046875 -0.953125l-0.734375 -0.5625q-0.328125 0.421875 -0.828125 0.6875q-0.5 0.25 -1.140625 0.25q-0.5 0 -0.90625 -0.171875q-0.390625 -0.1875 -0.671875 -0.5q-0.28125 -0.296875 -0.453125 -0.6875q-0.15625 -0.390625 -0.203125 -0.90625l0 -0.046875l5.03125 0l0 -0.546875q0 -0.734375 -0.1875 -1.359375q-0.1875 -0.640625 -0.5625 -1.109375q-0.375 -0.453125 -0.953125 -0.71875q-0.5625 -0.265625 -1.3125 -0.265625q-0.609375 0 -1.1875 0.25q-0.578125 0.25 -1.03125 0.703125q-0.453125 0.46875 -0.734375 1.140625q-0.265625 0.671875 -0.265625 1.53125l0 0.265625q0 0.75 0.25 1.375q0.25 0.625 0.6875 1.078125q0.453125 0.453125 1.0625 0.703125q0.625 0.25 1.375 0.25zm-0.15625 -6.3125q0.453125 0 0.78125 0.171875q0.34375 0.171875 0.5625 0.4375q0.21875 0.28125 0.34375 0.65625q0.125 0.375 0.125 0.703125l0 0.046875l-3.78125 0q0.0625 -0.484375 0.234375 -0.859375q0.1875 -0.375 0.453125 -0.625q0.265625 -0.265625 0.578125 -0.390625q0.328125 -0.140625 0.703125 -0.140625zm9.716949 4.3125q0 0.171875 -0.0625 0.328125q-0.0625 0.140625 -0.1875 0.265625q-0.203125 0.203125 -0.5625 0.328125q-0.359375 0.109375 -0.84375 0.109375q-0.296875 0 -0.609375 -0.0625q-0.3125 -0.0625 -0.578125 -0.21875q-0.25 -0.15625 -0.421875 -0.40625q-0.171875 -0.265625 -0.203125 -0.640625l-1.203125 0q0 0.453125 0.203125 0.875q0.203125 0.40625 0.59375 0.71875q0.390625 0.328125 0.9375 0.515625q0.5625 0.1875 1.28125 0.1875q0.625 0 1.15625 -0.140625q0.53125 -0.15625 0.90625 -0.421875q0.375 -0.28125 0.578125 -0.65625q0.21875 -0.390625 0.21875 -0.859375q0 -0.4375 -0.1875 -0.765625q-0.1875 -0.328125 -0.53125 -0.59375q-0.359375 -0.234375 -0.875 -0.40625q-0.515625 -0.1875 -1.15625 -0.328125q-0.5 -0.09375 -0.828125 -0.203125q-0.3125 -0.109375 -0.5 -0.234375q-0.203125 -0.125 -0.28125 -0.28125q-0.078125 -0.171875 -0.078125 -0.375q0 -0.203125 0.09375 -0.390625q0.109375 -0.203125 0.296875 -0.34375q0.1875 -0.140625 0.46875 -0.21875q0.296875 -0.09375 0.6875 -0.09375q0.375 0 0.671875 0.109375q0.296875 0.109375 0.5 0.265625q0.203125 0.171875 0.3125 0.390625q0.125 0.21875 0.125 0.453125l1.203125 0q0 -0.46875 -0.203125 -0.859375q-0.1875 -0.40625 -0.546875 -0.703125q-0.375 -0.296875 -0.890625 -0.46875q-0.515625 -0.171875 -1.171875 -0.171875q-0.609375 0 -1.109375 0.171875q-0.5 0.15625 -0.875 0.4375q-0.359375 0.28125 -0.5625 0.65625q-0.203125 0.375 -0.203125 0.796875q0 0.4375 0.1875 0.765625q0.203125 0.328125 0.5625 0.5625q0.359375 0.25 0.84375 0.4375q0.5 0.171875 1.109375 0.296875q0.5 0.09375 0.828125 0.21875q0.328125 0.109375 0.53125 0.25q0.203125 0.15625 0.28125 0.328125q0.09375 0.171875 0.09375 0.375zm6.170044 -6.875l-1.21875 0l0 1.703125l-1.84375 0l0 0.9375l1.84375 0l0 3.828125q0 0.640625 0.171875 1.109375q0.1875 0.453125 0.484375 0.75q0.296875 0.28125 0.703125 0.421875q0.40625 0.125 0.875 0.125q0.28125 0 0.5625 -0.03125q0.28125 -0.015625 0.53125 -0.0625q0.265625 -0.046875 0.46875 -0.109375q0.21875 -0.078125 0.375 -0.171875l-0.171875 -0.84375q-0.109375 0.015625 -0.28125 0.0625q-0.171875 0.03125 -0.375 0.0625q-0.203125 0.03125 -0.40625 0.0625q-0.203125 0.015625 -0.40625 0.015625q-0.265625 0 -0.5 -0.0625q-0.234375 -0.0625 -0.421875 -0.234375q-0.1875 -0.15625 -0.296875 -0.421875q-0.09375 -0.265625 -0.09375 -0.671875l0 -3.828125l2.6875 0l0 -0.9375l-2.6875 0l0 -1.703125zm8.263824 8.875q1.015625 0 1.71875 -0.40625q0.703125 -0.421875 1.046875 -0.953125l-0.734375 -0.5625q-0.328125 0.421875 -0.828125 0.6875q-0.5 0.25 -1.140625 0.25q-0.5 0 -0.90625 -0.171875q-0.390625 -0.1875 -0.671875 -0.5q-0.28125 -0.296875 -0.453125 -0.6875q-0.15625 -0.390625 -0.203125 -0.90625l0 -0.046875l5.03125 0l0 -0.546875q0 -0.734375 -0.1875 -1.359375q-0.1875 -0.640625 -0.5625 -1.109375q-0.375 -0.453125 -0.953125 -0.71875q-0.5625 -0.265625 -1.3125 -0.265625q-0.609375 0 -1.1875 0.25q-0.578125 0.25 -1.03125 0.703125q-0.453125 0.46875 -0.734375 1.140625q-0.265625 0.671875 -0.265625 1.53125l0 0.265625q0 0.75 0.25 1.375q0.25 0.625 0.6875 1.078125q0.453125 0.453125 1.0625 0.703125q0.625 0.25 1.375 0.25zm-0.15625 -6.3125q0.453125 0 0.78125 0.171875q0.34375 0.171875 0.5625 0.4375q0.21875 0.28125 0.34375 0.65625q0.125 0.375 0.125 0.703125l0 0.046875l-3.78125 0q0.0625 -0.484375 0.234375 -0.859375q0.1875 -0.375 0.453125 -0.625q0.265625 -0.265625 0.578125 -0.390625q0.328125 -0.140625 0.703125 -0.140625zm9.654419 -0.984375q-0.765625 0 -1.375 0.34375q-0.59375 0.328125 -1.03125 0.90625l0 -0.171875l-0.0625 -0.953125l-1.140625 0l0 7.046875l1.203125 0l0 -4.515625q0.125 -0.328125 0.296875 -0.59375q0.1875 -0.265625 0.421875 -0.4375q0.265625 -0.21875 0.625 -0.3125q0.359375 -0.109375 0.8125 -0.109375q0.34375 0 0.65625 0.03125q0.3125 0.03125 0.65625 0.109375l0.171875 -1.171875q-0.1875 -0.078125 -0.546875 -0.125q-0.359375 -0.046875 -0.6875 -0.046875z" fill-rule="nonzero"/><path fill="#000000" fill-opacity="0.0" d="m84.46312 48.67627l112.12598 0" fill-rule="evenodd"/><path stroke="#8190a8" stroke-width="1.0" stroke-linejoin="round" stroke-linecap="butt" stroke-dasharray="1.0,3.0" d="m90.46311 48.67627l100.125984 0" fill-rule="evenodd"/><path fill="#8190a8" stroke="#8190a8" stroke-width="1.0" stroke-linecap="butt" d="m90.46312 47.024536l-4.538101 1.6517334l4.538101 1.6517296z" fill-rule="evenodd"/><path fill="#8190a8" stroke="#8190a8" stroke-width="1.0" stroke-linecap="butt" d="m190.5891 50.328l4.538101 -1.6517296l-4.538101 -1.6517334z" fill-rule="evenodd"/><path fill="#000000" fill-opacity="0.0" d="m84.55455 4.9584203l112.0 0l0 45.259842l-112.0 0z" fill-rule="evenodd"/><path fill="#3b454e" d="m135.478 22.22967l0.609375 1.96875l0.953125 0l-2.40625 -7.578125l-0.8125 0l-2.4375 7.578125l0.96875 0l0.609375 -1.96875l2.515625 0zm-2.265625 -0.828125l1.015625 -3.296875l1.0 3.296875l-2.015625 0zm5.2072906 -2.828125l0 0.828125l1.90625 0l0 3.96875l-1.90625 0l0 0.828125l4.703125 0l0 -0.828125l-1.828125 0l0 -4.796875l-2.875 0zm1.78125 -1.484375q0 0.234375 0.140625 0.390625q0.140625 0.15625 0.4375 0.15625q0.28125 0 0.421875 -0.15625q0.15625 -0.15625 0.15625 -0.390625q0 -0.125 -0.046875 -0.234375q-0.03125 -0.109375 -0.125 -0.1875q-0.0625 -0.0625 -0.171875 -0.09375q-0.09375 -0.046875 -0.234375 -0.046875q-0.140625 0 -0.25 0.046875q-0.09375 0.03125 -0.171875 0.09375q-0.078125 0.078125 -0.125 0.1875q-0.03125 0.109375 -0.03125 0.234375zm8.144791 1.375q-0.609375 0 -1.09375 0.265625q-0.484375 0.265625 -0.828125 0.734375l0 -0.140625l-0.046875 -0.75l-0.90625 0l0 5.625l0.953125 0l0 -3.609375q0.09375 -0.265625 0.234375 -0.46875q0.15625 -0.21875 0.34375 -0.359375q0.21875 -0.171875 0.5 -0.25q0.28125 -0.09375 0.640625 -0.09375q0.28125 0 0.53125 0.03125q0.25 0.03125 0.53125 0.09375l0.125 -0.9375q-0.140625 -0.0625 -0.4375 -0.09375q-0.28125 -0.046875 -0.546875 -0.046875z" fill-rule="nonzero"/><path fill="#3b454e" d="m112.68424 29.420296l0 0.84375l1.765625 0l0 5.90625l-1.765625 0l0 0.828125l4.578125 0l0 -0.828125l-1.8125 0l0 -5.90625l1.8125 0l0 -0.84375l-4.578125 0zm6.3947906 7.578125l0.96875 0l0 -4.03125q0.09375 -0.1875 0.21875 -0.328125q0.140625 -0.15625 0.296875 -0.28125q0.1875 -0.125 0.40625 -0.203125q0.234375 -0.078125 0.5 -0.078125q0.3125 0 0.546875 0.078125q0.234375 0.078125 0.40625 0.234375q0.15625 0.15625 0.234375 0.421875q0.09375 0.265625 0.09375 0.640625l0 3.546875l0.96875 0l0 -3.578125q0 -0.5625 -0.140625 -0.96875q-0.140625 -0.40625 -0.390625 -0.671875q-0.265625 -0.265625 -0.625 -0.390625q-0.359375 -0.125 -0.796875 -0.125q-0.328125 0 -0.625 0.09375q-0.296875 0.09375 -0.546875 0.265625q-0.15625 0.109375 -0.3125 0.265625q-0.140625 0.140625 -0.265625 0.3125l-0.078125 -0.828125l-0.859375 0l0 5.625zm8.676041 -7.0l-0.96875 0l0 1.375l-1.484375 0l0 0.734375l1.484375 0l0 3.0625q0 0.515625 0.140625 0.890625q0.140625 0.359375 0.375 0.59375q0.234375 0.234375 0.5625 0.34375q0.32813263 0.109375 0.7031326 0.109375q0.21875 0 0.4375 -0.03125q0.234375 -0.015625 0.4375 -0.0625q0.203125 -0.03125 0.375 -0.078125q0.171875 -0.0625 0.296875 -0.140625l-0.140625 -0.671875q-0.09375 0.015625 -0.234375 0.046875q-0.125 0.03125 -0.28125 0.046875q-0.171875 0.03125 -0.34375 0.046875q-0.15625 0.015625 -0.3125 0.015625q-0.21875 0 -0.40625 -0.046875q-0.1875 -0.046875 -0.328125 -0.1875q-0.15625763 -0.125 -0.23438263 -0.328125q-0.078125 -0.21875 -0.078125 -0.546875l0 -3.0625l2.1406326 0l0 -0.734375l-2.1406326 0l0 -1.375zm6.5979233 7.109375q0.828125 0 1.375 -0.328125q0.5625 -0.34375 0.84375 -0.765625l-0.578125 -0.453125q-0.265625 0.34375 -0.671875 0.546875q-0.40625 0.203125 -0.921875 0.203125q-0.390625 0 -0.71875 -0.140625q-0.3125 -0.140625 -0.53125 -0.40625q-0.234375 -0.234375 -0.359375 -0.546875q-0.125 -0.3125 -0.15625 -0.71875l0 -0.046875l4.015625 0l0 -0.421875q0 -0.59375 -0.15625 -1.09375q-0.140625 -0.5 -0.4375 -0.875q-0.3125 -0.375 -0.765625 -0.578125q-0.453125 -0.21875 -1.0625 -0.21875q-0.484375 0 -0.953125 0.203125q-0.453125 0.1875 -0.8125 0.5625q-0.359375 0.375 -0.578125 0.921875q-0.21875 0.53125 -0.21875 1.21875l0 0.203125q0 0.59375 0.1875 1.09375q0.203125 0.5 0.5625 0.859375q0.359375 0.375 0.84375 0.578125q0.5 0.203125 1.09375 0.203125zm-0.125 -5.046875q0.375 0 0.640625 0.140625q0.265625 0.125 0.4375 0.34375q0.1875 0.21875 0.28125 0.515625q0.09375 0.296875 0.09375 0.5625l0 0.046875l-3.015625 0q0.046875 -0.390625 0.1875 -0.6875q0.15625 -0.296875 0.359375 -0.515625q0.203125 -0.203125 0.453125 -0.296875q0.265625 -0.109375 0.5625 -0.109375zm7.7229156 -0.796875q-0.609375 0 -1.09375 0.265625q-0.484375 0.265625 -0.828125 0.734375l0 -0.140625l-0.046875 -0.75l-0.90625 0l0 5.625l0.953125 0l0 -3.609375q0.09375 -0.265625 0.234375 -0.46875q0.15625 -0.21875 0.34375 -0.359375q0.21875 -0.171875 0.5 -0.25q0.28125 -0.09375 0.640625 -0.09375q0.28125 0 0.53125 0.03125q0.25 0.03125 0.53125 0.09375l0.125 -0.9375q-0.140625 -0.0625 -0.4375 -0.09375q-0.28125 -0.046875 -0.546875 -0.046875zm4.1447906 5.734375l0.96875 0l0 -4.890625l2.171875 0l0 -0.734375l-2.171875 0l0 -0.40625q0 -0.34375 0.078125 -0.609375q0.09375 -0.265625 0.28125 -0.4375q0.15625 -0.15625 0.40625 -0.234375q0.265625 -0.09375 0.59375 -0.09375q0.3125 0 0.59375 0.0625q0.296875 0.046875 0.5 0.125l0.125 -0.796875q-0.140625 -0.03125 -0.28125 -0.0625q-0.125 -0.03125 -0.25 -0.046875q-0.203125 -0.046875 -0.40625 -0.0625q-0.203125 -0.03125 -0.40625 -0.03125q-0.5 0 -0.90625 0.140625q-0.40625 0.140625 -0.6875 0.421875q-0.296875 0.265625 -0.453125 0.6875q-0.15625 0.40625 -0.15625 0.9375l0 0.40625l-1.546875 0l0 0.734375l1.546875 0l0 4.890625zm8.660416 0l1.0 0l0 -0.078125q-0.09375 -0.234375 -0.15625 -0.546875q-0.046875 -0.328125 -0.046875 -0.609375l0 -2.609375q0 -0.46875 -0.171875 -0.828125q-0.171875 -0.359375 -0.46875 -0.59375q-0.296875 -0.234375 -0.71875 -0.34375q-0.40625 -0.125 -0.875 -0.125q-0.53125 0 -0.953125 0.15625q-0.40625 0.140625 -0.6875 0.375q-0.296875 0.234375 -0.453125 0.53125q-0.140625 0.296875 -0.15625 0.609375l0.96875 0q0 -0.1875 0.078125 -0.34375q0.09375 -0.171875 0.25 -0.28125q0.15625 -0.125 0.375 -0.1875q0.234375 -0.078125 0.515625 -0.078125q0.3125 0 0.5625 0.078125q0.25 0.078125 0.421875 0.21875q0.171875 0.140625 0.265625 0.34375q0.09375 0.203125 0.09375 0.453125l0 0.453125l-1.0625 0q-0.578125 0 -1.0625 0.109375q-0.46875 0.109375 -0.8125 0.34375q-0.328125 0.234375 -0.515625 0.578125q-0.1875 0.34375 -0.1875 0.8125q0 0.359375 0.140625 0.671875q0.140625 0.296875 0.390625 0.515625q0.25 0.21875 0.609375 0.359375q0.359375 0.125 0.8125 0.125q0.265625 0 0.515625 -0.0625q0.25 -0.0625 0.46875 -0.15625q0.203125 -0.09375 0.375 -0.21875q0.1875 -0.140625 0.34375 -0.28125q0.015625 0.171875 0.046875 0.34375q0.03125 0.15625 0.09375 0.265625zm-1.703125 -0.734375q-0.28125 0 -0.5 -0.0625q-0.203125 -0.078125 -0.34375 -0.21875q-0.140625 -0.125 -0.21875 -0.296875q-0.0625 -0.171875 -0.0625 -0.390625q0 -0.21875 0.078125 -0.390625q0.078125 -0.171875 0.234375 -0.296875q0.21875 -0.171875 0.578125 -0.25q0.375 -0.09375 0.875 -0.09375l0.90625 0l0 1.140625q-0.09375 0.171875 -0.234375 0.328125q-0.140625 0.140625 -0.34375 0.265625q-0.203125 0.125 -0.453125 0.203125q-0.234375 0.0625 -0.515625 0.0625zm6.7854156 0.0625q-0.453125 0 -0.75 -0.171875q-0.296875 -0.1875 -0.484375 -0.484375q-0.1875 -0.28125 -0.265625 -0.640625q-0.078125 -0.375 -0.078125 -0.734375l0 -0.21875q0 -0.359375 0.078125 -0.71875q0.078125 -0.359375 0.265625 -0.65625q0.1875 -0.28125 0.484375 -0.453125q0.3125 -0.1875 0.75 -0.1875q0.296875 0 0.546875 0.09375q0.25 0.09375 0.4375 0.265625q0.1875 0.171875 0.28125 0.40625q0.109375 0.21875 0.125 0.484375l0.90625 0q0 -0.4375 -0.171875 -0.8125q-0.171875 -0.375 -0.46875 -0.640625q-0.3125 -0.28125 -0.734375 -0.4375q-0.421875 -0.15625 -0.921875 -0.15625q-0.625 0 -1.109375 0.234375q-0.484375 0.21875 -0.796875 0.609375q-0.328125 0.390625 -0.484375 0.90625q-0.15625 0.5 -0.15625 1.0625l0 0.21875q0 0.5625 0.15625 1.078125q0.15625 0.5 0.484375 0.875q0.3125 0.390625 0.796875 0.625q0.484375 0.234375 1.109375 0.234375q0.453125 0 0.859375 -0.15625q0.421875 -0.15625 0.734375 -0.421875q0.3125 -0.25 0.5 -0.59375q0.203125 -0.34375 0.203125 -0.71875l-0.90625 0q-0.015625 0.234375 -0.140625 0.4375q-0.109375 0.203125 -0.296875 0.34375q-0.1875 0.15625 -0.4375 0.25q-0.25 0.078125 -0.515625 0.078125zm6.4885406 0.78125q0.828125 0 1.375 -0.328125q0.5625 -0.34375 0.84375 -0.765625l-0.578125 -0.453125q-0.265625 0.34375 -0.671875 0.546875q-0.40625 0.203125 -0.921875 0.203125q-0.390625 0 -0.71875 -0.140625q-0.3125 -0.140625 -0.53125 -0.40625q-0.234375 -0.234375 -0.359375 -0.546875q-0.125 -0.3125 -0.15625 -0.71875l0 -0.046875l4.015625 0l0 -0.421875q0 -0.59375 -0.15625 -1.09375q-0.140625 -0.5 -0.4375 -0.875q-0.3125 -0.375 -0.765625 -0.578125q-0.453125 -0.21875 -1.0625 -0.21875q-0.484375 0 -0.953125 0.203125q-0.453125 0.1875 -0.8125 0.5625q-0.359375 0.375 -0.578125 0.921875q-0.21875 0.53125 -0.21875 1.21875l0 0.203125q0 0.59375 0.1875 1.09375q0.203125 0.5 0.5625 0.859375q0.359375 0.375 0.84375 0.578125q0.5 0.203125 1.09375 0.203125zm-0.125 -5.046875q0.375 0 0.640625 0.140625q0.265625 0.125 0.4375 0.34375q0.1875 0.21875 0.28125 0.515625q0.09375 0.296875 0.09375 0.5625l0 0.046875l-3.015625 0q0.046875 -0.390625 0.1875 -0.6875q0.15625 -0.296875 0.359375 -0.515625q0.203125 -0.203125 0.453125 -0.296875q0.265625 -0.109375 0.5625 -0.109375z" fill-rule="nonzero"/><path fill="#000000" fill-opacity="0.0" d="m269.36615 48.67627l112.12598 0" fill-rule="evenodd"/><path stroke="#8190a8" stroke-width="1.0" stroke-linejoin="round" stroke-linecap="butt" d="m275.36615 48.67627l100.12598 0" fill-rule="evenodd"/><path fill="#8190a8" stroke="#8190a8" stroke-width="1.0" stroke-linecap="butt" d="m275.36615 47.024536l-4.5381165 1.6517334l4.5381165 1.6517296z" fill-rule="evenodd"/><path fill="#8190a8" stroke="#8190a8" stroke-width="1.0" stroke-linecap="butt" d="m375.49213 50.328l4.538086 -1.6517296l-4.538086 -1.6517334z" fill-rule="evenodd"/><path fill="#000000" fill-opacity="0.0" d="m269.45743 4.7435975l112.0 0l0 45.259842l-112.0 0z" fill-rule="evenodd"/><path fill="#3b454e" d="m312.08557 21.702347l-0.96875 0q-0.046875 0.34375 -0.15625 0.640625q-0.109375 0.296875 -0.3125 0.5q-0.1875 0.21875 -0.46875 0.34375q-0.28125 0.125 -0.65625 0.125q-0.34375 0 -0.609375 -0.109375q-0.25 -0.125 -0.453125 -0.3125q-0.1875 -0.203125 -0.3125 -0.453125q-0.125 -0.25 -0.203125 -0.546875q-0.078125 -0.28125 -0.109375 -0.578125q-0.03125 -0.296875 -0.03125 -0.578125l0 -1.078125q0 -0.28125 0.03125 -0.578125q0.03125 -0.296875 0.109375 -0.578125q0.078125 -0.296875 0.203125 -0.546875q0.125 -0.25 0.328125 -0.453125q0.1875 -0.1875 0.4375 -0.296875q0.265625 -0.109375 0.609375 -0.109375q0.375 0 0.65625 0.125q0.28125 0.125 0.46875 0.34375q0.203125 0.234375 0.3125 0.53125q0.109375 0.296875 0.15625 0.640625l0.96875 0q-0.0625 -0.546875 -0.265625 -0.984375q-0.1875 -0.453125 -0.515625 -0.78125q-0.3125 -0.3125 -0.765625 -0.484375q-0.453125 -0.1875 -1.015625 -0.1875q-0.46875 0 -0.859375 0.140625q-0.375 0.125 -0.671875 0.359375q-0.296875 0.234375 -0.515625 0.5625q-0.21875 0.3125 -0.359375 0.6875q-0.140625 0.375 -0.21875 0.796875q-0.0625 0.40625 -0.0625 0.828125l0 1.0625q0 0.421875 0.0625 0.828125q0.078125 0.40625 0.21875 0.78125q0.140625 0.375 0.359375 0.703125q0.21875 0.3125 0.515625 0.546875q0.296875 0.234375 0.671875 0.375q0.390625 0.125 0.859375 0.125q0.546875 0 0.984375 -0.171875q0.453125 -0.1875 0.78125 -0.5q0.328125 -0.3125 0.53125 -0.75q0.203125 -0.4375 0.265625 -0.96875zm5.1916504 2.28125l0.875 0l0 -5.625l-0.96875 0l0 4.03125q-0.078125 0.1875 -0.203125 0.34375q-0.109375 0.140625 -0.265625 0.25q-0.1875 0.140625 -0.4375 0.21875q-0.25 0.078125 -0.578125 0.078125q-0.28125 0 -0.484375 -0.078125q-0.203125 -0.078125 -0.359375 -0.25q-0.140625 -0.1875 -0.21875 -0.484375q-0.0625 -0.296875 -0.0625 -0.765625l0 -3.34375l-0.96875 0l0 3.34375q0 0.625 0.140625 1.078125q0.140625 0.453125 0.390625 0.734375q0.25 0.296875 0.609375 0.4375q0.359375 0.140625 0.796875 0.140625q0.5625 0 0.984375 -0.234375q0.421875 -0.234375 0.703125 -0.65625l0.046875 0.78125zm6.426056 -1.5q0 0.140625 -0.046875 0.265625q-0.046875 0.109375 -0.15625 0.21875q-0.15625 0.15625 -0.453125 0.25q-0.28125 0.09375 -0.65625 0.09375q-0.25 0 -0.5 -0.046875q-0.25 -0.0625 -0.453125 -0.1875q-0.203125 -0.125 -0.34375 -0.328125q-0.140625 -0.203125 -0.15625 -0.5l-0.96875 0q0 0.359375 0.15625 0.703125q0.171875 0.328125 0.484375 0.578125q0.3125 0.25 0.75 0.40625q0.453125 0.15625 1.03125 0.15625q0.5 0 0.921875 -0.125q0.421875 -0.125 0.71875 -0.34375q0.296875 -0.21875 0.46875 -0.515625q0.171875 -0.3125 0.171875 -0.6875q0 -0.34375 -0.15625 -0.609375q-0.140625 -0.265625 -0.421875 -0.46875q-0.28125 -0.203125 -0.703125 -0.34375q-0.40625 -0.140625 -0.921875 -0.25q-0.390625 -0.078125 -0.65625 -0.15625q-0.25 -0.09375 -0.40625 -0.1875q-0.15625 -0.109375 -0.21875 -0.234375q-0.0625 -0.140625 -0.0625 -0.296875q0 -0.171875 0.078125 -0.3125q0.078125 -0.15625 0.234375 -0.265625q0.15625 -0.125 0.375 -0.1875q0.234375 -0.0625 0.546875 -0.0625q0.296875 0 0.53125 0.078125q0.234375 0.078125 0.40625 0.21875q0.171875 0.140625 0.265625 0.3125q0.09375 0.171875 0.09375 0.359375l0.953125 0q0 -0.375 -0.15625 -0.6875q-0.15625 -0.328125 -0.453125 -0.5625q-0.28125 -0.25 -0.703125 -0.375q-0.421875 -0.140625 -0.9375 -0.140625q-0.484375 0 -0.890625 0.140625q-0.390625 0.125 -0.6875 0.34375q-0.296875 0.21875 -0.453125 0.53125q-0.15625 0.296875 -0.15625 0.640625q0 0.34375 0.15625 0.609375q0.15625 0.265625 0.4375 0.453125q0.28125 0.203125 0.671875 0.34375q0.40625 0.125 0.890625 0.234375q0.390625 0.078125 0.65625 0.171875q0.265625 0.09375 0.421875 0.203125q0.171875 0.125 0.234375 0.265625q0.0625 0.125 0.0625 0.296875zm4.9416504 -5.5l-0.96875 0l0 1.375l-1.484375 0l0 0.734375l1.484375 0l0 3.0625q0 0.515625 0.140625 0.890625q0.140625 0.359375 0.375 0.59375q0.234375 0.234375 0.5625 0.34375q0.328125 0.109375 0.703125 0.109375q0.21875 0 0.4375 -0.03125q0.234375 -0.015625 0.4375 -0.0625q0.203125 -0.03125 0.375 -0.078125q0.171875 -0.0625 0.296875 -0.140625l-0.140625 -0.671875q-0.09375 0.015625 -0.234375 0.046875q-0.125 0.03125 -0.28125 0.046875q-0.171875 0.03125 -0.34375 0.046875q-0.15625 0.015625 -0.3125 0.015625q-0.21875 0 -0.40625 -0.046875q-0.1875 -0.046875 -0.328125 -0.1875q-0.15625 -0.125 -0.234375 -0.328125q-0.078125 -0.21875 -0.078125 -0.546875l0 -3.0625l2.140625 0l0 -0.734375l-2.140625 0l0 -1.375zm3.847931 4.140625l0 0.109375q0 0.609375 0.171875 1.125q0.171875 0.515625 0.515625 0.90625q0.328125 0.390625 0.796875 0.609375q0.484375 0.21875 1.078125 0.21875q0.59375 0 1.0625 -0.21875q0.46875 -0.21875 0.8125 -0.609375q0.328125 -0.390625 0.5 -0.90625q0.171875 -0.515625 0.171875 -1.125l0 -0.109375q0 -0.609375 -0.171875 -1.125q-0.171875 -0.53125 -0.5 -0.921875q-0.34375 -0.390625 -0.828125 -0.609375q-0.46875 -0.21875 -1.0625 -0.21875q-0.59375 0 -1.0625 0.21875q-0.46875 0.21875 -0.796875 0.609375q-0.34375 0.390625 -0.515625 0.921875q-0.171875 0.515625 -0.171875 1.125zm0.953125 0.109375l0 -0.109375q0 -0.421875 0.09375 -0.796875q0.109375 -0.375 0.3125 -0.65625q0.203125 -0.296875 0.484375 -0.453125q0.296875 -0.171875 0.703125 -0.171875q0.40625 0 0.703125 0.171875q0.296875 0.15625 0.5 0.453125q0.203125 0.28125 0.296875 0.65625q0.109375 0.375 0.109375 0.796875l0 0.109375q0 0.40625 -0.109375 0.796875q-0.09375 0.375 -0.296875 0.65625q-0.203125 0.28125 -0.5 0.453125q-0.296875 0.171875 -0.6875 0.171875q-0.40625 0 -0.703125 -0.171875q-0.296875 -0.171875 -0.5 -0.453125q-0.203125 -0.28125 -0.3125 -0.65625q-0.09375 -0.390625 -0.09375 -0.796875zm6.1447754 -2.875l-0.859375 0l0 5.625l0.921875 0l0 -4.484375q0.03125 -0.078125 0.078125 -0.140625q0.046875 -0.078125 0.109375 -0.140625q0.09375 -0.078125 0.21875 -0.109375q0.125 -0.046875 0.296875 -0.046875q0.15625 0 0.265625 0.046875q0.125 0.03125 0.203125 0.125q0.09375 0.078125 0.125 0.21875q0.03125 0.140625 0.03125 0.3125l0 4.21875l0.921875 0l0 -4.21875q0 -0.03125 0 -0.046875q0 -0.03125 0 -0.046875q0.015625 -0.140625 0.0625 -0.234375q0.046875 -0.109375 0.125 -0.203125q0.09375 -0.078125 0.21875 -0.125q0.125 -0.046875 0.296875 -0.046875q0.15625 0 0.28125 0.046875q0.125 0.046875 0.203125 0.125q0.078125 0.09375 0.109375 0.234375q0.046875 0.125 0.046875 0.296875l0 4.21875l0.921875 0l0 -4.203125q0 -0.40625 -0.09375 -0.703125q-0.09375 -0.296875 -0.265625 -0.484375q-0.171875 -0.171875 -0.40625 -0.25q-0.234375 -0.09375 -0.515625 -0.09375q-0.21875 0 -0.40625 0.0625q-0.171875 0.046875 -0.3125 0.140625q-0.125 0.078125 -0.21875 0.1875q-0.09375 0.09375 -0.171875 0.21875q-0.0625 -0.140625 -0.140625 -0.234375q-0.078125 -0.109375 -0.171875 -0.1875q-0.140625 -0.09375 -0.328125 -0.140625q-0.171875 -0.046875 -0.390625 -0.046875q-0.390625 0 -0.671875 0.171875q-0.28125 0.171875 -0.453125 0.46875l-0.03125 -0.53125z" fill-rule="nonzero"/><path fill="#3b454e" d="m297.58713 29.205473l0 0.84375l1.765625 0l0 5.906252l-1.765625 0l0 0.828125l4.578125 0l0 -0.828125l-1.8125 0l0 -5.906252l1.8125 0l0 -0.84375l-4.578125 0zm6.394806 7.578127l0.96875 0l0 -4.03125q0.09375 -0.1875 0.21875 -0.328125q0.140625 -0.15625 0.296875 -0.28125q0.1875 -0.125 0.40625 -0.2031269q0.234375 -0.078125 0.5 -0.078125q0.3125 0 0.546875 0.078125q0.234375 0.07812691 0.40625 0.2343769q0.15625 0.15625 0.234375 0.421875q0.09375 0.265625 0.09375 0.640625l0 3.546875l0.96875 0l0 -3.578125q0 -0.5625 -0.140625 -0.96875q-0.140625 -0.4062519 -0.390625 -0.6718769q-0.265625 -0.265625 -0.625 -0.390625q-0.359375 -0.125 -0.796875 -0.125q-0.328125 0 -0.625 0.09375q-0.296875 0.09375 -0.546875 0.265625q-0.15625 0.109375 -0.3125 0.265625q-0.140625 0.140625 -0.265625 0.3125l-0.078125 -0.828125l-0.859375 0l0 5.625002zm8.676025 -7.000002l-0.96875 0l0 1.375l-1.484375 0l0 0.734375l1.484375 0l0 3.062502q0 0.515625 0.140625 0.890625q0.140625 0.359375 0.375 0.59375q0.234375 0.234375 0.5625 0.34375q0.328125 0.109375 0.703125 0.109375q0.21875 0 0.4375 -0.03125q0.234375 -0.015625 0.4375 -0.0625q0.203125 -0.03125 0.375 -0.078125q0.171875 -0.0625 0.296875 -0.140625l-0.140625 -0.671875q-0.09375 0.015625 -0.234375 0.046875q-0.125 0.03125 -0.28125 0.046875q-0.171875 0.03125 -0.34375 0.046875q-0.15625 0.015625 -0.3125 0.015625q-0.21875 0 -0.40625 -0.046875q-0.1875 -0.046875 -0.328125 -0.1875q-0.15625 -0.125 -0.234375 -0.328125q-0.078125 -0.21875 -0.078125 -0.546875l0 -3.062502l2.140625 0l0 -0.734375l-2.140625 0l0 -1.375zm6.597931 7.109377q0.828125 0 1.375 -0.328125q0.5625 -0.34375 0.84375 -0.765625l-0.578125 -0.453125q-0.265625 0.34375 -0.671875 0.546875q-0.40625 0.203125 -0.921875 0.203125q-0.390625 0 -0.71875 -0.140625q-0.3125 -0.140625 -0.53125 -0.40625q-0.234375 -0.234375 -0.359375 -0.546875q-0.125 -0.3125 -0.15625 -0.71875l0 -0.046875l4.015625 0l0 -0.421875q0 -0.59375 -0.15625 -1.09375q-0.140625 -0.5 -0.4375 -0.8750019q-0.3125 -0.375 -0.765625 -0.578125q-0.453125 -0.21875 -1.0625 -0.21875q-0.484375 0 -0.953125 0.203125q-0.453125 0.1875 -0.8125 0.5625q-0.359375 0.3750019 -0.578125 0.9218769q-0.21875 0.53125 -0.21875 1.21875l0 0.203125q0 0.59375 0.1875 1.09375q0.203125 0.5 0.5625 0.859375q0.359375 0.375 0.84375 0.578125q0.5 0.203125 1.09375 0.203125zm-0.125 -5.046877q0.375 0 0.640625 0.140625q0.265625 0.1250019 0.4375 0.3437519q0.1875 0.21875 0.28125 0.515625q0.09375 0.296875 0.09375 0.5625l0 0.046875l-3.015625 0q0.046875 -0.390625 0.1875 -0.6875q0.15625 -0.296875 0.359375 -0.515625q0.203125 -0.203125 0.453125 -0.2968769q0.265625 -0.109375 0.5625 -0.109375zm7.7229004 -0.796875q-0.609375 0 -1.09375 0.265625q-0.484375 0.265625 -0.828125 0.7343769l0 -0.1406269l-0.046875 -0.75l-0.90625 0l0 5.625002l0.953125 0l0 -3.609375q0.09375 -0.265625 0.234375 -0.46875q0.15625 -0.21875 0.34375 -0.359375q0.21875 -0.171875 0.5 -0.25q0.28125 -0.09375 0.640625 -0.09375q0.28125 0 0.53125 0.03125q0.25 0.03125 0.53125 0.09375l0.125 -0.9375019q-0.140625 -0.0625 -0.4375 -0.09375q-0.28125 -0.046875 -0.546875 -0.046875zm4.144806 5.734377l0.96875 0l0 -4.890627l2.171875 0l0 -0.734375l-2.171875 0l0 -0.40625q0 -0.34375 0.078125 -0.609375q0.09375 -0.265625 0.28125 -0.4375q0.15625 -0.15625 0.40625 -0.234375q0.265625 -0.09375 0.59375 -0.09375q0.3125 0 0.59375 0.0625q0.296875 0.046875 0.5 0.125l0.125 -0.796875q-0.140625 -0.03125 -0.28125 -0.0625q-0.125 -0.03125 -0.25 -0.046875q-0.203125 -0.046875 -0.40625 -0.0625q-0.203125 -0.03125 -0.40625 -0.03125q-0.5 0 -0.90625 0.140625q-0.40625 0.140625 -0.6875 0.421875q-0.296875 0.265625 -0.453125 0.6875q-0.15625 0.40625 -0.15625 0.9375l0 0.40625l-1.546875 0l0 0.734375l1.546875 0l0 4.890627zm8.6604 0l1.0 0l0 -0.078125q-0.09375 -0.234375 -0.15625 -0.546875q-0.046875 -0.328125 -0.046875 -0.609375l0 -2.609375q0 -0.46875 -0.171875 -0.828125q-0.171875 -0.3593769 -0.46875 -0.5937519q-0.296875 -0.234375 -0.71875 -0.34375q-0.40625 -0.125 -0.875 -0.125q-0.53125 0 -0.953125 0.15625q-0.40625 0.140625 -0.6875 0.375q-0.296875 0.234375 -0.453125 0.5312519q-0.140625 0.296875 -0.15625 0.609375l0.96875 0q0 -0.1875 0.078125 -0.34375q0.09375 -0.171875 0.25 -0.28125q0.15625 -0.1250019 0.375 -0.1875019q0.234375 -0.078125 0.515625 -0.078125q0.3125 0 0.5625 0.078125q0.25 0.078125 0.421875 0.2187519q0.171875 0.140625 0.265625 0.34375q0.09375 0.203125 0.09375 0.453125l0 0.453125l-1.0625 0q-0.578125 0 -1.0625 0.109375q-0.46875 0.109375 -0.8125 0.34375q-0.328125 0.234375 -0.515625 0.578125q-0.1875 0.34375 -0.1875 0.8125q0 0.359375 0.140625 0.671875q0.140625 0.296875 0.390625 0.515625q0.25 0.21875 0.609375 0.359375q0.359375 0.125 0.8125 0.125q0.265625 0 0.515625 -0.0625q0.25 -0.0625 0.46875 -0.15625q0.203125 -0.09375 0.375 -0.21875q0.1875 -0.140625 0.34375 -0.28125q0.015625 0.171875 0.046875 0.34375q0.03125 0.15625 0.09375 0.265625zm-1.703125 -0.734375q-0.28125 0 -0.5 -0.0625q-0.203125 -0.078125 -0.34375 -0.21875q-0.140625 -0.125 -0.21875 -0.296875q-0.0625 -0.171875 -0.0625 -0.390625q0 -0.21875 0.078125 -0.390625q0.078125 -0.171875 0.234375 -0.296875q0.21875 -0.171875 0.578125 -0.25q0.375 -0.09375 0.875 -0.09375l0.90625 0l0 1.140625q-0.09375 0.171875 -0.234375 0.328125q-0.140625 0.140625 -0.34375 0.265625q-0.203125 0.125 -0.453125 0.203125q-0.234375 0.0625 -0.515625 0.0625zm6.785431 0.0625q-0.453125 0 -0.75 -0.171875q-0.296875 -0.1875 -0.484375 -0.484375q-0.1875 -0.28125 -0.265625 -0.640625q-0.078125 -0.375 -0.078125 -0.734375l0 -0.21875q0 -0.359375 0.078125 -0.71875q0.078125 -0.359375 0.265625 -0.65625q0.1875 -0.28125 0.484375 -0.453125q0.3125 -0.1875019 0.75 -0.1875019q0.296875 0 0.546875 0.09375q0.25 0.09375191 0.4375 0.2656269q0.1875 0.171875 0.28125 0.40625q0.109375 0.21875 0.125 0.484375l0.90625 0q0 -0.4375 -0.171875 -0.8125q-0.171875 -0.3750019 -0.46875 -0.6406269q-0.3125 -0.28125 -0.734375 -0.4375q-0.421875 -0.15625 -0.921875 -0.15625q-0.625 0 -1.109375 0.234375q-0.484375 0.21875 -0.796875 0.609375q-0.328125 0.3906269 -0.484375 0.9062519q-0.15625 0.5 -0.15625 1.0625l0 0.21875q0 0.5625 0.15625 1.078125q0.15625 0.5 0.484375 0.875q0.3125 0.390625 0.796875 0.625q0.484375 0.234375 1.109375 0.234375q0.453125 0 0.859375 -0.15625q0.421875 -0.15625 0.734375 -0.421875q0.3125 -0.25 0.5 -0.59375q0.203125 -0.34375 0.203125 -0.71875l-0.90625 0q-0.015625 0.234375 -0.140625 0.4375q-0.109375 0.203125 -0.296875 0.34375q-0.1875 0.15625 -0.4375 0.25q-0.25 0.078125 -0.515625 0.078125zm6.4885254 0.78125q0.828125 0 1.375 -0.328125q0.5625 -0.34375 0.84375 -0.765625l-0.578125 -0.453125q-0.265625 0.34375 -0.671875 0.546875q-0.40625 0.203125 -0.921875 0.203125q-0.390625 0 -0.71875 -0.140625q-0.3125 -0.140625 -0.53125 -0.40625q-0.234375 -0.234375 -0.359375 -0.546875q-0.125 -0.3125 -0.15625 -0.71875l0 -0.046875l4.015625 0l0 -0.421875q0 -0.59375 -0.15625 -1.09375q-0.140625 -0.5 -0.4375 -0.8750019q-0.3125 -0.375 -0.765625 -0.578125q-0.453125 -0.21875 -1.0625 -0.21875q-0.484375 0 -0.953125 0.203125q-0.453125 0.1875 -0.8125 0.5625q-0.359375 0.3750019 -0.578125 0.9218769q-0.21875 0.53125 -0.21875 1.21875l0 0.203125q0 0.59375 0.1875 1.09375q0.203125 0.5 0.5625 0.859375q0.359375 0.375 0.84375 0.578125q0.5 0.203125 1.09375 0.203125zm-0.125 -5.046877q0.375 0 0.640625 0.140625q0.265625 0.1250019 0.4375 0.3437519q0.1875 0.21875 0.28125 0.515625q0.09375 0.296875 0.09375 0.5625l0 0.046875l-3.015625 0q0.046875 -0.390625 0.1875 -0.6875q0.15625 -0.296875 0.359375 -0.515625q0.203125 -0.203125 0.453125 -0.2968769q0.265625 -0.109375 0.5625 -0.109375z" fill-rule="nonzero"/></g></svg>