<svg version="1.1" viewBox="0.0 0.0 432.4540682414698 218.753280839895" fill="none" stroke="none" stroke-linecap="square" stroke-miterlimit="10" xmlns:xlink="http://www.w3.org/1999/xlink" xmlns="http://www.w3.org/2000/svg"><clipPath id="p.0"><path d="m0 0l432.45407 0l0 218.75328l-432.45407 0l0 -218.75328z" clip-rule="nonzero"/></clipPath><g clip-path="url(#p.0)"><path fill="#000000" fill-opacity="0.0" d="m0 0l432.45407 0l0 218.75328l-432.45407 0z" fill-rule="evenodd"/><path fill="#ffffff" d="m179.63518 101.29436l0 0c0 -5.217209 4.22937 -9.446587 9.446579 -9.446587l194.27219 0c2.505371 0 4.9081726 0.99526215 6.6797485 2.766838c1.7715759 1.7715836 2.7668457 4.174362 2.7668457 6.6797485l0 88.53989c0 5.217209 -4.2294006 9.446594 -9.446594 9.446594l-194.27219 0c-5.217209 0 -9.446579 -4.2293854 -9.446579 -9.446594z" fill-rule="evenodd"/><path stroke="#e8ecef" stroke-width="1.0" stroke-linejoin="round" stroke-linecap="butt" d="m179.63518 101.29436l0 0c0 -5.217209 4.22937 -9.446587 9.446579 -9.446587l194.27219 0c2.505371 0 4.9081726 0.99526215 6.6797485 2.766838c1.7715759 1.7715836 2.7668457 4.174362 2.7668457 6.6797485l0 88.53989c0 5.217209 -4.2294006 9.446594 -9.446594 9.446594l-194.27219 0c-5.217209 0 -9.446579 -4.2293854 -9.446579 -9.446594z" fill-rule="evenodd"/><path fill="#f3f5f6" d="m188.45682 91.84777l196.23056 0c2.245697 0 4.399414 0.8920975 5.9873657 2.4800415c1.5879211 1.587944 2.4800415 3.741661 2.4800415 5.987358l0 19.62709c0 9.765625E-4 -7.9345703E-4 0.0017700195 -0.0018005371 0.0017700195l-213.16356 -0.0017700195l0 0c-9.918213E-4 0 -0.0017852783 -8.010864E-4 -0.0017852783 -0.0017776489l0.0017852783 -19.625313l0 0c0 -4.6764145 3.7909698 -8.4674 8.467392 -8.4674z" fill-rule="evenodd"/><path stroke="#e8ecef" stroke-width="1.0" stroke-linejoin="round" stroke-linecap="butt" d="m188.45682 91.84777l196.23056 0c2.245697 0 4.399414 0.8920975 5.9873657 2.4800415c1.5879211 1.587944 2.4800415 3.741661 2.4800415 5.987358l0 19.62709c0 9.765625E-4 -7.9345703E-4 0.0017700195 -0.0018005371 0.0017700195l-213.16356 -0.0017700195l0 0c-9.918213E-4 0 -0.0017852783 -8.010864E-4 -0.0017852783 -0.0017776489l0.0017852783 -19.625313l0 0c0 -4.6764145 3.7909698 -8.4674 8.467392 -8.4674z" fill-rule="evenodd"/><path fill="#3b454e" d="m219.40002 111.93502l2.546875 0q0.625 0 1.1875 -0.15625q0.5625 -0.15625 1.015625 -0.453125q0.40625 -0.25 0.734375 -0.609375q0.328125 -0.375 0.578125 -0.8125q0.25 -0.484375 0.390625 -1.0625q0.15625 -0.59375 0.15625 -1.25l0 -0.78125q0 -0.6875 -0.15625 -1.28125q-0.15625 -0.609375 -0.4375 -1.109375q-0.234375 -0.40625 -0.5625 -0.75q-0.3125 -0.359375 -0.734375 -0.59375q-0.46875 -0.296875 -1.046875 -0.453125q-0.5625 -0.15625 -1.21875 -0.15625l-2.453125 0l0 9.46875zm1.84375 -7.984375l0.609375 0q0.328125 0 0.609375 0.078125q0.296875 0.0625 0.53125 0.203125q0.296875 0.1875 0.53125 0.46875q0.234375 0.28125 0.375 0.640625q0.109375 0.3125 0.171875 0.6875q0.0625 0.359375 0.0625 0.765625l0 0.796875q0 0.4375 -0.0625 0.8125q-0.0625 0.375 -0.171875 0.6875q-0.140625 0.34375 -0.34375 0.609375q-0.203125 0.265625 -0.453125 0.4375q-0.234375 0.15625 -0.53125 0.25q-0.28125 0.078125 -0.625 0.078125l-0.703125 0l0 -6.515625zm9.670059 8.109375q1.03125 0 1.78125 -0.390625q0.75 -0.390625 1.09375 -0.890625l-0.90625 -0.96875q-0.3125 0.40625 -0.8125 0.609375q-0.5 0.1875 -1.046875 0.1875q-0.375 0 -0.703125 -0.109375q-0.3125 -0.125 -0.546875 -0.328125q-0.25 -0.21875 -0.390625 -0.46875q-0.140625 -0.265625 -0.234375 -0.6875l0 -0.015625l4.78125 0l0 -0.765625q0 -0.78125 -0.21875 -1.421875q-0.21875 -0.640625 -0.625 -1.09375q-0.421875 -0.453125 -1.015625 -0.703125q-0.59375 -0.25 -1.359375 -0.25q-0.734375 0 -1.359375 0.265625q-0.625 0.265625 -1.078125 0.75q-0.453125 0.484375 -0.703125 1.15625q-0.25 0.65625 -0.25 1.46875l0 0.25q0 0.71875 0.25 1.34375q0.265625 0.609375 0.734375 1.078125q0.46875 0.453125 1.125 0.71875q0.671875 0.265625 1.484375 0.265625zm-0.203125 -5.828125q0.34375 0 0.59375 0.109375q0.265625 0.09375 0.453125 0.28125q0.1875 0.1875 0.28125 0.453125q0.109375 0.25 0.109375 0.53125l0 0.140625l-2.96875 0q0.0625 -0.34375 0.1875 -0.625q0.140625 -0.28125 0.34375 -0.484375q0.1875 -0.203125 0.4375 -0.296875q0.25 -0.109375 0.5625 -0.109375zm7.029434 5.703125l1.703125 0l2.671875 -7.046875l-1.890625 0l-1.546875 4.96875l-0.09375 0.5l-0.09375 -0.5l-1.546875 -4.96875l-1.890625 0l2.6875 7.046875zm6.248184 -7.046875l0 1.484375l2.0 0l0 4.09375l-2.0 0l0 1.46875l5.734375 0l0 -1.46875l-1.90625 0l0 -5.578125l-3.828125 0zm1.875 -1.796875q0 0.203125 0.0625 0.390625q0.078125 0.171875 0.21875 0.296875q0.140625 0.125 0.328125 0.203125q0.1875 0.078125 0.421875 0.078125q0.484375 0 0.765625 -0.265625q0.28125 -0.28125 0.28125 -0.703125q0 -0.421875 -0.28125 -0.6875q-0.28125 -0.28125 -0.765625 -0.28125q-0.234375 0 -0.421875 0.078125q-0.1875 0.0625 -0.328125 0.1875q-0.140625 0.140625 -0.21875 0.328125q-0.0625 0.171875 -0.0625 0.375zm8.748184 7.53125q-0.4375 0 -0.71875 -0.171875q-0.28125 -0.1875 -0.4375 -0.46875q-0.171875 -0.296875 -0.234375 -0.671875q-0.0625 -0.375 -0.0625 -0.796875l0 -0.1875q0 -0.40625 0.0625 -0.78125q0.0625 -0.375 0.234375 -0.671875q0.171875 -0.296875 0.4375 -0.46875q0.28125 -0.171875 0.71875 -0.171875q0.296875 0 0.53125 0.109375q0.25 0.09375 0.421875 0.25q0.1875 0.171875 0.265625 0.40625q0.09375 0.234375 0.09375 0.5l1.703125 0q0 -0.625 -0.21875 -1.125q-0.21875 -0.515625 -0.609375 -0.875q-0.40625 -0.34375 -0.96875 -0.53125q-0.546875 -0.203125 -1.203125 -0.203125q-0.8125 0 -1.421875 0.28125q-0.609375 0.28125 -1.03125 0.765625q-0.421875 0.46875 -0.625 1.125q-0.203125 0.640625 -0.203125 1.390625l0 0.1875q0 0.75 0.203125 1.40625q0.21875 0.640625 0.625 1.125q0.421875 0.46875 1.03125 0.75q0.625 0.28125 1.4375 0.28125q0.609375 0 1.15625 -0.1875q0.546875 -0.203125 0.953125 -0.53125q0.40625 -0.34375 0.640625 -0.8125q0.234375 -0.46875 0.234375 -1.015625l-1.703125 0q0 0.25 -0.109375 0.453125q-0.09375 0.203125 -0.265625 0.34375q-0.1875 0.140625 -0.4375 0.21875q-0.234375 0.078125 -0.5 0.078125zm8.295074 1.4375q1.03125 0 1.78125 -0.390625q0.75 -0.390625 1.09375 -0.890625l-0.90625 -0.96875q-0.3125 0.40625 -0.8125 0.609375q-0.5 0.1875 -1.046875 0.1875q-0.375 0 -0.703125 -0.109375q-0.3125 -0.125 -0.546875 -0.328125q-0.25 -0.21875 -0.390625 -0.46875q-0.140625 -0.265625 -0.234375 -0.6875l0 -0.015625l4.78125 0l0 -0.765625q0 -0.78125 -0.21875 -1.421875q-0.21875 -0.640625 -0.625 -1.09375q-0.421875 -0.453125 -1.015625 -0.703125q-0.59375 -0.25 -1.359375 -0.25q-0.734375 0 -1.359375 0.265625q-0.625 0.265625 -1.078125 0.75q-0.453125 0.484375 -0.703125 1.15625q-0.25 0.65625 -0.25 1.46875l0 0.25q0 0.71875 0.25 1.34375q0.265625 0.609375 0.734375 1.078125q0.46875 0.453125 1.125 0.71875q0.671875 0.265625 1.484375 0.265625zm-0.203125 -5.828125q0.34375 0 0.59375 0.109375q0.265625 0.09375 0.453125 0.28125q0.1875 0.1875 0.28125 0.453125q0.109375 0.25 0.109375 0.53125l0 0.140625l-2.96875 0q0.0625 -0.34375 0.1875 -0.625q0.140625 -0.28125 0.34375 -0.484375q0.1875 -0.203125 0.4375 -0.296875q0.25 -0.109375 0.5625 -0.109375zm19.043243 -3.765625l-1.828125 0l0 6.265625q0 0.46875 -0.09375 0.828125q-0.09375 0.34375 -0.28125 0.578125q-0.171875 0.234375 -0.4375 0.34375q-0.25 0.109375 -0.578125 0.109375q-0.296875 0 -0.53125 -0.109375q-0.234375 -0.109375 -0.40625 -0.3125q-0.171875 -0.234375 -0.265625 -0.59375q-0.078125 -0.359375 -0.09375 -0.84375l0 -6.265625l-1.828125 0l-0.015625 6.265625q0 0.796875 0.21875 1.421875q0.234375 0.625 0.640625 1.046875q0.421875 0.421875 0.984375 0.640625q0.578125 0.21875 1.296875 0.21875q0.765625 0 1.359375 -0.21875q0.59375 -0.21875 1.015625 -0.640625q0.40625 -0.4375 0.625 -1.046875q0.21875 -0.625 0.21875 -1.421875l0 -6.265625zm1.748169 9.46875l1.8125 0l0 -5.0q0.09375 -0.140625 0.203125 -0.25q0.109375 -0.125 0.25 -0.21875q0.15625 -0.109375 0.375 -0.171875q0.21875 -0.0625 0.484375 -0.0625q0.3125 0 0.5625 0.0625q0.25 0.0625 0.421875 0.21875q0.171875 0.15625 0.265625 0.4375q0.09375 0.265625 0.09375 0.671875l0 4.3125l1.8125 0l0 -4.328125q0 -0.78125 -0.1875 -1.3125q-0.171875 -0.53125 -0.484375 -0.875q-0.328125 -0.34375 -0.78125 -0.5q-0.4375 -0.15625 -0.96875 -0.15625q-0.421875 0 -0.796875 0.125q-0.359375 0.109375 -0.671875 0.328125q-0.1875 0.125 -0.34375 0.296875q-0.15625 0.15625 -0.296875 0.359375l-0.109375 -0.984375l-1.640625 0l0 7.046875zm7.8106995 -3.578125l0 0.140625q0 0.765625 0.1875 1.421875q0.1875 0.65625 0.546875 1.125q0.34375 0.484375 0.859375 0.75q0.515625 0.265625 1.15625 0.265625q0.59375 0 1.03125 -0.21875q0.453125 -0.234375 0.78125 -0.640625l0.09375 0.734375l1.640625 0l0 -10.0l-1.8125 0l0 3.59375q-0.328125 -0.375 -0.75 -0.5625q-0.421875 -0.203125 -0.96875 -0.203125q-0.65625 0 -1.171875 0.265625q-0.515625 0.25 -0.875 0.734375q-0.359375 0.46875 -0.546875 1.140625q-0.171875 0.65625 -0.171875 1.453125zm1.796875 0.140625l0 -0.140625q0 -0.4375 0.078125 -0.828125q0.078125 -0.390625 0.25 -0.671875q0.171875 -0.296875 0.4375 -0.453125q0.28125 -0.171875 0.65625 -0.171875q0.46875 0 0.765625 0.203125q0.3125 0.203125 0.5 0.546875l0 2.859375q-0.1875 0.34375 -0.5 0.546875q-0.3125 0.203125 -0.78125 0.203125q-0.375 0 -0.640625 -0.15625q-0.265625 -0.171875 -0.4375 -0.453125q-0.171875 -0.28125 -0.25 -0.65625q-0.078125 -0.390625 -0.078125 -0.828125zm9.795044 3.5625q1.03125 0 1.78125 -0.390625q0.75 -0.390625 1.09375 -0.890625l-0.90625 -0.96875q-0.3125 0.40625 -0.8125 0.609375q-0.5 0.1875 -1.046875 0.1875q-0.375 0 -0.703125 -0.109375q-0.3125 -0.125 -0.546875 -0.328125q-0.25 -0.21875 -0.390625 -0.46875q-0.140625 -0.265625 -0.234375 -0.6875l0 -0.015625l4.78125 0l0 -0.765625q0 -0.78125 -0.21875 -1.421875q-0.21875 -0.640625 -0.625 -1.09375q-0.421875 -0.453125 -1.015625 -0.703125q-0.59375 -0.25 -1.359375 -0.25q-0.734375 0 -1.359375 0.265625q-0.625 0.265625 -1.078125 0.75q-0.453125 0.484375 -0.703125 1.15625q-0.25 0.65625 -0.25 1.46875l0 0.25q0 0.71875 0.25 1.34375q0.265625 0.609375 0.734375 1.078125q0.46875 0.453125 1.125 0.71875q0.671875 0.265625 1.484375 0.265625zm-0.203125 -5.828125q0.34375 0 0.59375 0.109375q0.265625 0.09375 0.453125 0.28125q0.1875 0.1875 0.28125 0.453125q0.109375 0.25 0.109375 0.53125l0 0.140625l-2.96875 0q0.0625 -0.34375 0.1875 -0.625q0.140625 -0.28125 0.34375 -0.484375q0.1875 -0.203125 0.4375 -0.296875q0.25 -0.109375 0.5625 -0.109375zm9.841919 -1.46875q-0.703125 0 -1.3125 0.34375q-0.59375 0.34375 -1.0155945 0.9375l-0.015625 -0.15625l-0.078125 -1.0l-1.671875 0l0 7.046875l1.796875 0l0 -4.234375q0.125 -0.296875 0.31246948 -0.515625q0.1875 -0.21875 0.453125 -0.359375q0.234375 -0.125 0.515625 -0.1875q0.28125 -0.0625 0.625 -0.0625q0.34375 0 0.71875 0.046875q0.375 0.03125 0.734375 0.125l0.265625 -1.8125q-0.21875 -0.0625 -0.5625 -0.109375q-0.34375 -0.0625 -0.765625 -0.0625zm17.840118 -0.8125l0 -1.484375l-7.640625 0l0 1.484375l2.890625 0l0 7.984375l1.828125 0l0 -7.984375l2.921875 0zm4.5138245 8.109375q1.03125 0 1.78125 -0.390625q0.75 -0.390625 1.09375 -0.890625l-0.90625 -0.96875q-0.3125 0.40625 -0.8125 0.609375q-0.5 0.1875 -1.046875 0.1875q-0.375 0 -0.703125 -0.109375q-0.3125 -0.125 -0.546875 -0.328125q-0.25 -0.21875 -0.390625 -0.46875q-0.140625 -0.265625 -0.234375 -0.6875l0 -0.015625l4.78125 0l0 -0.765625q0 -0.78125 -0.21875 -1.421875q-0.21875 -0.640625 -0.625 -1.09375q-0.421875 -0.453125 -1.015625 -0.703125q-0.59375 -0.25 -1.359375 -0.25q-0.734375 0 -1.359375 0.265625q-0.625 0.265625 -1.078125 0.75q-0.453125 0.484375 -0.703125 1.15625q-0.25 0.65625 -0.25 1.46875l0 0.25q0 0.71875 0.25 1.34375q0.265625 0.609375 0.734375 1.078125q0.46875 0.453125 1.125 0.71875q0.671875 0.265625 1.484375 0.265625zm-0.203125 -5.828125q0.34375 0 0.59375 0.109375q0.265625 0.09375 0.453125 0.28125q0.1875 0.1875 0.28125 0.453125q0.109375 0.25 0.109375 0.53125l0 0.140625l-2.96875 0q0.0625 -0.34375 0.1875 -0.625q0.140625 -0.28125 0.34375 -0.484375q0.1875 -0.203125 0.4375 -0.296875q0.25 -0.109375 0.5625 -0.109375zm9.326294 3.765625q0 0.171875 -0.078125 0.3125q-0.078125 0.125 -0.234375 0.234375q-0.171875 0.109375 -0.4375 0.171875q-0.265625 0.046875 -0.609375 0.046875q-0.296875 0 -0.578125 -0.046875q-0.28125 -0.0625 -0.484375 -0.1875q-0.21875 -0.125 -0.359375 -0.328125q-0.140625 -0.21875 -0.15625 -0.5l-1.71875 0q0 0.4375 0.203125 0.859375q0.21875 0.421875 0.625 0.75q0.40625 0.34375 1.015625 0.5625q0.609375 0.203125 1.40625 0.203125q0.71875 0 1.296875 -0.15625q0.59375 -0.171875 1.015625 -0.453125q0.40625 -0.28125 0.625 -0.671875q0.234375 -0.40625 0.234375 -0.875q0 -0.5 -0.234375 -0.859375q-0.21875 -0.375 -0.609375 -0.640625q-0.40625 -0.25 -0.953125 -0.40625q-0.546875 -0.171875 -1.171875 -0.28125q-0.453125 -0.0625 -0.734375 -0.140625q-0.28125 -0.09375 -0.453125 -0.203125q-0.171875 -0.109375 -0.234375 -0.234375q-0.0625 -0.140625 -0.0625 -0.296875q0 -0.15625 0.078125 -0.296875q0.078125 -0.140625 0.21875 -0.234375q0.15625 -0.125 0.390625 -0.1875q0.25 -0.0625 0.59375 -0.0625q0.390625 0 0.65625 0.09375q0.28125 0.09375 0.4375 0.265625q0.125 0.125 0.171875 0.28125q0.0625 0.140625 0.0625 0.3125l1.8125 0q0 -0.484375 -0.21875 -0.890625q-0.203125 -0.421875 -0.609375 -0.734375q-0.40625 -0.296875 -1.0 -0.46875q-0.578125 -0.171875 -1.3125 -0.171875q-0.703125 0 -1.265625 0.1875q-0.5625 0.171875 -0.953125 0.46875q-0.390625 0.296875 -0.609375 0.703125q-0.203125 0.390625 -0.203125 0.828125q0 0.4375 0.203125 0.78125q0.21875 0.34375 0.578125 0.609375q0.359375 0.265625 0.875 0.453125q0.515625 0.1875 1.125 0.3125q0.484375 0.09375 0.796875 0.1875q0.328125 0.078125 0.53125 0.1875q0.1875 0.109375 0.25 0.234375q0.078125 0.125 0.078125 0.28125zm6.7794495 -6.828125l-1.8125 0l0 1.71875l-1.609375 0l0 1.34375l1.609375 0l0 3.203125q0 0.6875 0.1875 1.1875q0.1875 0.5 0.515625 0.8125q0.34375 0.328125 0.8125 0.484375q0.46875 0.15625 1.046875 0.15625q0.296875 0 0.609375 -0.03125q0.3125 -0.03125 0.59375 -0.078125q0.28125 -0.0625 0.53125 -0.140625q0.265625 -0.078125 0.453125 -0.1875l-0.171875 -1.25q-0.125 0.03125 -0.296875 0.078125q-0.171875 0.03125 -0.375 0.046875q-0.203125 0.03125 -0.421875 0.0625q-0.21875 0.015625 -0.421875 0.015625q-0.28125 0 -0.515625 -0.0625q-0.234375 -0.078125 -0.390625 -0.234375q-0.171875 -0.140625 -0.265625 -0.390625q-0.078125 -0.265625 -0.078125 -0.65625l0 -3.015625l2.625 0l0 -1.34375l-2.625 0l0 -1.71875z" fill-rule="nonzero"/><path fill="#2c9693" d="m13.637657 142.01416l0 0c0 -3.2200623 2.6103764 -5.830429 5.8304405 -5.830429l61.126522 0c1.5463257 0 3.0293198 0.6142731 4.1227417 1.7076874c1.0934219 1.0934296 1.707695 2.576416 1.707695 4.1227417l0 32.339127c0 3.2200623 -2.6103745 5.8304443 -5.8304367 5.8304443l-61.126522 0c-3.2200642 0 -5.8304405 -2.610382 -5.8304405 -5.8304443z" fill-rule="evenodd"/><path fill="#ffffff" d="m40.48721 159.18684l1.859375 0q0.640625 -0.015625 1.203125 -0.203125q0.578125 -0.1875 1.0 -0.546875q0.4375 -0.359375 0.6875 -0.875q0.25 -0.53125 0.25 -1.203125q0 -0.6875 -0.25 -1.21875q-0.25 -0.53125 -0.6875 -0.890625q-0.421875 -0.34375 -1.0 -0.53125q-0.5625 -0.203125 -1.203125 -0.203125l-3.0625 0l0 9.46875l1.203125 0l0 -3.796875zm0 -1.0l0 -3.6875l1.859375 0q0.421875 0 0.765625 0.140625q0.359375 0.125 0.625 0.359375q0.25 0.25 0.390625 0.59375q0.15625 0.34375 0.15625 0.765625q0 0.4375 -0.15625 0.78125q-0.140625 0.328125 -0.40625 0.5625q-0.25 0.234375 -0.609375 0.359375q-0.34375 0.125 -0.765625 0.125l-1.859375 0zm13.060684 -3.65625l0 -1.015625l-7.015625 0l0 1.015625l2.921875 0l0 8.453125l1.171875 0l0 -8.453125l2.921875 0zm6.576309 6.0625q0 0.390625 -0.171875 0.671875q-0.171875 0.28125 -0.4375 0.46875q-0.265625 0.1875 -0.609375 0.28125q-0.34375 0.078125 -0.6875 0.078125q-0.453125 0 -0.828125 -0.109375q-0.359375 -0.125 -0.65625 -0.375q-0.28125 -0.234375 -0.46875 -0.578125q-0.171875 -0.34375 -0.234375 -0.78125l-1.234375 0q0.015625 0.609375 0.265625 1.109375q0.25 0.5 0.6875 0.875q0.484375 0.421875 1.125 0.65625q0.65625 0.21875 1.34375 0.21875q0.5625 0 1.125 -0.15625q0.578125 -0.15625 1.015625 -0.46875q0.453125 -0.3125 0.734375 -0.78125q0.28125 -0.484375 0.28125 -1.125q0 -0.640625 -0.265625 -1.109375q-0.265625 -0.484375 -0.6875 -0.8125q-0.4375 -0.359375 -0.96875 -0.59375q-0.515625 -0.234375 -1.046875 -0.390625q-0.328125 -0.109375 -0.6875 -0.234375q-0.359375 -0.125 -0.65625 -0.328125q-0.3125 -0.1875 -0.515625 -0.46875q-0.203125 -0.28125 -0.21875 -0.703125q0 -0.375 0.15625 -0.65625q0.15625 -0.28125 0.421875 -0.484375q0.25 -0.1875 0.578125 -0.28125q0.328125 -0.109375 0.671875 -0.109375q0.4375 0 0.765625 0.140625q0.34375 0.125 0.59375 0.375q0.25 0.234375 0.390625 0.578125q0.15625 0.328125 0.203125 0.734375l1.25 0q-0.015625 -0.65625 -0.28125 -1.171875q-0.265625 -0.53125 -0.71875 -0.90625q-0.4375 -0.375 -1.015625 -0.578125q-0.5625 -0.203125 -1.1875 -0.203125q-0.5625 0 -1.125 0.171875q-0.546875 0.171875 -0.96875 0.515625q-0.4375 0.328125 -0.71875 0.8125q-0.265625 0.46875 -0.265625 1.09375q0 0.609375 0.265625 1.0625q0.28125 0.453125 0.703125 0.78125q0.421875 0.328125 0.9375 0.5625q0.515625 0.21875 1.015625 0.390625q0.359375 0.109375 0.71875 0.25q0.375 0.125 0.6875 0.328125q0.3125 0.21875 0.515625 0.515625q0.203125 0.296875 0.203125 0.734375z" fill-rule="nonzero"/><path fill="#9471f5" d="m198.54068 140.79842l0 0c0 -2.5481567 2.065689 -4.613846 4.613846 -4.613846l63.559708 0c1.2236633 0 2.3972168 0.48609924 3.2624817 1.3513641c0.8652649 0.8652649 1.3513794 2.0388184 1.3513794 3.2624817l0 34.772324c0 2.5481415 -2.0657043 4.6138306 -4.613861 4.6138306l-63.559708 0l0 0c-2.5481567 0 -4.613846 -2.065689 -4.613846 -4.6138306z" fill-rule="evenodd"/><path fill="#ffffff" d="m224.0621 153.51582l0 1.046875l2.21875 0l0 7.375l-2.21875 0l0 1.046875l5.734375 0l0 -1.046875l-2.265625 0l0 -7.375l2.265625 0l0 -1.046875l-5.734375 0zm13.951309 0l-1.15625 0l-0.03125 6.40625q0 0.421875 -0.125 0.8125q-0.125 0.390625 -0.359375 0.6875q-0.25 0.3125 -0.609375 0.5q-0.34375 0.171875 -0.796875 0.171875q-0.46875 0 -0.828125 -0.171875q-0.34375 -0.1875 -0.578125 -0.5q-0.25 -0.296875 -0.375 -0.6875q-0.125 -0.390625 -0.125 -0.8125l-0.03125 -6.40625l-1.140625 0l-0.015625 6.40625q0 0.671875 0.21875 1.25q0.234375 0.578125 0.640625 1.015625q0.40625 0.4375 0.96875 0.6875q0.578125 0.234375 1.265625 0.234375q0.671875 0 1.234375 -0.25q0.578125 -0.25 0.984375 -0.6875q0.40625 -0.421875 0.640625 -1.0q0.234375 -0.578125 0.234375 -1.25l-0.015625 -6.40625zm8.435684 1.015625l0 -1.015625l-7.015625 0l0 1.015625l2.921875 0l0 8.453125l1.171875 0l0 -8.453125l2.921875 0z" fill-rule="nonzero"/><path fill="#4285f4" d="m300.07074 142.01416l0 0c0 -3.2200623 2.6103516 -5.830429 5.830414 -5.830429l61.126526 0c1.5463257 0 3.0293274 0.6142731 4.1227417 1.7076874c1.0934448 1.0934296 1.7077026 2.576416 1.7077026 4.1227417l0 32.339127c0 3.2200623 -2.610382 5.8304443 -5.8304443 5.8304443l-61.126526 0c-3.2200623 0 -5.830414 -2.610382 -5.830414 -5.8304443z" fill-rule="evenodd"/><path fill="#ffffff" d="m335.54437 153.51497l-1.15625 0l-0.03125 6.40625q0 0.421875 -0.125 0.8125q-0.125 0.390625 -0.359375 0.6875q-0.25 0.3125 -0.609375 0.5q-0.34375 0.171875 -0.796875 0.171875q-0.46875 0 -0.828125 -0.171875q-0.34375 -0.1875 -0.578125 -0.5q-0.25 -0.296875 -0.375 -0.6875q-0.125 -0.390625 -0.125 -0.8125l-0.03125 -6.40625l-1.140625 0l-0.015625 6.40625q0 0.671875 0.21875 1.25q0.234375 0.578125 0.640625 1.015625q0.40625 0.4375 0.96875 0.6875q0.578125 0.234375 1.265625 0.234375q0.671875 0 1.234375 -0.25q0.578125 -0.25 0.984375 -0.6875q0.40625 -0.421875 0.640625 -1.0q0.234375 -0.578125 0.234375 -1.25l-0.015625 -6.40625zm2.045044 0l0 1.046875l2.21875 0l0 7.375l-2.21875 0l0 1.046875l5.734375 0l0 -1.046875l-2.265625 0l0 -7.375l2.265625 0l0 -1.046875l-5.734375 0z" fill-rule="nonzero"/><path fill="#000000" fill-opacity="0.0" d="m271.3281 158.18457l28.75589 0" fill-rule="evenodd"/><path stroke="#8190a8" stroke-width="1.0" stroke-linejoin="round" stroke-linecap="butt" d="m277.3281 158.18457l16.75589 0" fill-rule="evenodd"/><path fill="#8190a8" stroke="#8190a8" stroke-width="1.0" stroke-linecap="butt" d="m277.3281 156.53284l-4.5381165 1.6517334l4.5381165 1.6517334z" fill-rule="evenodd"/><path fill="#8190a8" stroke="#8190a8" stroke-width="1.0" stroke-linecap="butt" d="m294.08398 159.8363l4.5381165 -1.6517334l-4.5381165 -1.6517334z" fill-rule="evenodd"/><path fill="#8190a8" d="m82.11415 27.39516l0 0c0 -4.050171 3.28331 -7.333481 7.333481 -7.333481l89.67949 0c1.9449615 0 3.8102722 0.7726326 5.185562 2.1479263c1.3752899 1.3752937 2.1479187 3.240593 2.1479187 5.1855545l0 29.333038c0 4.050171 -3.28331 7.333477 -7.333481 7.333477l-89.67949 0c-4.050171 0 -7.333481 -3.2833061 -7.333481 -7.333477z" fill-rule="evenodd"/><path fill="#ffffff" d="m121.37004 38.86168l0 -9.46875l-1.140625 0l0 4.0625l-3.890625 0l0 -4.0625l-1.125 0l0 9.46875l1.125 0l0 -4.375l3.890625 0l0 4.375l1.140625 0zm6.685684 0l1.09375 0l0 -7.046875l-1.203125 0l0 5.0625q-0.09375 0.21875 -0.25 0.421875q-0.140625 0.1875 -0.34375 0.3125q-0.234375 0.171875 -0.546875 0.265625q-0.3125 0.09375 -0.71875 0.09375q-0.34375 0 -0.609375 -0.078125q-0.265625 -0.09375 -0.453125 -0.328125q-0.171875 -0.21875 -0.265625 -0.59375q-0.09375 -0.375 -0.09375 -0.953125l0 -4.203125l-1.203125 0l0 4.1875q0 0.796875 0.171875 1.359375q0.171875 0.5625 0.484375 0.921875q0.328125 0.359375 0.765625 0.53125q0.453125 0.171875 1.015625 0.171875q0.6875 0 1.203125 -0.28125q0.53125 -0.296875 0.890625 -0.8125l0.0625 0.96875zm3.9200592 -7.046875l-1.078125 0l0 7.046875l1.140625 0l0 -5.609375q0.046875 -0.09375 0.09375 -0.1875q0.0625 -0.09375 0.15625 -0.171875q0.109375 -0.078125 0.265625 -0.125q0.15625 -0.0625 0.375 -0.0625q0.203125 0 0.34375 0.0625q0.140625 0.046875 0.25 0.140625q0.09375 0.109375 0.140625 0.28125q0.046875 0.171875 0.046875 0.390625l0 5.28125l1.15625 0l0 -5.265625q0 -0.046875 0 -0.078125q0 -0.03125 0 -0.0625q0.015625 -0.15625 0.078125 -0.28125q0.0625 -0.140625 0.15625 -0.25q0.109375 -0.09375 0.265625 -0.15625q0.15625 -0.0625 0.375 -0.0625q0.203125 0 0.34375 0.0625q0.15625 0.046875 0.265625 0.15625q0.09375 0.109375 0.140625 0.28125q0.0625 0.15625 0.0625 0.390625l0 5.265625l1.140625 0l0 -5.265625q0 -0.5 -0.125 -0.875q-0.109375 -0.375 -0.328125 -0.609375q-0.203125 -0.203125 -0.5 -0.3125q-0.296875 -0.109375 -0.65625 -0.109375q-0.265625 0 -0.5 0.078125q-0.21875 0.0625 -0.390625 0.171875q-0.15625 0.09375 -0.28125 0.234375q-0.109375 0.125 -0.203125 0.265625q-0.078125 -0.15625 -0.1875 -0.28125q-0.09375 -0.140625 -0.21875 -0.234375q-0.15625 -0.109375 -0.390625 -0.171875q-0.21875 -0.0625 -0.5 -0.0625q-0.5 0 -0.84375 0.21875q-0.34375 0.203125 -0.5625 0.578125l-0.03125 -0.671875zm12.076309 7.046875l1.25 0l0 -0.109375q-0.125 -0.28125 -0.1875 -0.671875q-0.0625 -0.40625 -0.0625 -0.75l0 -3.28125q0 -0.59375 -0.21875 -1.03125q-0.203125 -0.4375 -0.578125 -0.75q-0.375 -0.28125 -0.890625 -0.421875q-0.515625 -0.15625 -1.109375 -0.15625q-0.65625 0 -1.1875 0.1875q-0.515625 0.171875 -0.875 0.46875q-0.359375 0.296875 -0.546875 0.671875q-0.1875 0.375 -0.203125 0.75l1.21875 0q0 -0.21875 0.09375 -0.421875q0.109375 -0.203125 0.3125 -0.359375q0.1875 -0.140625 0.46875 -0.234375q0.296875 -0.09375 0.640625 -0.09375q0.390625 0 0.703125 0.109375q0.3125 0.09375 0.515625 0.265625q0.21875 0.171875 0.328125 0.4375q0.125 0.25 0.125 0.5625l0 0.5625l-1.3125 0q-0.734375 0 -1.328125 0.140625q-0.59375 0.140625 -1.015625 0.421875q-0.421875 0.296875 -0.65625 0.734375q-0.234375 0.4375 -0.234375 1.015625q0 0.4375 0.171875 0.828125q0.171875 0.375 0.484375 0.65625q0.3125 0.28125 0.765625 0.4375q0.453125 0.15625 1.015625 0.15625q0.34375 0 0.640625 -0.078125q0.3125 -0.0625 0.59375 -0.1875q0.265625 -0.125 0.484375 -0.28125q0.234375 -0.15625 0.40625 -0.34375q0.03125 0.21875 0.0625 0.421875q0.046875 0.203125 0.125 0.34375zm-2.140625 -0.921875q-0.34375 0 -0.609375 -0.078125q-0.265625 -0.09375 -0.4375 -0.265625q-0.1875 -0.15625 -0.28125 -0.375q-0.078125 -0.21875 -0.078125 -0.484375q0 -0.265625 0.09375 -0.484375q0.109375 -0.21875 0.296875 -0.375q0.28125 -0.21875 0.734375 -0.328125q0.46875 -0.109375 1.09375 -0.109375l1.125 0l0 1.4375q-0.109375 0.203125 -0.296875 0.390625q-0.171875 0.1875 -0.421875 0.34375q-0.25 0.15625 -0.5625 0.25q-0.296875 0.078125 -0.65625 0.078125zm5.498184 0.921875l1.21875 0l0 -5.046875q0.109375 -0.234375 0.28125 -0.421875q0.171875 -0.1875 0.359375 -0.328125q0.25 -0.171875 0.53125 -0.265625q0.28125 -0.09375 0.609375 -0.09375q0.390625 0 0.6875 0.09375q0.296875 0.09375 0.5 0.296875q0.203125 0.203125 0.3125 0.53125q0.109375 0.328125 0.109375 0.796875l0 4.4375l1.203125 0l0 -4.46875q0 -0.703125 -0.171875 -1.21875q-0.171875 -0.515625 -0.5 -0.84375q-0.3125 -0.328125 -0.765625 -0.484375q-0.453125 -0.15625 -1.015625 -0.15625q-0.40625 0 -0.78125 0.125q-0.359375 0.109375 -0.671875 0.3125q-0.203125 0.140625 -0.390625 0.328125q-0.1875 0.1875 -0.34375 0.40625l-0.078125 -1.046875l-1.09375 0l0 7.046875z" fill-rule="nonzero"/><path fill="#ffffff" d="m109.591515 50.67418l0 -1.078125q-0.015625 -0.515625 -0.09375 -1.03125q-0.078125 -0.515625 -0.25 -1.0q-0.171875 -0.484375 -0.4375 -0.90625q-0.265625 -0.421875 -0.625 -0.734375q-0.359375 -0.3125 -0.84375 -0.484375q-0.46875 -0.1875 -1.0625 -0.1875q-0.578125 0 -1.0625 0.1875q-0.46875 0.171875 -0.828125 0.484375q-0.359375 0.328125 -0.625 0.75q-0.265625 0.40625 -0.4375 0.890625q-0.171875 0.484375 -0.25 1.0q-0.078125 0.515625 -0.09375 1.03125l0 1.078125q0.015625 0.5 0.09375 1.015625q0.078125 0.515625 0.265625 1.0q0.15625 0.484375 0.421875 0.90625q0.28125 0.40625 0.640625 0.71875q0.359375 0.3125 0.828125 0.5q0.484375 0.171875 1.0625 0.171875q0.59375 0 1.0625 -0.171875q0.46875 -0.1875 0.828125 -0.5q0.375 -0.3125 0.625 -0.71875q0.265625 -0.421875 0.4375 -0.90625q0.171875 -0.484375 0.25 -1.0q0.078125 -0.515625 0.09375 -1.015625zm-1.1875 -1.09375l0 1.09375q-0.015625 0.328125 -0.046875 0.703125q-0.03125 0.375 -0.125 0.734375q-0.09375 0.359375 -0.25 0.6875q-0.15625 0.328125 -0.390625 0.578125q-0.234375 0.25 -0.5625 0.40625q-0.3125 0.140625 -0.734375 0.140625q-0.421875 0 -0.75 -0.140625q-0.3125 -0.15625 -0.546875 -0.40625q-0.234375 -0.25 -0.390625 -0.578125q-0.15625 -0.328125 -0.25 -0.703125q-0.09375 -0.359375 -0.140625 -0.71875q-0.046875 -0.375 -0.046875 -0.703125l0 -1.09375q0 -0.328125 0.046875 -0.703125q0.046875 -0.375 0.140625 -0.734375q0.09375 -0.359375 0.25 -0.6875q0.15625 -0.328125 0.390625 -0.578125q0.234375 -0.25 0.546875 -0.390625q0.328125 -0.15625 0.734375 -0.15625q0.421875 0 0.734375 0.15625q0.328125 0.140625 0.5625 0.390625q0.234375 0.25 0.390625 0.578125q0.15625 0.328125 0.25 0.6875q0.09375 0.359375 0.125 0.734375q0.046875 0.359375 0.0625 0.703125zm3.0138092 7.984375l1.203125 0l0 -3.375q0.125 0.140625 0.28125 0.265625q0.15625 0.109375 0.3125 0.21875q0.28125 0.15625 0.625 0.234375q0.359375 0.078125 0.765625 0.078125q0.65625 0 1.171875 -0.265625q0.515625 -0.28125 0.875 -0.75q0.34375 -0.484375 0.53125 -1.140625q0.1875 -0.65625 0.1875 -1.40625l0 -0.140625q0 -0.78125 -0.1875 -1.4375q-0.1875 -0.671875 -0.53125 -1.140625q-0.359375 -0.484375 -0.875 -0.75q-0.515625 -0.265625 -1.203125 -0.265625q-0.375 0 -0.71875 0.078125q-0.328125 0.078125 -0.59375 0.234375q-0.203125 0.109375 -0.375 0.265625q-0.171875 0.140625 -0.3125 0.3125l-0.0625 -0.765625l-1.09375 0l0 9.75zm4.75 -6.28125l0 0.140625q0 0.515625 -0.125 0.984375q-0.109375 0.46875 -0.34375 0.8125q-0.234375 0.359375 -0.609375 0.578125q-0.359375 0.203125 -0.859375 0.203125q-0.3125 0 -0.5625 -0.078125q-0.25 -0.078125 -0.46875 -0.203125q-0.171875 -0.125 -0.328125 -0.28125q-0.140625 -0.171875 -0.25 -0.375l0 -3.390625q0.125 -0.21875 0.28125 -0.390625q0.171875 -0.1875 0.375 -0.3125q0.1875 -0.125 0.421875 -0.1875q0.25 -0.078125 0.53125 -0.078125q0.5 0 0.859375 0.21875q0.375 0.203125 0.609375 0.5625q0.234375 0.34375 0.34375 0.8125q0.125 0.46875 0.125 0.984375zm6.373184 3.703125q1.015625 0 1.71875 -0.40625q0.703125 -0.421875 1.046875 -0.953125l-0.734375 -0.5625q-0.328125 0.421875 -0.828125 0.6875q-0.5 0.25 -1.140625 0.25q-0.5 0 -0.90625 -0.171875q-0.390625 -0.1875 -0.671875 -0.5q-0.28125 -0.296875 -0.453125 -0.6875q-0.15625 -0.390625 -0.203125 -0.90625l0 -0.046875l5.03125 0l0 -0.546875q0 -0.734375 -0.1875 -1.359375q-0.1875 -0.640625 -0.5625 -1.109375q-0.375 -0.453125 -0.953125 -0.71875q-0.5625 -0.265625 -1.3125 -0.265625q-0.609375 0 -1.1875 0.25q-0.578125 0.25 -1.03125 0.703125q-0.453125 0.46875 -0.734375 1.140625q-0.265625 0.671875 -0.265625 1.53125l0 0.265625q0 0.75 0.25 1.375q0.25 0.625 0.6875 1.078125q0.453125 0.453125 1.0625 0.703125q0.625 0.25 1.375 0.25zm-0.15625 -6.3125q0.453125 0 0.78125 0.171875q0.34375 0.171875 0.5625 0.4375q0.21875 0.28125 0.34375 0.65625q0.125 0.375 0.125 0.703125l0 0.046875l-3.78125 0q0.0625 -0.484375 0.234375 -0.859375q0.1875 -0.375 0.453125 -0.625q0.265625 -0.265625 0.578125 -0.390625q0.328125 -0.140625 0.703125 -0.140625zm9.654442 -0.984375q-0.765625 0 -1.375 0.34375q-0.59375 0.328125 -1.03125 0.90625l0 -0.171875l-0.0625 -0.953125l-1.140625 0l0 7.046875l1.203125 0l0 -4.515625q0.125 -0.328125 0.296875 -0.59375q0.1875 -0.265625 0.421875 -0.4375q0.265625 -0.21875 0.625 -0.3125q0.359375 -0.109375 0.8125 -0.109375q0.34375 0 0.65625 0.03125q0.3125 0.03125 0.65625 0.109375l0.171875 -1.171875q-0.1875 -0.078125 -0.546875 -0.125q-0.359375 -0.046875 -0.6875 -0.046875zm8.013809 7.171875l1.25 0l0 -0.109375q-0.125 -0.28125 -0.1875 -0.671875q-0.0625 -0.40625 -0.0625 -0.75l0 -3.28125q0 -0.59375 -0.21875 -1.03125q-0.203125 -0.4375 -0.578125 -0.75q-0.375 -0.28125 -0.890625 -0.421875q-0.515625 -0.15625 -1.109375 -0.15625q-0.65625 0 -1.1875 0.1875q-0.515625 0.171875 -0.875 0.46875q-0.359375 0.296875 -0.546875 0.671875q-0.1875 0.375 -0.203125 0.75l1.21875 0q0 -0.21875 0.09375 -0.421875q0.109375 -0.203125 0.3125 -0.359375q0.1875 -0.140625 0.46875 -0.234375q0.296875 -0.09375 0.640625 -0.09375q0.390625 0 0.703125 0.109375q0.3125 0.09375 0.515625 0.265625q0.21875 0.171875 0.328125 0.4375q0.125 0.25 0.125 0.5625l0 0.5625l-1.3125 0q-0.734375 0 -1.328125 0.140625q-0.59375 0.140625 -1.015625 0.421875q-0.421875 0.296875 -0.65625 0.734375q-0.234375 0.4375 -0.234375 1.015625q0 0.4375 0.171875 0.828125q0.171875 0.375 0.484375 0.65625q0.3125 0.28125 0.765625 0.4375q0.453125 0.15625 1.015625 0.15625q0.34375 0 0.640625 -0.078125q0.3125 -0.0625 0.59375 -0.1875q0.265625 -0.125 0.484375 -0.28125q0.234375 -0.15625 0.40625 -0.34375q0.03125 0.21875 0.0625 0.421875q0.046875 0.203125 0.125 0.34375zm-2.140625 -0.921875q-0.34375 0 -0.609375 -0.078125q-0.265625 -0.09375 -0.4375 -0.265625q-0.1875 -0.15625 -0.28125 -0.375q-0.078125 -0.21875 -0.078125 -0.484375q0 -0.265625 0.09375 -0.484375q0.109375 -0.21875 0.296875 -0.375q0.28125 -0.21875 0.734375 -0.328125q0.46875 -0.109375 1.09375 -0.109375l1.125 0l0 1.4375q-0.109375 0.203125 -0.296875 0.390625q-0.171875 0.1875 -0.421875 0.34375q-0.25 0.15625 -0.5625 0.25q-0.296875 0.078125 -0.65625 0.078125zm8.357559 -7.828125l-1.21875 0l0 1.703125l-1.84375 0l0 0.9375l1.84375 0l0 3.828125q0 0.640625 0.171875 1.109375q0.1875 0.453125 0.484375 0.75q0.296875 0.28125 0.703125 0.421875q0.40625 0.125 0.875 0.125q0.28125 0 0.5625 -0.03125q0.28125 -0.015625 0.53125 -0.0625q0.265625 -0.046875 0.46875 -0.109375q0.21875 -0.078125 0.375 -0.171875l-0.171875 -0.84375q-0.109375 0.015625 -0.28125 0.0625q-0.171875 0.03125 -0.375 0.0625q-0.203125 0.03125 -0.40625 0.0625q-0.203125 0.015625 -0.40625 0.015625q-0.265625 0 -0.5 -0.0625q-0.234375 -0.0625 -0.421875 -0.234375q-0.1875 -0.15625 -0.296875 -0.421875q-0.09375 -0.265625 -0.09375 -0.671875l0 -3.828125l2.6875 0l0 -0.9375l-2.6875 0l0 -1.703125zm4.810684 5.171875l0 0.140625q0 0.75 0.21875 1.40625q0.21875 0.65625 0.640625 1.140625q0.40625 0.46875 1.0 0.75q0.59375 0.265625 1.34375 0.265625q0.75 0 1.328125 -0.265625q0.59375 -0.28125 1.015625 -0.75q0.40625 -0.484375 0.625 -1.140625q0.234375 -0.65625 0.234375 -1.40625l0 -0.140625q0 -0.765625 -0.234375 -1.421875q-0.21875 -0.65625 -0.625 -1.140625q-0.421875 -0.484375 -1.015625 -0.75q-0.59375 -0.28125 -1.34375 -0.28125q-0.734375 0 -1.328125 0.28125q-0.59375 0.265625 -1.0 0.75q-0.421875 0.484375 -0.640625 1.140625q-0.21875 0.65625 -0.21875 1.421875zm1.203125 0.140625l0 -0.140625q0 -0.515625 0.125 -0.984375q0.125 -0.484375 0.375 -0.84375q0.25 -0.359375 0.609375 -0.5625q0.375 -0.21875 0.875 -0.21875q0.5 0 0.875 0.21875q0.375 0.203125 0.640625 0.5625q0.234375 0.359375 0.359375 0.84375q0.140625 0.46875 0.140625 0.984375l0 0.140625q0 0.515625 -0.125 0.984375q-0.125 0.46875 -0.375 0.828125q-0.25 0.359375 -0.625 0.578125q-0.375 0.203125 -0.875 0.203125q-0.5 0 -0.875 -0.203125q-0.375 -0.21875 -0.625 -0.578125q-0.25 -0.359375 -0.375 -0.828125q-0.125 -0.46875 -0.125 -0.984375zm11.748184 -3.734375q-0.765625 0 -1.375 0.34375q-0.59375 0.328125 -1.03125 0.90625l0 -0.171875l-0.0625 -0.953125l-1.140625 0l0 7.046875l1.203125 0l0 -4.515625q0.125 -0.328125 0.296875 -0.59375q0.1875 -0.265625 0.421875 -0.4375q0.265625 -0.21875 0.625 -0.3125q0.359375 -0.109375 0.8125 -0.109375q0.34375 0 0.65625 0.03125q0.3125 0.03125 0.65625 0.109375l0.171875 -1.171875q-0.1875 -0.078125 -0.546875 -0.125q-0.359375 -0.046875 -0.6875 -0.046875z" fill-rule="nonzero"/><path fill="#000000" fill-opacity="0.0" d="m86.42506 158.18373l112.125984 0" fill-rule="evenodd"/><path stroke="#8190a8" stroke-width="1.0" stroke-linejoin="round" stroke-linecap="butt" stroke-dasharray="1.0,3.0" d="m92.425064 158.18373l100.12598 0" fill-rule="evenodd"/><path fill="#8190a8" stroke="#8190a8" stroke-width="1.0" stroke-linecap="butt" d="m92.425064 156.532l-4.538101 1.6517334l4.538101 1.6517334z" fill-rule="evenodd"/><path fill="#8190a8" stroke="#8190a8" stroke-width="1.0" stroke-linecap="butt" d="m192.55104 159.83546l4.538101 -1.6517334l-4.538101 -1.6517334z" fill-rule="evenodd"/><path fill="#000000" fill-opacity="0.0" d="m50.031357 136.18373l0 -94.110245l32.09449 0" fill-rule="evenodd"/><path stroke="#8190a8" stroke-width="1.0" stroke-linejoin="round" stroke-linecap="butt" d="m50.031357 136.18373l0 -94.110245l26.09449 0" fill-rule="evenodd"/><path fill="#8190a8" stroke="#8190a8" stroke-width="1.0" stroke-linecap="butt" d="m76.12585 43.725224l4.5380936 -1.6517334l-4.5380936 -1.6517334z" fill-rule="evenodd"/><path fill="#000000" fill-opacity="0.0" d="m186.4606 42.06168l225.17105 0l0 116.12599l-38.777344 0" fill-rule="evenodd"/><path stroke="#8190a8" stroke-width="1.0" stroke-linejoin="round" stroke-linecap="butt" d="m186.4606 42.06168l225.17105 0l0 116.12599l-32.777374 0" fill-rule="evenodd"/><path fill="#8190a8" stroke="#8190a8" stroke-width="1.0" stroke-linecap="butt" d="m378.85428 156.53593l-4.538086 1.6517334l4.538086 1.6517334z" fill-rule="evenodd"/><path fill="#000000" fill-opacity="0.0" d="m185.4257 12.803149l213.16536 0l0 32.31496l-213.16536 0z" fill-rule="evenodd"/><path fill="#3b454e" d="m250.06308 25.29315l0 -0.828125l-5.625 0l0 0.828125l2.34375 0l0 6.749998l0.9375 0l0 -6.749998l2.34375 0zm4.9729156 1.015625q-0.609375 0 -1.09375 0.265625q-0.484375 0.265625 -0.828125 0.734375l0 -0.140625l-0.046875 -0.75l-0.90625 0l0 5.624998l0.953125 0l0 -3.609373q0.09375 -0.265625 0.234375 -0.46875q0.15625 -0.21875 0.34375 -0.359375q0.21875 -0.171875 0.5 -0.25q0.28125 -0.09375 0.640625 -0.09375q0.28125 0 0.53125 0.03125q0.25 0.03125 0.53125 0.09375l0.12498474 -0.9375q-0.14060974 -0.0625 -0.43748474 -0.09375q-0.28125 -0.046875 -0.546875 -0.046875zm2.8635406 0.109375l0 0.828125l1.90625 0l0 3.96875l-1.90625 0l0 0.8281231l4.703125 0l0 -0.8281231l-1.828125 0l0 -4.796875l-2.875 0zm1.78125 -1.484375q0 0.234375 0.140625 0.390625q0.140625 0.15625 0.4375 0.15625q0.28125 0 0.421875 -0.15625q0.15625 -0.15625 0.15625 -0.390625q0 -0.125 -0.046875 -0.234375q-0.03125 -0.109375 -0.125 -0.1875q-0.0625 -0.0625 -0.171875 -0.09375q-0.09375 -0.046875 -0.234375 -0.046875q-0.140625 0 -0.25 0.046875q-0.09375 0.03125 -0.171875 0.09375q-0.078125 0.078125 -0.125 0.1875q-0.03125 0.109375 -0.03125 0.234375zm4.2854004 4.25l0 0.109375q0 0.59375 0.15625 1.125q0.15625 0.515625 0.4375 0.90625q0.296875 0.390625 0.703125 0.609375q0.421875 0.2187481 0.9375 0.2187481q0.296875 0 0.5625 -0.078125q0.265625 -0.0625 0.484375 -0.1718731q0.140625 -0.078125 0.265625 -0.1875q0.125 -0.109375 0.234375 -0.234375l0 0.484375q0 0.3749981 -0.109375 0.6562481q-0.09375 0.28125 -0.296875 0.46875q-0.1875 0.1875 -0.46875 0.28125q-0.28125 0.109375 -0.625 0.109375q-0.1875 0 -0.375 -0.046875q-0.1875 -0.03125 -0.390625 -0.125q-0.1875 -0.09375 -0.375 -0.25q-0.1875 -0.140625 -0.359375 -0.34375l-0.5 0.578125q0.1875 0.265625 0.453125 0.453125q0.265625 0.1875 0.5625 0.296875q0.28125 0.125 0.5625 0.171875q0.28125 0.046875 0.5 0.046875q0.53125 0 0.96875 -0.15625q0.4375 -0.15625 0.75 -0.453125q0.3125 -0.3125 0.484375 -0.75q0.1875 -0.421875 0.1875 -0.9843731l0 -5.5l-0.875 0l-0.046875 0.609375q-0.109375 -0.125 -0.21875 -0.21875q-0.109375 -0.109375 -0.234375 -0.1875q-0.234375 -0.15625 -0.515625 -0.234375q-0.28125 -0.078125 -0.625 -0.078125q-0.515625 0 -0.9375 0.21875q-0.40625 0.203125 -0.703125 0.59375q-0.296875 0.375 -0.453125 0.90625q-0.140625 0.53125 -0.140625 1.15625zm0.953125 0.109375l0 -0.109375q0 -0.40625 0.078125 -0.78125q0.09375 -0.375 0.28125 -0.65625q0.1875 -0.28125 0.46875 -0.453125q0.296875 -0.171875 0.703125 -0.171875q0.234375 0 0.421875 0.0625q0.203125 0.0625 0.375 0.171875q0.15625 0.109375 0.28125 0.25q0.125 0.140625 0.21875 0.328125l0 2.578125q-0.09375 0.171875 -0.21875 0.328125q-0.125 0.15625 -0.28125 0.265625q-0.15625 0.109375 -0.359375 0.171875q-0.203125 0.046875 -0.453125 0.046875q-0.40625 0 -0.6875 -0.15625q-0.28125 -0.171875 -0.46875 -0.453125q-0.1875 -0.28125 -0.28125 -0.640625q-0.078125 -0.375 -0.078125 -0.78125zm5.441681 -0.109375l0 0.109375q0 0.59375 0.15625 1.125q0.15625 0.515625 0.4375 0.90625q0.296875 0.390625 0.703125 0.609375q0.421875 0.2187481 0.9375 0.2187481q0.296875 0 0.5625 -0.078125q0.265625 -0.0625 0.484375 -0.1718731q0.140625 -0.078125 0.265625 -0.1875q0.125 -0.109375 0.234375 -0.234375l0 0.484375q0 0.3749981 -0.109375 0.6562481q-0.09375 0.28125 -0.296875 0.46875q-0.1875 0.1875 -0.46875 0.28125q-0.28125 0.109375 -0.625 0.109375q-0.1875 0 -0.375 -0.046875q-0.1875 -0.03125 -0.390625 -0.125q-0.1875 -0.09375 -0.375 -0.25q-0.1875 -0.140625 -0.359375 -0.34375l-0.5 0.578125q0.1875 0.265625 0.453125 0.453125q0.265625 0.1875 0.5625 0.296875q0.28125 0.125 0.5625 0.171875q0.28125 0.046875 0.5 0.046875q0.53125 0 0.96875 -0.15625q0.4375 -0.15625 0.75 -0.453125q0.3125 -0.3125 0.484375 -0.75q0.1875 -0.421875 0.1875 -0.9843731l0 -5.5l-0.875 0l-0.046875 0.609375q-0.109375 -0.125 -0.21875 -0.21875q-0.109375 -0.109375 -0.234375 -0.1875q-0.234375 -0.15625 -0.515625 -0.234375q-0.28125 -0.078125 -0.625 -0.078125q-0.515625 0 -0.9375 0.21875q-0.40625 0.203125 -0.703125 0.59375q-0.296875 0.375 -0.453125 0.90625q-0.140625 0.53125 -0.140625 1.15625zm0.953125 0.109375l0 -0.109375q0 -0.40625 0.078125 -0.78125q0.09375 -0.375 0.28125 -0.65625q0.1875 -0.28125 0.46875 -0.453125q0.296875 -0.171875 0.703125 -0.171875q0.234375 0 0.421875 0.0625q0.203125 0.0625 0.375 0.171875q0.15625 0.109375 0.28125 0.25q0.125 0.140625 0.21875 0.328125l0 2.578125q-0.09375 0.171875 -0.21875 0.328125q-0.125 0.15625 -0.28125 0.265625q-0.15625 0.109375 -0.359375 0.171875q-0.203125 0.046875 -0.453125 0.046875q-0.40625 0 -0.6875 -0.15625q-0.28125 -0.171875 -0.46875 -0.453125q-0.1875 -0.28125 -0.28125 -0.640625q-0.078125 -0.375 -0.078125 -0.78125zm8.0979 2.859373q0.828125 0 1.375 -0.3281231q0.5625 -0.34375 0.84375 -0.765625l-0.578125 -0.453125q-0.265625 0.34375 -0.671875 0.546875q-0.40625 0.203125 -0.921875 0.203125q-0.390625 0 -0.71875 -0.140625q-0.3125 -0.140625 -0.53125 -0.40625q-0.234375 -0.234375 -0.359375 -0.546875q-0.125 -0.3125 -0.15625 -0.71875l0 -0.046875l4.015625 0l0 -0.421875q0 -0.59375 -0.15625 -1.09375q-0.140625 -0.5 -0.4375 -0.875q-0.3125 -0.375 -0.765625 -0.578125q-0.453125 -0.21875 -1.0625 -0.21875q-0.484375 0 -0.953125 0.203125q-0.453125 0.1875 -0.8125 0.5625q-0.359375 0.375 -0.578125 0.921875q-0.21875 0.53125 -0.21875 1.21875l0 0.203125q0 0.59375 0.1875 1.09375q0.203125 0.5 0.5625 0.859375q0.359375 0.375 0.84375 0.578125q0.5 0.2031231 1.09375 0.2031231zm-0.125 -5.046873q0.375 0 0.640625 0.140625q0.265625 0.125 0.4375 0.34375q0.1875 0.21875 0.28125 0.515625q0.09375 0.296875 0.09375 0.5625l0 0.046875l-3.015625 0q0.046875 -0.390625 0.1875 -0.6875q0.15625 -0.296875 0.359375 -0.515625q0.203125 -0.203125 0.453125 -0.296875q0.265625 -0.109375 0.5625 -0.109375zm7.722931 -0.796875q-0.609375 0 -1.09375 0.265625q-0.484375 0.265625 -0.828125 0.734375l0 -0.140625l-0.046875 -0.75l-0.90625 0l0 5.624998l0.953125 0l0 -3.609373q0.09375 -0.265625 0.234375 -0.46875q0.15625 -0.21875 0.34375 -0.359375q0.21875 -0.171875 0.5 -0.25q0.28125 -0.09375 0.640625 -0.09375q0.28125 0 0.53125 0.03125q0.25 0.03125 0.53125 0.09375l0.125 -0.9375q-0.140625 -0.0625 -0.4375 -0.09375q-0.28125 -0.046875 -0.546875 -0.046875zm12.805206 5.734373l1.0 0l0 -0.07812309q-0.09375 -0.234375 -0.15625 -0.546875q-0.046875 -0.328125 -0.046875 -0.609375l0 -2.609375q0 -0.46875 -0.171875 -0.828125q-0.171875 -0.359375 -0.46875 -0.59375q-0.296875 -0.234375 -0.71875 -0.34375q-0.40625 -0.125 -0.875 -0.125q-0.53125 0 -0.953125 0.15625q-0.40625 0.140625 -0.6875 0.375q-0.296875 0.234375 -0.453125 0.53125q-0.140625 0.296875 -0.15625 0.609375l0.96875 0q0 -0.1875 0.078125 -0.34375q0.09375 -0.171875 0.25 -0.28125q0.15625 -0.125 0.375 -0.1875q0.234375 -0.078125 0.515625 -0.078125q0.3125 0 0.5625 0.078125q0.25 0.078125 0.421875 0.21875q0.171875 0.140625 0.265625 0.34375q0.09375 0.203125 0.09375 0.453125l0 0.453125l-1.0625 0q-0.578125 0 -1.0625 0.109375q-0.46875 0.109375 -0.8125 0.34375q-0.328125 0.234375 -0.515625 0.578125q-0.1875 0.34375 -0.1875 0.8125q0 0.359375 0.140625 0.671875q0.140625 0.296875 0.390625 0.515625q0.25 0.21875 0.609375 0.3593731q0.359375 0.125 0.8125 0.125q0.265625 0 0.515625 -0.0625q0.25 -0.0625 0.46875 -0.1562481q0.203125 -0.09375 0.375 -0.21875q0.1875 -0.140625 0.34375 -0.28125q0.015625 0.171875 0.046875 0.34375q0.03125 0.15625 0.09375 0.2656231zm-1.703125 -0.7343731q-0.28125 0 -0.5 -0.0625q-0.203125 -0.078125 -0.34375 -0.21875q-0.140625 -0.125 -0.21875 -0.296875q-0.0625 -0.171875 -0.0625 -0.390625q0 -0.21875 0.078125 -0.390625q0.078125 -0.171875 0.234375 -0.296875q0.21875 -0.171875 0.578125 -0.25q0.375 -0.09375 0.875 -0.09375l0.90625 0l0 1.140625q-0.09375 0.171875 -0.234375 0.328125q-0.140625 0.140625 -0.34375 0.265625q-0.203125 0.125 -0.453125 0.203125q-0.234375 0.0625 -0.515625 0.0625zm6.7854004 0.0625q-0.453125 0 -0.75 -0.171875q-0.296875 -0.1875 -0.484375 -0.484375q-0.1875 -0.28125 -0.265625 -0.640625q-0.078125 -0.375 -0.078125 -0.734375l0 -0.21875q0 -0.359375 0.078125 -0.71875q0.078125 -0.359375 0.265625 -0.65625q0.1875 -0.28125 0.484375 -0.453125q0.3125 -0.1875 0.75 -0.1875q0.296875 0 0.546875 0.09375q0.25 0.09375 0.4375 0.265625q0.1875 0.171875 0.28125 0.40625q0.109375 0.21875 0.125 0.484375l0.90625 0q0 -0.4375 -0.171875 -0.8125q-0.171875 -0.375 -0.46875 -0.640625q-0.3125 -0.28125 -0.734375 -0.4375q-0.421875 -0.15625 -0.921875 -0.15625q-0.625 0 -1.109375 0.234375q-0.484375 0.21875 -0.796875 0.609375q-0.328125 0.390625 -0.484375 0.90625q-0.15625 0.5 -0.15625 1.0625l0 0.21875q0 0.5625 0.15625 1.078125q0.15625 0.5 0.484375 0.875q0.3125 0.390625 0.796875 0.625q0.484375 0.2343731 1.109375 0.2343731q0.453125 0 0.859375 -0.1562481q0.421875 -0.15625 0.734375 -0.421875q0.3125 -0.25 0.5 -0.59375q0.203125 -0.34375 0.203125 -0.71875l-0.90625 0q-0.015625 0.234375 -0.140625 0.4375q-0.109375 0.203125 -0.296875 0.34375q-0.1875 0.15625 -0.4375 0.25q-0.25 0.078125 -0.515625 0.078125zm6.285431 -6.328125l-0.96875 0l0 1.375l-1.484375 0l0 0.734375l1.484375 0l0 3.0625q0 0.515625 0.140625 0.890625q0.140625 0.359375 0.375 0.59375q0.234375 0.234375 0.5625 0.3437481q0.328125 0.109375 0.703125 0.109375q0.21875 0 0.4375 -0.03125q0.234375 -0.015625 0.4375 -0.0625q0.203125 -0.03125 0.375 -0.07812309q0.171875 -0.0625 0.296875 -0.140625l-0.140625 -0.671875q-0.09375 0.015625 -0.234375 0.046875q-0.125 0.03125 -0.28125 0.046875q-0.171875 0.03125 -0.34375 0.046875q-0.15625 0.015625 -0.3125 0.015625q-0.21875 0 -0.40625 -0.046875q-0.1875 -0.046875 -0.328125 -0.1875q-0.15625 -0.125 -0.234375 -0.328125q-0.078125 -0.21875 -0.078125 -0.546875l0 -3.0625l2.140625 0l0 -0.734375l-2.140625 0l0 -1.375zm4.2697754 1.375l0 0.828125l1.90625 0l0 3.96875l-1.90625 0l0 0.8281231l4.703125 0l0 -0.8281231l-1.828125 0l0 -4.796875l-2.875 0zm1.78125 -1.484375q0 0.234375 0.140625 0.390625q0.140625 0.15625 0.4375 0.15625q0.28125 0 0.421875 -0.15625q0.15625 -0.15625 0.15625 -0.390625q0 -0.125 -0.046875 -0.234375q-0.03125 -0.109375 -0.125 -0.1875q-0.0625 -0.0625 -0.171875 -0.09375q-0.09375 -0.046875 -0.234375 -0.046875q-0.140625 0 -0.25 0.046875q-0.09375 0.03125 -0.171875 0.09375q-0.078125 0.078125 -0.125 0.1875q-0.03125 0.109375 -0.03125 0.234375zm4.191681 4.25l0 0.109375q0 0.609375 0.171875 1.125q0.171875 0.515625 0.515625 0.90625q0.328125 0.390625 0.796875 0.609375q0.484375 0.2187481 1.078125 0.2187481q0.59375 0 1.0625 -0.2187481q0.46875 -0.21875 0.8125 -0.609375q0.328125 -0.390625 0.5 -0.90625q0.171875 -0.515625 0.171875 -1.125l0 -0.109375q0 -0.609375 -0.171875 -1.125q-0.171875 -0.53125 -0.5 -0.921875q-0.34375 -0.390625 -0.828125 -0.609375q-0.46875 -0.21875 -1.0625 -0.21875q-0.59375 0 -1.0625 0.21875q-0.46875 0.21875 -0.796875 0.609375q-0.34375 0.390625 -0.515625 0.921875q-0.171875 0.515625 -0.171875 1.125zm0.953125 0.109375l0 -0.109375q0 -0.421875 0.09375 -0.796875q0.109375 -0.375 0.3125 -0.65625q0.203125 -0.296875 0.484375 -0.453125q0.296875 -0.171875 0.703125 -0.171875q0.40625 0 0.703125 0.171875q0.296875 0.15625 0.5 0.453125q0.203125 0.28125 0.296875 0.65625q0.109375 0.375 0.109375 0.796875l0 0.109375q0 0.40625 -0.109375 0.796875q-0.09375 0.375 -0.296875 0.65625q-0.203125 0.28125 -0.5 0.453125q-0.296875 0.171875 -0.6875 0.171875q-0.40625 0 -0.703125 -0.171875q-0.296875 -0.171875 -0.5 -0.453125q-0.203125 -0.28125 -0.3125 -0.65625q-0.09375 -0.390625 -0.09375 -0.796875zm5.7072754 2.749998l0.96875 0l0 -4.031248q0.09375 -0.1875 0.21875 -0.328125q0.140625 -0.15625 0.296875 -0.28125q0.1875 -0.125 0.40625 -0.203125q0.234375 -0.078125 0.5 -0.078125q0.3125 0 0.546875 0.078125q0.234375 0.078125 0.40625 0.234375q0.15625 0.15625 0.234375 0.421875q0.09375 0.265625 0.09375 0.640625l0 3.546873l0.96875 0l0 -3.578123q0 -0.5625 -0.140625 -0.96875q-0.140625 -0.40625 -0.390625 -0.671875q-0.265625 -0.265625 -0.625 -0.390625q-0.359375 -0.125 -0.796875 -0.125q-0.328125 0 -0.625 0.09375q-0.296875 0.09375 -0.546875 0.265625q-0.15625 0.109375 -0.3125 0.265625q-0.140625 0.140625 -0.265625 0.3125l-0.078125 -0.828125l-0.859375 0l0 5.624998zm10.129181 -1.4999981q0 0.140625 -0.046875 0.265625q-0.046875 0.109375 -0.15625 0.21875q-0.15625 0.15625 -0.453125 0.25q-0.28125 0.09375 -0.65625 0.09375q-0.25 0 -0.5 -0.046875q-0.25 -0.0625 -0.453125 -0.1875q-0.203125 -0.125 -0.34375 -0.328125q-0.140625 -0.203125 -0.15625 -0.5l-0.96875 0q0 0.359375 0.15625 0.703125q0.171875 0.328125 0.484375 0.578125q0.3125 0.25 0.75 0.40625q0.453125 0.1562481 1.03125 0.1562481q0.5 0 0.921875 -0.125q0.421875 -0.12499809 0.71875 -0.3437481q0.296875 -0.21875 0.46875 -0.515625q0.171875 -0.3125 0.171875 -0.6875q0 -0.34375 -0.15625 -0.609375q-0.140625 -0.265625 -0.421875 -0.46875q-0.28125 -0.203125 -0.703125 -0.34375q-0.40625 -0.140625 -0.921875 -0.25q-0.390625 -0.078125 -0.65625 -0.15625q-0.25 -0.09375 -0.40625 -0.1875q-0.15625 -0.109375 -0.21875 -0.234375q-0.0625 -0.140625 -0.0625 -0.296875q0 -0.171875 0.078125 -0.3125q0.078125 -0.15625 0.234375 -0.265625q0.15625 -0.125 0.375 -0.1875q0.234375 -0.0625 0.546875 -0.0625q0.296875 0 0.53125 0.078125q0.234375 0.078125 0.40625 0.21875q0.171875 0.140625 0.265625 0.3125q0.09375 0.171875 0.09375 0.359375l0.953125 0q0 -0.375 -0.15625 -0.6875q-0.15625 -0.328125 -0.453125 -0.5625q-0.28125 -0.25 -0.703125 -0.375q-0.421875 -0.140625 -0.9375 -0.140625q-0.484375 0 -0.890625 0.140625q-0.390625 0.125 -0.6875 0.34375q-0.296875 0.21875 -0.453125 0.53125q-0.15625 0.296875 -0.15625 0.640625q0 0.34375 0.15625 0.609375q0.15625 0.265625 0.4375 0.453125q0.28125 0.203125 0.671875 0.34375q0.40625 0.125 0.890625 0.234375q0.390625 0.078125 0.65625 0.171875q0.265625 0.09375 0.421875 0.203125q0.171875 0.125 0.234375 0.265625q0.0625 0.125 0.0625 0.296875z" fill-rule="nonzero"/><path fill="#000000" fill-opacity="0.0" d="m50.031876 83.96588l51.65354 0l0 32.314957l-51.65354 0z" fill-rule="evenodd"/><path fill="#3b454e" d="m61.000626 95.627754l-1.203125 0l0 7.578125l0.9375 0l0 -3.015625l-0.078125 -3.0625l1.28125 3.96875l0.5625 0l1.390625 -4.078125l-0.078125 3.171875l0 3.015625l0.9375 0l0 -7.578125l-1.1875 0l-1.34375 3.796875l-1.21875 -3.796875zm6.3947906 0l-1.203125 0l0 7.578125l0.9375 0l0 -3.015625l-0.078125 -3.0625l1.28125 3.96875l0.5625 0l1.390625 -4.078125l-0.078125 3.171875l0 3.015625l0.9375 0l0 -7.578125l-1.1875 0l-1.34375 3.796875l-1.21875 -3.796875zm5.3322906 0l0 0.84375l1.765625 0l0 5.90625l-1.765625 0l0 0.828125l4.578125 0l0 -0.828125l-1.8125 0l0 -5.90625l1.8125 0l0 -0.84375l-4.578125 0z" fill-rule="nonzero"/></g></svg>