<svg version="1.1" viewBox="0.0 0.0 530.6404199475065 200.70603674540683" fill="none" stroke="none" stroke-linecap="square" stroke-miterlimit="10" xmlns:xlink="http://www.w3.org/1999/xlink" xmlns="http://www.w3.org/2000/svg"><clipPath id="p.0"><path d="m0 0l530.64044 0l0 200.70604l-530.64044 0l0 -200.70604z" clip-rule="nonzero"/></clipPath><g clip-path="url(#p.0)"><path fill="#000000" fill-opacity="0.0" d="m0 0l530.64044 0l0 200.70604l-530.64044 0z" fill-rule="evenodd"/><path fill="#ffffff" d="m191.91077 89.02139l0 0c0 -5.217209 4.22937 -9.446587 9.446579 -9.446587l289.5163 0c2.505371 0 4.9081726 0.99526215 6.6797485 2.766838c1.7715759 1.7715836 2.7668457 4.1743546 2.7668457 6.6797485l0 88.53989c0 5.217209 -4.2294006 9.446594 -9.446594 9.446594l-289.5163 0c-5.217209 0 -9.446579 -4.2293854 -9.446579 -9.446594z" fill-rule="evenodd"/><path stroke="#e8ecef" stroke-width="1.0" stroke-linejoin="round" stroke-linecap="butt" d="m191.91077 89.02139l0 0c0 -5.217209 4.22937 -9.446587 9.446579 -9.446587l289.5163 0c2.505371 0 4.9081726 0.99526215 6.6797485 2.766838c1.7715759 1.7715836 2.7668457 4.1743546 2.7668457 6.6797485l0 88.53989c0 5.217209 -4.2294006 9.446594 -9.446594 9.446594l-289.5163 0c-5.217209 0 -9.446579 -4.2293854 -9.446579 -9.446594z" fill-rule="evenodd"/><path fill="#f3f5f6" d="m200.73253 79.57481l291.12817 0c2.245697 0 4.399414 0.8920975 5.9873657 2.4800415c1.5879517 1.587944 2.4800415 3.741661 2.4800415 5.9873505l0 19.62709c0 0.0014190674 -0.001159668 0.002571106 -0.0025634766 0.002571106l-308.06042 -0.002571106l0 0c-0.0014190674 0 -0.0025634766 -0.0011444092 -0.0025634766 -0.0025634766l0.0025634766 -19.624527l0 0c0 -4.6764145 3.790985 -8.467392 8.467407 -8.467392z" fill-rule="evenodd"/><path stroke="#e8ecef" stroke-width="1.0" stroke-linejoin="round" stroke-linecap="butt" d="m200.73253 79.57481l291.12817 0c2.245697 0 4.399414 0.8920975 5.9873657 2.4800415c1.5879517 1.587944 2.4800415 3.741661 2.4800415 5.9873505l0 19.62709c0 0.0014190674 -0.001159668 0.002571106 -0.0025634766 0.002571106l-308.06042 -0.002571106l0 0c-0.0014190674 0 -0.0025634766 -0.0011444092 -0.0025634766 -0.0025634766l0.0025634766 -19.624527l0 0c0 -4.6764145 3.790985 -8.467392 8.467407 -8.467392z" fill-rule="evenodd"/><path fill="#3b454e" d="m279.12457 99.662056l2.546875 0q0.625 0 1.1875 -0.15625q0.5625 -0.15625 1.015625 -0.453125q0.40625 -0.25 0.734375 -0.609375q0.328125 -0.375 0.578125 -0.8125q0.25 -0.484375 0.390625 -1.0625q0.15625 -0.59375 0.15625 -1.25l0 -0.78125q0 -0.6875 -0.15625 -1.28125q-0.15625 -0.609375 -0.4375 -1.109375q-0.234375 -0.40625 -0.5625 -0.75q-0.3125 -0.359375 -0.734375 -0.59375q-0.46875 -0.296875 -1.046875 -0.453125q-0.5625 -0.15625 -1.21875 -0.15625l-2.453125 0l0 9.46875zm1.84375 -7.984375l0.609375 0q0.328125 0 0.609375 0.078125q0.296875 0.0625 0.53125 0.203125q0.296875 0.1875 0.53125 0.46875q0.234375 0.28125 0.375 0.640625q0.109375 0.3125 0.171875 0.6875q0.0625 0.359375 0.0625 0.765625l0 0.796875q0 0.4375 -0.0625 0.8125q-0.0625 0.375 -0.171875 0.6875q-0.140625 0.34375 -0.34375 0.609375q-0.203125 0.265625 -0.453125 0.4375q-0.234375 0.15625 -0.53125 0.25q-0.28125 0.078125 -0.625 0.078125l-0.703125 0l0 -6.515625zm9.670044 8.109375q1.03125 0 1.78125 -0.390625q0.75 -0.390625 1.09375 -0.890625l-0.90625 -0.96875q-0.3125 0.40625 -0.8125 0.609375q-0.5 0.1875 -1.046875 0.1875q-0.375 0 -0.703125 -0.109375q-0.3125 -0.125 -0.546875 -0.328125q-0.25 -0.21875 -0.390625 -0.46875q-0.140625 -0.265625 -0.234375 -0.6875l0 -0.015625l4.78125 0l0 -0.765625q0 -0.78125 -0.21875 -1.421875q-0.21875 -0.640625 -0.625 -1.09375q-0.421875 -0.453125 -1.015625 -0.703125q-0.59375 -0.25 -1.359375 -0.25q-0.734375 0 -1.359375 0.265625q-0.625 0.265625 -1.078125 0.75q-0.453125 0.484375 -0.703125 1.15625q-0.25 0.65625 -0.25 1.46875l0 0.25q0 0.71875 0.25 1.34375q0.265625 0.609375 0.734375 1.078125q0.46875 0.453125 1.125 0.71875q0.671875 0.265625 1.484375 0.265625zm-0.203125 -5.828125q0.34375 0 0.59375 0.109375q0.265625 0.09375 0.453125 0.28125q0.1875 0.1875 0.28125 0.453125q0.109375 0.25 0.109375 0.53125l0 0.140625l-2.96875 0q0.0625 -0.34375 0.1875 -0.625q0.140625 -0.28125 0.34375 -0.484375q0.1875 -0.203125 0.4375 -0.296875q0.25 -0.109375 0.5625 -0.109375zm7.0294495 5.703125l1.703125 0l2.671875 -7.046875l-1.890625 0l-1.546875 4.96875l-0.09375 0.5l-0.09375 -0.5l-1.546875 -4.96875l-1.890625 0l2.6875 7.046875zm6.248169 -7.046875l0 1.484375l2.0 0l0 4.09375l-2.0 0l0 1.46875l5.734375 0l0 -1.46875l-1.90625 0l0 -5.578125l-3.828125 0zm1.875 -1.796875q0 0.203125 0.0625 0.390625q0.078125 0.171875 0.21875 0.296875q0.140625 0.125 0.328125 0.203125q0.1875 0.078125 0.421875 0.078125q0.484375 0 0.765625 -0.265625q0.28125 -0.28125 0.28125 -0.703125q0 -0.421875 -0.28125 -0.6875q-0.28125 -0.28125 -0.765625 -0.28125q-0.234375 0 -0.421875 0.078125q-0.1875 0.0625 -0.328125 0.1875q-0.140625 0.140625 -0.21875 0.328125q-0.0625 0.171875 -0.0625 0.375zm8.748199 7.53125q-0.4375 0 -0.71875 -0.171875q-0.28125 -0.1875 -0.4375 -0.46875q-0.171875 -0.296875 -0.234375 -0.671875q-0.0625 -0.375 -0.0625 -0.796875l0 -0.1875q0 -0.40625 0.0625 -0.78125q0.0625 -0.375 0.234375 -0.671875q0.171875 -0.296875 0.4375 -0.46875q0.28125 -0.171875 0.71875 -0.171875q0.296875 0 0.53125 0.109375q0.25 0.09375 0.421875 0.25q0.1875 0.171875 0.265625 0.40625q0.09375 0.234375 0.09375 0.5l1.703125 0q0 -0.625 -0.21875 -1.125q-0.21875 -0.515625 -0.609375 -0.875q-0.40625 -0.34375 -0.96875 -0.53125q-0.546875 -0.203125 -1.203125 -0.203125q-0.8125 0 -1.421875 0.28125q-0.609375 0.28125 -1.03125 0.765625q-0.421875 0.46875 -0.625 1.125q-0.203125 0.640625 -0.203125 1.390625l0 0.1875q0 0.75 0.203125 1.40625q0.21875 0.640625 0.625 1.125q0.421875 0.46875 1.03125 0.75q0.625 0.28125 1.4375 0.28125q0.609375 0 1.15625 -0.1875q0.546875 -0.203125 0.953125 -0.53125q0.40625 -0.34375 0.640625 -0.8125q0.234375 -0.46875 0.234375 -1.015625l-1.703125 0q0 0.25 -0.109375 0.453125q-0.09375 0.203125 -0.265625 0.34375q-0.1875 0.140625 -0.4375 0.21875q-0.234375 0.078125 -0.5 0.078125zm8.295044 1.4375q1.03125 0 1.78125 -0.390625q0.75 -0.390625 1.09375 -0.890625l-0.90625 -0.96875q-0.3125 0.40625 -0.8125 0.609375q-0.5 0.1875 -1.046875 0.1875q-0.375 0 -0.703125 -0.109375q-0.3125 -0.125 -0.546875 -0.328125q-0.25 -0.21875 -0.390625 -0.46875q-0.140625 -0.265625 -0.234375 -0.6875l0 -0.015625l4.78125 0l0 -0.765625q0 -0.78125 -0.21875 -1.421875q-0.21875 -0.640625 -0.625 -1.09375q-0.421875 -0.453125 -1.015625 -0.703125q-0.59375 -0.25 -1.359375 -0.25q-0.734375 0 -1.359375 0.265625q-0.625 0.265625 -1.078125 0.75q-0.453125 0.484375 -0.703125 1.15625q-0.25 0.65625 -0.25 1.46875l0 0.25q0 0.71875 0.25 1.34375q0.265625 0.609375 0.734375 1.078125q0.46875 0.453125 1.125 0.71875q0.671875 0.265625 1.484375 0.265625zm-0.203125 -5.828125q0.34375 0 0.59375 0.109375q0.265625 0.09375 0.453125 0.28125q0.1875 0.1875 0.28125 0.453125q0.109375 0.25 0.109375 0.53125l0 0.140625l-2.96875 0q0.0625 -0.34375 0.1875 -0.625q0.140625 -0.28125 0.34375 -0.484375q0.1875 -0.203125 0.4375 -0.296875q0.25 -0.109375 0.5625 -0.109375zm19.043243 -3.765625l-1.828125 0l0 6.265625q0 0.46875 -0.09375 0.828125q-0.09375 0.34375 -0.28125 0.578125q-0.171875 0.234375 -0.4375 0.34375q-0.25 0.109375 -0.578125 0.109375q-0.296875 0 -0.53125 -0.109375q-0.234375 -0.109375 -0.40625 -0.3125q-0.171875 -0.234375 -0.265625 -0.59375q-0.078125 -0.359375 -0.09375 -0.84375l0 -6.265625l-1.828125 0l-0.015625 6.265625q0 0.796875 0.21875 1.421875q0.234375 0.625 0.640625 1.046875q0.421875 0.421875 0.984375 0.640625q0.578125 0.21875 1.296875 0.21875q0.765625 0 1.359375 -0.21875q0.59375 -0.21875 1.015625 -0.640625q0.40625 -0.4375 0.625 -1.046875q0.21875 -0.625 0.21875 -1.421875l0 -6.265625zm1.7481995 9.46875l1.8125 0l0 -5.0q0.09375 -0.140625 0.203125 -0.25q0.109375 -0.125 0.25 -0.21875q0.15625 -0.109375 0.375 -0.171875q0.21875 -0.0625 0.484375 -0.0625q0.3125 0 0.5625 0.0625q0.25 0.0625 0.421875 0.21875q0.171875 0.15625 0.265625 0.4375q0.09375 0.265625 0.09375 0.671875l0 4.3125l1.8125 0l0 -4.328125q0 -0.78125 -0.1875 -1.3125q-0.171875 -0.53125 -0.484375 -0.875q-0.328125 -0.34375 -0.78125 -0.5q-0.4375 -0.15625 -0.96875 -0.15625q-0.421875 0 -0.796875 0.125q-0.359375 0.109375 -0.671875 0.328125q-0.1875 0.125 -0.34375 0.296875q-0.15625 0.15625 -0.296875 0.359375l-0.109375 -0.984375l-1.640625 0l0 7.046875zm7.810669 -3.578125l0 0.140625q0 0.765625 0.1875 1.421875q0.1875 0.65625 0.546875 1.125q0.34375 0.484375 0.859375 0.75q0.515625 0.265625 1.15625 0.265625q0.59375 0 1.03125 -0.21875q0.453125 -0.234375 0.78125 -0.640625l0.09375 0.734375l1.640625 0l0 -10.0l-1.8125 0l0 3.59375q-0.328125 -0.375 -0.75 -0.5625q-0.421875 -0.203125 -0.96875 -0.203125q-0.65625 0 -1.171875 0.265625q-0.515625 0.25 -0.875 0.734375q-0.359375 0.46875 -0.546875 1.140625q-0.171875 0.65625 -0.171875 1.453125zm1.796875 0.140625l0 -0.140625q0 -0.4375 0.078125 -0.828125q0.078125 -0.390625 0.25 -0.671875q0.171875 -0.296875 0.4375 -0.453125q0.28125 -0.171875 0.65625 -0.171875q0.46875 0 0.765625 0.203125q0.3125 0.203125 0.5 0.546875l0 2.859375q-0.1875 0.34375 -0.5 0.546875q-0.3125 0.203125 -0.78125 0.203125q-0.375 0 -0.640625 -0.15625q-0.265625 -0.171875 -0.4375 -0.453125q-0.171875 -0.28125 -0.25 -0.65625q-0.078125 -0.390625 -0.078125 -0.828125zm9.795074 3.5625q1.03125 0 1.78125 -0.390625q0.75 -0.390625 1.09375 -0.890625l-0.90625 -0.96875q-0.3125 0.40625 -0.8125 0.609375q-0.5 0.1875 -1.046875 0.1875q-0.375 0 -0.703125 -0.109375q-0.3125 -0.125 -0.546875 -0.328125q-0.25 -0.21875 -0.390625 -0.46875q-0.140625 -0.265625 -0.234375 -0.6875l0 -0.015625l4.78125 0l0 -0.765625q0 -0.78125 -0.21875 -1.421875q-0.21875 -0.640625 -0.625 -1.09375q-0.421875 -0.453125 -1.015625 -0.703125q-0.59375 -0.25 -1.359375 -0.25q-0.734375 0 -1.359375 0.265625q-0.625 0.265625 -1.078125 0.75q-0.453125 0.484375 -0.703125 1.15625q-0.25 0.65625 -0.25 1.46875l0 0.25q0 0.71875 0.25 1.34375q0.265625 0.609375 0.734375 1.078125q0.46875 0.453125 1.125 0.71875q0.671875 0.265625 1.484375 0.265625zm-0.203125 -5.828125q0.34375 0 0.59375 0.109375q0.265625 0.09375 0.453125 0.28125q0.1875 0.1875 0.28125 0.453125q0.109375 0.25 0.109375 0.53125l0 0.140625l-2.96875 0q0.0625 -0.34375 0.1875 -0.625q0.140625 -0.28125 0.34375 -0.484375q0.1875 -0.203125 0.4375 -0.296875q0.25 -0.109375 0.5625 -0.109375zm9.841919 -1.46875q-0.703125 0 -1.3125 0.34375q-0.59375 0.34375 -1.015625 0.9375l-0.015625 -0.15625l-0.078125 -1.0l-1.671875 0l0 7.046875l1.796875 0l0 -4.234375q0.125 -0.296875 0.3125 -0.515625q0.1875 -0.21875 0.453125 -0.359375q0.234375 -0.125 0.515625 -0.1875q0.28125 -0.0625 0.625 -0.0625q0.34375 0 0.71875 0.046875q0.375 0.03125 0.734375 0.125l0.265625 -1.8125q-0.21875 -0.0625 -0.5625 -0.109375q-0.34375 -0.0625 -0.765625 -0.0625zm17.840118 -0.8125l0 -1.484375l-7.640625 0l0 1.484375l2.890625 0l0 7.984375l1.828125 0l0 -7.984375l2.921875 0zm4.5138245 8.109375q1.03125 0 1.78125 -0.390625q0.75 -0.390625 1.09375 -0.890625l-0.90625 -0.96875q-0.3125 0.40625 -0.8125 0.609375q-0.5 0.1875 -1.046875 0.1875q-0.375 0 -0.703125 -0.109375q-0.3125 -0.125 -0.546875 -0.328125q-0.25 -0.21875 -0.390625 -0.46875q-0.140625 -0.265625 -0.234375 -0.6875l0 -0.015625l4.78125 0l0 -0.765625q0 -0.78125 -0.21875 -1.421875q-0.21875 -0.640625 -0.625 -1.09375q-0.421875 -0.453125 -1.015625 -0.703125q-0.59375 -0.25 -1.359375 -0.25q-0.734375 0 -1.359375 0.265625q-0.625 0.265625 -1.078125 0.75q-0.453125 0.484375 -0.703125 1.15625q-0.25 0.65625 -0.25 1.46875l0 0.25q0 0.71875 0.25 1.34375q0.265625 0.609375 0.734375 1.078125q0.46875 0.453125 1.125 0.71875q0.671875 0.265625 1.484375 0.265625zm-0.203125 -5.828125q0.34375 0 0.59375 0.109375q0.265625 0.09375 0.453125 0.28125q0.1875 0.1875 0.28125 0.453125q0.109375 0.25 0.109375 0.53125l0 0.140625l-2.96875 0q0.0625 -0.34375 0.1875 -0.625q0.140625 -0.28125 0.34375 -0.484375q0.1875 -0.203125 0.4375 -0.296875q0.25 -0.109375 0.5625 -0.109375zm9.326294 3.765625q0 0.171875 -0.078125 0.3125q-0.078125 0.125 -0.234375 0.234375q-0.171875 0.109375 -0.4375 0.171875q-0.265625 0.046875 -0.609375 0.046875q-0.296875 0 -0.578125 -0.046875q-0.28125 -0.0625 -0.484375 -0.1875q-0.21875 -0.125 -0.359375 -0.328125q-0.140625 -0.21875 -0.15625 -0.5l-1.71875 0q0 0.4375 0.203125 0.859375q0.21875 0.421875 0.625 0.75q0.40625 0.34375 1.015625 0.5625q0.609375 0.203125 1.40625 0.203125q0.71875 0 1.296875 -0.15625q0.59375 -0.171875 1.015625 -0.453125q0.40625 -0.28125 0.625 -0.671875q0.234375 -0.40625 0.234375 -0.875q0 -0.5 -0.234375 -0.859375q-0.21875 -0.375 -0.609375 -0.640625q-0.40625 -0.25 -0.953125 -0.40625q-0.546875 -0.171875 -1.171875 -0.28125q-0.453125 -0.0625 -0.734375 -0.140625q-0.28125 -0.09375 -0.453125 -0.203125q-0.171875 -0.109375 -0.234375 -0.234375q-0.0625 -0.140625 -0.0625 -0.296875q0 -0.15625 0.078125 -0.296875q0.078125 -0.140625 0.21875 -0.234375q0.15625 -0.125 0.390625 -0.1875q0.25 -0.0625 0.59375 -0.0625q0.390625 0 0.65625 0.09375q0.28125 0.09375 0.4375 0.265625q0.125 0.125 0.171875 0.28125q0.0625 0.140625 0.0625 0.3125l1.8125 0q0 -0.484375 -0.21875 -0.890625q-0.203125 -0.421875 -0.609375 -0.734375q-0.40625 -0.296875 -1.0 -0.46875q-0.578125 -0.171875 -1.3125 -0.171875q-0.703125 0 -1.265625 0.1875q-0.5625 0.171875 -0.953125 0.46875q-0.390625 0.296875 -0.609375 0.703125q-0.203125 0.390625 -0.203125 0.828125q0 0.4375 0.203125 0.78125q0.21875 0.34375 0.578125 0.609375q0.359375 0.265625 0.875 0.453125q0.515625 0.1875 1.125 0.3125q0.484375 0.09375 0.796875 0.1875q0.328125 0.078125 0.53125 0.1875q0.1875 0.109375 0.25 0.234375q0.078125 0.125 0.078125 0.28125zm6.7794495 -6.828125l-1.8125 0l0 1.71875l-1.609375 0l0 1.34375l1.609375 0l0 3.203125q0 0.6875 0.1875 1.1875q0.1875 0.5 0.515625 0.8125q0.34375 0.328125 0.8125 0.484375q0.46875 0.15625 1.046875 0.15625q0.296875 0 0.609375 -0.03125q0.3125 -0.03125 0.59375 -0.078125q0.28125 -0.0625 0.53125 -0.140625q0.265625 -0.078125 0.453125 -0.1875l-0.171875 -1.25q-0.125 0.03125 -0.296875 0.078125q-0.171875 0.03125 -0.375 0.046875q-0.203125 0.03125 -0.421875 0.0625q-0.21875 0.015625 -0.421875 0.015625q-0.28125 0 -0.515625 -0.0625q-0.234375 -0.078125 -0.390625 -0.234375q-0.171875 -0.140625 -0.265625 -0.390625q-0.078125 -0.265625 -0.078125 -0.65625l0 -3.015625l2.625 0l0 -1.34375l-2.625 0l0 -1.71875z" fill-rule="nonzero"/><path fill="#9471f5" d="m210.81627 128.52545l0 0c0 -2.5481567 2.065689 -4.613846 4.613846 -4.613846l63.559723 0c1.2236633 0 2.3972168 0.48609924 3.2624817 1.3513641c0.8652649 0.8652649 1.3513489 2.0388107 1.3513489 3.2624817l0 34.77231c0 2.5481567 -2.0656738 4.613846 -4.6138306 4.613846l-63.559723 0l0 0c-2.5481567 0 -4.613846 -2.065689 -4.613846 -4.613846z" fill-rule="evenodd"/><path fill="#ffffff" d="m236.33769 141.24286l0 1.046875l2.21875 0l0 7.375l-2.21875 0l0 1.046875l5.734375 0l0 -1.046875l-2.265625 0l0 -7.375l2.265625 0l0 -1.046875l-5.734375 0zm13.951309 0l-1.15625 0l-0.03125 6.40625q0 0.421875 -0.125 0.8125q-0.125 0.390625 -0.359375 0.6875q-0.25 0.3125 -0.609375 0.5q-0.34375 0.171875 -0.796875 0.171875q-0.46875 0 -0.828125 -0.171875q-0.34375 -0.1875 -0.578125 -0.5q-0.25 -0.296875 -0.375 -0.6875q-0.125 -0.390625 -0.125 -0.8125l-0.03125 -6.40625l-1.140625 0l-0.015625 6.40625q0 0.671875 0.21875 1.25q0.234375 0.578125 0.640625 1.015625q0.40625 0.4375 0.96875 0.6875q0.578125 0.234375 1.265625 0.234375q0.671875 0 1.234375 -0.25q0.578125 -0.25 0.984375 -0.6875q0.40625 -0.421875 0.640625 -1.0q0.234375 -0.578125 0.234375 -1.25l-0.015625 -6.40625zm8.435699 1.015625l0 -1.015625l-7.0156403 0l0 1.015625l2.921875 0l0 8.453125l1.171875 0l0 -8.453125l2.9218903 0z" fill-rule="nonzero"/><path fill="#4285f4" d="m312.34647 129.7412l0 0c0 -3.2200546 2.610382 -5.8304367 5.8304443 -5.8304367l157.53595 0c1.5463257 0 3.0293274 0.6142807 4.1227417 1.707695c1.0934143 1.0934219 1.7077026 2.576416 1.7077026 4.1227417l0 32.339127c0 3.2200623 -2.610382 5.8304443 -5.8304443 5.8304443l-157.53595 0c-3.2200623 0 -5.8304443 -2.610382 -5.8304443 -5.8304443z" fill-rule="evenodd"/><path fill="#ffffff" d="m342.08258 142.71075l3.03125 0q0.59375 0 1.15625 -0.1875q0.578125 -0.1875 1.015625 -0.53125q0.4375 -0.328125 0.6875 -0.828125q0.265625 -0.515625 0.265625 -1.1875q0 -0.421875 -0.125 -0.78125q-0.125 -0.375 -0.359375 -0.65625q-0.203125 -0.265625 -0.546875 -0.484375q-0.328125 -0.234375 -0.6875 -0.3125l0 -0.015625q0.34375 -0.15625 0.578125 -0.328125q0.25 -0.171875 0.453125 -0.421875q0.203125 -0.234375 0.3125 -0.53125q0.109375 -0.3125 0.125 -0.6875q0 -0.65625 -0.265625 -1.125q-0.25 -0.484375 -0.6875 -0.796875q-0.4375 -0.296875 -1.0 -0.4375q-0.5625 -0.15625 -1.140625 -0.15625l-2.8125 0l0 9.46875zm1.203125 -4.4375l1.921875 0q0.390625 0.015625 0.71875 0.140625q0.328125 0.109375 0.578125 0.328125q0.25 0.21875 0.390625 0.53125q0.140625 0.3125 0.125 0.71875q0 0.390625 -0.15625 0.703125q-0.140625 0.3125 -0.40625 0.53125q-0.265625 0.21875 -0.609375 0.34375q-0.328125 0.109375 -0.703125 0.125l-1.859375 0l0 -3.421875zm0 -1.0l0 -3.015625l1.640625 0q0.359375 0.015625 0.6875 0.109375q0.34375 0.078125 0.609375 0.25q0.25 0.1875 0.390625 0.46875q0.15625 0.265625 0.15625 0.671875q0 0.359375 -0.15625 0.640625q-0.15625 0.28125 -0.40625 0.46875q-0.25 0.203125 -0.578125 0.3125q-0.328125 0.09375 -0.65625 0.09375l-1.6875 0zm6.9981995 -4.5625l0 1.046875l2.390625 0l0 7.90625l-2.390625 0l0 1.046875l5.890625 0l0 -1.046875l-2.296875 0l0 -8.953125l-3.59375 0zm12.435669 10.0l1.09375 0l0 -7.046875l-1.203125 0l0 5.0625q-0.09375 0.21875 -0.25 0.421875q-0.140625 0.1875 -0.34375 0.3125q-0.234375 0.171875 -0.546875 0.265625q-0.3125 0.09375 -0.71875 0.09375q-0.34375 0 -0.609375 -0.078125q-0.265625 -0.09375 -0.453125 -0.328125q-0.171875 -0.21875 -0.265625 -0.59375q-0.09375 -0.375 -0.09375 -0.953125l0 -4.203125l-1.203125 0l0 4.1875q0 0.796875 0.171875 1.359375q0.171875 0.5625 0.484375 0.921875q0.328125 0.359375 0.765625 0.53125q0.453125 0.171875 1.015625 0.171875q0.6875 0 1.203125 -0.28125q0.53125 -0.296875 0.890625 -0.8125l0.0625 0.96875zm6.4825745 0.125q1.015625 0 1.71875 -0.40625q0.703125 -0.421875 1.046875 -0.953125l-0.734375 -0.5625q-0.328125 0.421875 -0.828125 0.6875q-0.5 0.25 -1.140625 0.25q-0.5 0 -0.90625 -0.171875q-0.390625 -0.1875 -0.671875 -0.5q-0.28125 -0.296875 -0.453125 -0.6875q-0.15625 -0.390625 -0.203125 -0.90625l0 -0.046875l5.03125 0l0 -0.546875q0 -0.734375 -0.1875 -1.359375q-0.1875 -0.640625 -0.5625 -1.109375q-0.375 -0.453125 -0.953125 -0.71875q-0.5625 -0.265625 -1.3125 -0.265625q-0.609375 0 -1.1875 0.25q-0.578125 0.25 -1.03125 0.703125q-0.453125 0.46875 -0.734375 1.140625q-0.265625 0.671875 -0.265625 1.53125l0 0.265625q0 0.75 0.25 1.375q0.25 0.625 0.6875 1.078125q0.453125 0.453125 1.0625 0.703125q0.625 0.25 1.375 0.25zm-0.15625 -6.3125q0.453125 0 0.78125 0.171875q0.34375 0.171875 0.5625 0.4375q0.21875 0.28125 0.34375 0.65625q0.125 0.375 0.125 0.703125l0 0.046875l-3.78125 0q0.0625 -0.484375 0.234375 -0.859375q0.1875 -0.375 0.453125 -0.625q0.265625 -0.265625 0.578125 -0.390625q0.328125 -0.140625 0.703125 -0.140625zm10.998169 2.75l0 -0.140625q0 -0.546875 -0.09375 -1.046875q-0.078125 -0.5 -0.265625 -0.90625q-0.15625 -0.375 -0.390625 -0.671875q-0.21875 -0.296875 -0.5 -0.5q-0.3125 -0.21875 -0.703125 -0.34375q-0.375 -0.125 -0.828125 -0.125q-0.359375 0 -0.671875 0.078125q-0.3125 0.0625 -0.578125 0.203125q-0.203125 0.109375 -0.390625 0.265625q-0.171875 0.15625 -0.328125 0.34375l0 -3.71875l-1.203125 0l0 10.0l1.109375 0l0.046875 -0.796875q0.125 0.140625 0.25 0.265625q0.140625 0.125 0.28125 0.234375q0.296875 0.203125 0.671875 0.3125q0.375 0.109375 0.828125 0.109375q0.390625 0 0.734375 -0.09375q0.34375 -0.09375 0.625 -0.265625q0.40625 -0.265625 0.6875 -0.640625q0.28125 -0.390625 0.453125 -0.875q0.140625 -0.375 0.203125 -0.796875q0.0625 -0.4375 0.0625 -0.890625zm-1.203125 -0.140625l0 0.140625q0 0.3125 -0.046875 0.609375q-0.03125 0.296875 -0.109375 0.5625q-0.109375 0.34375 -0.28125 0.625q-0.171875 0.28125 -0.4375 0.453125q-0.1875 0.140625 -0.4375 0.21875q-0.25 0.078125 -0.546875 0.078125q-0.3125 0 -0.578125 -0.078125q-0.25 -0.078125 -0.46875 -0.234375q-0.203125 -0.15625 -0.375 -0.34375q-0.15625 -0.203125 -0.265625 -0.4375l0 -3.078125q0.109375 -0.234375 0.265625 -0.421875q0.15625 -0.203125 0.375 -0.359375q0.203125 -0.140625 0.453125 -0.21875q0.265625 -0.09375 0.578125 -0.09375q0.28125 0 0.515625 0.078125q0.234375 0.0625 0.421875 0.171875q0.28125 0.171875 0.46875 0.453125q0.1875 0.28125 0.3125 0.625q0.078125 0.28125 0.109375 0.609375q0.046875 0.3125 0.046875 0.640625zm6.3575745 3.703125q1.015625 0 1.71875 -0.40625q0.703125 -0.421875 1.046875 -0.953125l-0.734375 -0.5625q-0.328125 0.421875 -0.828125 0.6875q-0.5 0.25 -1.140625 0.25q-0.5 0 -0.90625 -0.171875q-0.390625 -0.1875 -0.671875 -0.5q-0.28125 -0.296875 -0.453125 -0.6875q-0.15625 -0.390625 -0.203125 -0.90625l0 -0.046875l5.03125 0l0 -0.546875q0 -0.734375 -0.1875 -1.359375q-0.1875 -0.640625 -0.5625 -1.109375q-0.375 -0.453125 -0.953125 -0.71875q-0.5625 -0.265625 -1.3125 -0.265625q-0.609375 0 -1.1875 0.25q-0.578125 0.25 -1.03125 0.703125q-0.453125 0.46875 -0.734375 1.140625q-0.265625 0.671875 -0.265625 1.53125l0 0.265625q0 0.75 0.25 1.375q0.25 0.625 0.6875 1.078125q0.453125 0.453125 1.0625 0.703125q0.625 0.25 1.375 0.25zm-0.15625 -6.3125q0.453125 0 0.78125 0.171875q0.34375 0.171875 0.5625 0.4375q0.21875 0.28125 0.34375 0.65625q0.125 0.375 0.125 0.703125l0 0.046875l-3.78125 0q0.0625 -0.484375 0.234375 -0.859375q0.1875 -0.375 0.453125 -0.625q0.265625 -0.265625 0.578125 -0.390625q0.328125 -0.140625 0.703125 -0.140625zm9.654419 -0.984375q-0.765625 0 -1.375 0.34375q-0.59375 0.328125 -1.03125 0.90625l0 -0.171875l-0.0625 -0.953125l-1.140625 0l0 7.046875l1.203125 0l0 -4.515625q0.125 -0.328125 0.296875 -0.59375q0.1875 -0.265625 0.421875 -0.4375q0.265625 -0.21875 0.625 -0.3125q0.359375 -0.109375 0.8125 -0.109375q0.34375 0 0.65625 0.03125q0.3125 0.03125 0.65625 0.109375l0.171875 -1.171875q-0.1875 -0.078125 -0.546875 -0.125q-0.359375 -0.046875 -0.6875 -0.046875zm7.9981995 0q-0.765625 0 -1.375 0.34375q-0.59375 0.328125 -1.03125 0.90625l0 -0.171875l-0.0625 -0.953125l-1.140625 0l0 7.046875l1.203125 0l0 -4.515625q0.125 -0.328125 0.296875 -0.59375q0.1875 -0.265625 0.421875 -0.4375q0.265625 -0.21875 0.625 -0.3125q0.359375 -0.109375 0.8125 -0.109375q0.34375 0 0.65625 0.03125q0.3125 0.03125 0.65625 0.109375l0.171875 -1.171875q-0.1875 -0.078125 -0.546875 -0.125q-0.359375 -0.046875 -0.6875 -0.046875zm3.951294 10.015625q0.46875 0 0.828125 -0.171875q0.375 -0.171875 0.640625 -0.4375q0.28125 -0.265625 0.46875 -0.578125q0.1875 -0.296875 0.3125 -0.5625l3.578125 -8.140625l-1.34375 0l-1.828125 4.578125l-0.328125 0.828125l-0.3125 -0.859375l-1.921875 -4.546875l-1.359375 0l3.03125 6.71875l-0.46875 0.9375q-0.078125 0.125 -0.1875 0.328125q-0.109375 0.203125 -0.265625 0.390625q-0.171875 0.1875 -0.375 0.328125q-0.203125 0.140625 -0.453125 0.140625q-0.078125 0 -0.25 -0.015625q-0.15625 -0.015625 -0.3125 -0.03125l-0.203125 0.984375q0.125 0.03125 0.34375 0.0625q0.234375 0.046875 0.40625 0.046875zm21.808868 -11.296875l0 -1.015625l-7.015625 0l0 1.015625l2.921875 0l0 8.453125l1.171875 0l0 -8.453125l2.921875 0zm4.7325745 8.578125q1.015625 0 1.71875 -0.40625q0.703125 -0.421875 1.046875 -0.953125l-0.734375 -0.5625q-0.328125 0.421875 -0.828125 0.6875q-0.5 0.25 -1.140625 0.25q-0.5 0 -0.90625 -0.171875q-0.390625 -0.1875 -0.671875 -0.5q-0.28125 -0.296875 -0.453125 -0.6875q-0.15625 -0.390625 -0.203125 -0.90625l0 -0.046875l5.03125 0l0 -0.546875q0 -0.734375 -0.1875 -1.359375q-0.1875 -0.640625 -0.5625 -1.109375q-0.375 -0.453125 -0.953125 -0.71875q-0.5625 -0.265625 -1.3125 -0.265625q-0.609375 0 -1.1875 0.25q-0.578125 0.25 -1.03125 0.703125q-0.453125 0.46875 -0.734375 1.140625q-0.265625 0.671875 -0.265625 1.53125l0 0.265625q0 0.75 0.25 1.375q0.25 0.625 0.6875 1.078125q0.453125 0.453125 1.0625 0.703125q0.625 0.25 1.375 0.25zm-0.15625 -6.3125q0.453125 0 0.78125 0.171875q0.34375 0.171875 0.5625 0.4375q0.21875 0.28125 0.34375 0.65625q0.125 0.375 0.125 0.703125l0 0.046875l-3.78125 0q0.0625 -0.484375 0.234375 -0.859375q0.1875 -0.375 0.453125 -0.625q0.265625 -0.265625 0.578125 -0.390625q0.328125 -0.140625 0.703125 -0.140625zm9.716919 4.3125q0 0.171875 -0.0625 0.328125q-0.0625 0.140625 -0.1875 0.265625q-0.203125 0.203125 -0.5625 0.328125q-0.359375 0.109375 -0.84375 0.109375q-0.296875 0 -0.609375 -0.0625q-0.3125 -0.0625 -0.578125 -0.21875q-0.25 -0.15625 -0.421875 -0.40625q-0.171875 -0.265625 -0.203125 -0.640625l-1.203125 0q0 0.453125 0.203125 0.875q0.203125 0.40625 0.59375 0.71875q0.390625 0.328125 0.9375 0.515625q0.5625 0.1875 1.28125 0.1875q0.625 0 1.15625 -0.140625q0.53125 -0.15625 0.90625 -0.421875q0.375 -0.28125 0.578125 -0.65625q0.21875 -0.390625 0.21875 -0.859375q0 -0.4375 -0.1875 -0.765625q-0.1875 -0.328125 -0.53125 -0.59375q-0.359375 -0.234375 -0.875 -0.40625q-0.515625 -0.1875 -1.15625 -0.328125q-0.5 -0.09375 -0.828125 -0.203125q-0.3125 -0.109375 -0.5 -0.234375q-0.203125 -0.125 -0.28125 -0.28125q-0.078125 -0.171875 -0.078125 -0.375q0 -0.203125 0.09375 -0.390625q0.109375 -0.203125 0.296875 -0.34375q0.1875 -0.140625 0.46875 -0.21875q0.296875 -0.09375 0.6875 -0.09375q0.375 0 0.671875 0.109375q0.296875 0.109375 0.5 0.265625q0.203125 0.171875 0.3125 0.390625q0.125 0.21875 0.125 0.453125l1.203125 0q0 -0.46875 -0.203125 -0.859375q-0.1875 -0.40625 -0.546875 -0.703125q-0.375 -0.296875 -0.890625 -0.46875q-0.515625 -0.171875 -1.171875 -0.171875q-0.609375 0 -1.109375 0.171875q-0.5 0.15625 -0.875 0.4375q-0.359375 0.28125 -0.5625 0.65625q-0.203125 0.375 -0.203125 0.796875q0 0.4375 0.1875 0.765625q0.203125 0.328125 0.5625 0.5625q0.359375 0.25 0.84375 0.4375q0.5 0.171875 1.109375 0.296875q0.5 0.09375 0.828125 0.21875q0.328125 0.109375 0.53125 0.25q0.203125 0.15625 0.28125 0.328125q0.09375 0.171875 0.09375 0.375zm6.1700745 -6.875l-1.21875 0l0 1.703125l-1.84375 0l0 0.9375l1.84375 0l0 3.828125q0 0.640625 0.171875 1.109375q0.1875 0.453125 0.484375 0.75q0.296875 0.28125 0.703125 0.421875q0.40625 0.125 0.875 0.125q0.28125 0 0.5625 -0.03125q0.28125 -0.015625 0.53125 -0.0625q0.265625 -0.046875 0.46875 -0.109375q0.21875 -0.078125 0.375 -0.171875l-0.171875 -0.84375q-0.109375 0.015625 -0.28125 0.0625q-0.171875 0.03125 -0.375 0.0625q-0.203125 0.03125 -0.40625 0.0625q-0.203125 0.015625 -0.40625 0.015625q-0.265625 0 -0.5 -0.0625q-0.234375 -0.0625 -0.421875 -0.234375q-0.1875 -0.15625 -0.296875 -0.421875q-0.09375 -0.265625 -0.09375 -0.671875l0 -3.828125l2.6875 0l0 -0.9375l-2.6875 0l0 -1.703125z" fill-rule="nonzero"/><path fill="#ffffff" d="m335.05408 156.32014q0 0.390625 -0.171875 0.671875q-0.171875 0.28125 -0.4375 0.46875q-0.265625 0.1875 -0.609375 0.28125q-0.34375 0.078125 -0.6875 0.078125q-0.453125 0 -0.828125 -0.109375q-0.359375 -0.125 -0.65625 -0.375q-0.28125 -0.234375 -0.46875 -0.578125q-0.171875 -0.34375 -0.234375 -0.78125l-1.234375 0q0.015625 0.609375 0.265625 1.109375q0.25 0.5 0.6875 0.875q0.484375 0.421875 1.125 0.65625q0.65625 0.21875 1.34375 0.21875q0.5625 0 1.125 -0.15625q0.578125 -0.15625 1.015625 -0.46875q0.453125 -0.3125 0.734375 -0.78125q0.28125 -0.484375 0.28125 -1.125q0 -0.640625 -0.265625 -1.109375q-0.265625 -0.484375 -0.6875 -0.8125q-0.4375 -0.359375 -0.96875 -0.59375q-0.515625 -0.234375 -1.046875 -0.390625q-0.328125 -0.109375 -0.6875 -0.234375q-0.359375 -0.125 -0.65625 -0.328125q-0.3125 -0.1875 -0.515625 -0.46875q-0.203125 -0.28125 -0.21875 -0.703125q0 -0.375 0.15625 -0.65625q0.15625 -0.28125 0.421875 -0.484375q0.25 -0.1875 0.578125 -0.28125q0.328125 -0.109375 0.671875 -0.109375q0.4375 0 0.765625 0.140625q0.34375 0.125 0.59375 0.375q0.25 0.234375 0.390625 0.578125q0.15625 0.328125 0.203125 0.734375l1.25 0q-0.015625 -0.65625 -0.28125 -1.171875q-0.265625 -0.53125 -0.71875 -0.90625q-0.4375 -0.375 -1.015625 -0.578125q-0.5625 -0.203125 -1.1875 -0.203125q-0.5625 0 -1.125 0.171875q-0.546875 0.171875 -0.96875 0.515625q-0.4375 0.328125 -0.71875 0.8125q-0.265625 0.46875 -0.265625 1.09375q0 0.609375 0.265625 1.0625q0.28125 0.453125 0.703125 0.78125q0.421875 0.328125 0.9375 0.5625q0.515625 0.21875 1.015625 0.390625q0.359375 0.109375 0.71875 0.25q0.375 0.125 0.6875 0.328125q0.3125 0.21875 0.515625 0.515625q0.203125 0.296875 0.203125 0.734375zm6.154419 2.515625q1.015625 0 1.71875 -0.40625q0.703125 -0.421875 1.046875 -0.953125l-0.734375 -0.5625q-0.328125 0.421875 -0.828125 0.6875q-0.5 0.25 -1.140625 0.25q-0.5 0 -0.90625 -0.171875q-0.390625 -0.1875 -0.671875 -0.5q-0.28125 -0.296875 -0.453125 -0.6875q-0.15625 -0.390625 -0.203125 -0.90625l0 -0.046875l5.03125 0l0 -0.546875q0 -0.734375 -0.1875 -1.359375q-0.1875 -0.640625 -0.5625 -1.109375q-0.375 -0.453125 -0.953125 -0.71875q-0.5625 -0.265625 -1.3125 -0.265625q-0.609375 0 -1.1875 0.25q-0.578125 0.25 -1.03125 0.703125q-0.453125 0.46875 -0.734375 1.140625q-0.265625 0.671875 -0.265625 1.53125l0 0.265625q0 0.75 0.25 1.375q0.25 0.625 0.6875 1.078125q0.453125 0.453125 1.0625 0.703125q0.625 0.25 1.375 0.25zm-0.15625 -6.3125q0.453125 0 0.78125 0.171875q0.34375 0.171875 0.5625 0.4375q0.21875 0.28125 0.34375 0.65625q0.125 0.375 0.125 0.703125l0 0.046875l-3.78125 0q0.0625 -0.484375 0.234375 -0.859375q0.1875 -0.375 0.453125 -0.625q0.265625 -0.265625 0.578125 -0.390625q0.328125 -0.140625 0.703125 -0.140625zm9.654449 -0.984375q-0.765625 0 -1.375 0.34375q-0.59375 0.328125 -1.03125 0.90625l0 -0.171875l-0.0625 -0.953125l-1.140625 0l0 7.046875l1.203125 0l0 -4.515625q0.125 -0.328125 0.296875 -0.59375q0.1875 -0.265625 0.421875 -0.4375q0.265625 -0.21875 0.625 -0.3125q0.359375 -0.109375 0.8125 -0.109375q0.34375 0 0.65625 0.03125q0.3125 0.03125 0.65625 0.109375l0.171875 -1.171875q-0.1875 -0.078125 -0.546875 -0.125q-0.359375 -0.046875 -0.6875 -0.046875zm5.779419 7.171875l0.921875 0l2.875 -7.046875l-1.234375 0l-1.96875 5.3125l-0.125 0.4375l-0.109375 -0.4375l-2.015625 -5.3125l-1.234375 0l2.890625 7.046875zm8.716949 0.125q1.015625 0 1.71875 -0.40625q0.703125 -0.421875 1.046875 -0.953125l-0.734375 -0.5625q-0.328125 0.421875 -0.828125 0.6875q-0.5 0.25 -1.140625 0.25q-0.5 0 -0.90625 -0.171875q-0.390625 -0.1875 -0.671875 -0.5q-0.28125 -0.296875 -0.453125 -0.6875q-0.15625 -0.390625 -0.203125 -0.90625l0 -0.046875l5.03125 0l0 -0.546875q0 -0.734375 -0.1875 -1.359375q-0.1875 -0.640625 -0.5625 -1.109375q-0.375 -0.453125 -0.953125 -0.71875q-0.5625 -0.265625 -1.3125 -0.265625q-0.609375 0 -1.1875 0.25q-0.578125 0.25 -1.03125 0.703125q-0.453125 0.46875 -0.734375 1.140625q-0.265625 0.671875 -0.265625 1.53125l0 0.265625q0 0.75 0.25 1.375q0.25 0.625 0.6875 1.078125q0.453125 0.453125 1.0625 0.703125q0.625 0.25 1.375 0.25zm-0.15625 -6.3125q0.453125 0 0.78125 0.171875q0.34375 0.171875 0.5625 0.4375q0.21875 0.28125 0.34375 0.65625q0.125 0.375 0.125 0.703125l0 0.046875l-3.78125 0q0.0625 -0.484375 0.234375 -0.859375q0.1875 -0.375 0.453125 -0.625q0.265625 -0.265625 0.578125 -0.390625q0.328125 -0.140625 0.703125 -0.140625zm9.654419 -0.984375q-0.765625 0 -1.375 0.34375q-0.59375 0.328125 -1.03125 0.90625l0 -0.171875l-0.0625 -0.953125l-1.140625 0l0 7.046875l1.203125 0l0 -4.515625q0.125 -0.328125 0.296875 -0.59375q0.1875 -0.265625 0.421875 -0.4375q0.265625 -0.21875 0.625 -0.3125q0.359375 -0.109375 0.8125 -0.109375q0.34375 0 0.65625 0.03125q0.3125 0.03125 0.65625 0.109375l0.171875 -1.171875q-0.1875 -0.078125 -0.546875 -0.125q-0.359375 -0.046875 -0.6875 -0.046875zm4.9669495 7.984375l3.953125 -10.28125l-1.078125 0l-3.953125 10.28125l1.078125 0zm6.404419 -10.28125l0 1.046875l2.21875 0l0 7.375l-2.21875 0l0 1.046875l5.734375 0l0 -1.046875l-2.265625 0l0 -7.375l2.265625 0l0 -1.046875l-5.734375 0zm7.9981995 9.46875l1.21875 0l0 -5.046875q0.109375 -0.234375 0.28125 -0.421875q0.171875 -0.1875 0.359375 -0.328125q0.25 -0.171875 0.53125 -0.265625q0.28125 -0.09375 0.609375 -0.09375q0.390625 0 0.6875 0.09375q0.296875 0.09375 0.5 0.296875q0.203125 0.203125 0.3125 0.53125q0.109375 0.328125 0.109375 0.796875l0 4.4375l1.203125 0l0 -4.46875q0 -0.703125 -0.171875 -1.21875q-0.171875 -0.515625 -0.5 -0.84375q-0.3125 -0.328125 -0.765625 -0.484375q-0.453125 -0.15625 -1.015625 -0.15625q-0.40625 0 -0.78125 0.125q-0.359375 0.109375 -0.671875 0.3125q-0.203125 0.140625 -0.390625 0.328125q-0.1875 0.1875 -0.34375 0.40625l-0.078125 -1.046875l-1.09375 0l0 7.046875zm10.857544 -8.75l-1.21875 0l0 1.703125l-1.84375 0l0 0.9375l1.84375 0l0 3.828125q0 0.640625 0.171875 1.109375q0.1875 0.453125 0.484375 0.75q0.296875 0.28125 0.703125 0.421875q0.40625 0.125 0.875 0.125q0.28125 0 0.5625 -0.03125q0.28125 -0.015625 0.53125 -0.0625q0.265625 -0.046875 0.46875 -0.109375q0.21875 -0.078125 0.375 -0.171875l-0.171875 -0.84375q-0.109375 0.015625 -0.28125 0.0625q-0.171875 0.03125 -0.375 0.0625q-0.203125 0.03125 -0.40625 0.0625q-0.203125 0.015625 -0.40625 0.015625q-0.265625 0 -0.5 -0.0625q-0.234375 -0.0625 -0.421875 -0.234375q-0.1875 -0.15625 -0.296875 -0.421875q-0.09375 -0.265625 -0.09375 -0.671875l0 -3.828125l2.6875 0l0 -0.9375l-2.6875 0l0 -1.703125zm8.263824 8.875q1.015625 0 1.71875 -0.40625q0.703125 -0.421875 1.046875 -0.953125l-0.734375 -0.5625q-0.328125 0.421875 -0.828125 0.6875q-0.5 0.25 -1.140625 0.25q-0.5 0 -0.90625 -0.171875q-0.390625 -0.1875 -0.671875 -0.5q-0.28125 -0.296875 -0.453125 -0.6875q-0.15625 -0.390625 -0.203125 -0.90625l0 -0.046875l5.03125 0l0 -0.546875q0 -0.734375 -0.1875 -1.359375q-0.1875 -0.640625 -0.5625 -1.109375q-0.375 -0.453125 -0.953125 -0.71875q-0.5625 -0.265625 -1.3125 -0.265625q-0.609375 0 -1.1875 0.25q-0.578125 0.25 -1.03125 0.703125q-0.453125 0.46875 -0.734375 1.140625q-0.265625 0.671875 -0.265625 1.53125l0 0.265625q0 0.75 0.25 1.375q0.25 0.625 0.6875 1.078125q0.453125 0.453125 1.0625 0.703125q0.625 0.25 1.375 0.25zm-0.15625 -6.3125q0.453125 0 0.78125 0.171875q0.34375 0.171875 0.5625 0.4375q0.21875 0.28125 0.34375 0.65625q0.125 0.375 0.125 0.703125l0 0.046875l-3.78125 0q0.0625 -0.484375 0.234375 -0.859375q0.1875 -0.375 0.453125 -0.625q0.265625 -0.265625 0.578125 -0.390625q0.328125 -0.140625 0.703125 -0.140625zm9.654419 -0.984375q-0.765625 0 -1.375 0.34375q-0.59375 0.328125 -1.03125 0.90625l0 -0.171875l-0.0625 -0.953125l-1.140625 0l0 7.046875l1.203125 0l0 -4.515625q0.125 -0.328125 0.296875 -0.59375q0.1875 -0.265625 0.421875 -0.4375q0.265625 -0.21875 0.625 -0.3125q0.359375 -0.109375 0.8125 -0.109375q0.34375 0 0.65625 0.03125q0.3125 0.03125 0.65625 0.109375l0.171875 -1.171875q-0.1875 -0.078125 -0.546875 -0.125q-0.359375 -0.046875 -0.6875 -0.046875zm5.1700745 7.171875l1.21875 0l0 -6.109375l2.71875 0l0 -0.9375l-2.71875 0l0 -0.484375q0 -0.453125 0.109375 -0.78125q0.109375 -0.328125 0.34375 -0.53125q0.203125 -0.203125 0.515625 -0.296875q0.3125 -0.109375 0.734375 -0.109375q0.390625 0 0.75 0.0625q0.359375 0.0625 0.625 0.15625l0.140625 -0.984375q-0.171875 -0.046875 -0.34375 -0.078125q-0.15625 -0.046875 -0.3125 -0.078125q-0.25 -0.046875 -0.5 -0.078125q-0.25 -0.03125 -0.515625 -0.03125q-0.625 0 -1.140625 0.1875q-0.5 0.171875 -0.859375 0.515625q-0.359375 0.34375 -0.5625 0.859375q-0.203125 0.5 -0.203125 1.1875l0 0.484375l-1.9375 0l0 0.9375l1.9375 0l0 6.109375zm10.841919 0l1.25 0l0 -0.109375q-0.125 -0.28125 -0.1875 -0.671875q-0.0625 -0.40625 -0.0625 -0.75l0 -3.28125q0 -0.59375 -0.21875 -1.03125q-0.203125 -0.4375 -0.578125 -0.75q-0.375 -0.28125 -0.890625 -0.421875q-0.515625 -0.15625 -1.109375 -0.15625q-0.65625 0 -1.1875 0.1875q-0.515625 0.171875 -0.875 0.46875q-0.359375 0.296875 -0.546875 0.671875q-0.1875 0.375 -0.203125 0.75l1.21875 0q0 -0.21875 0.09375 -0.421875q0.109375 -0.203125 0.3125 -0.359375q0.1875 -0.140625 0.46875 -0.234375q0.296875 -0.09375 0.640625 -0.09375q0.390625 0 0.703125 0.109375q0.3125 0.09375 0.515625 0.265625q0.21875 0.171875 0.328125 0.4375q0.125 0.25 0.125 0.5625l0 0.5625l-1.3125 0q-0.734375 0 -1.328125 0.140625q-0.59375 0.140625 -1.015625 0.421875q-0.421875 0.296875 -0.65625 0.734375q-0.234375 0.4375 -0.234375 1.015625q0 0.4375 0.171875 0.828125q0.171875 0.375 0.484375 0.65625q0.3125 0.28125 0.765625 0.4375q0.453125 0.15625 1.015625 0.15625q0.34375 0 0.640625 -0.078125q0.3125 -0.0625 0.59375 -0.1875q0.265625 -0.125 0.484375 -0.28125q0.234375 -0.15625 0.40625 -0.34375q0.03125 0.21875 0.0625 0.421875q0.046875 0.203125 0.125 0.34375zm-2.140625 -0.921875q-0.34375 0 -0.609375 -0.078125q-0.265625 -0.09375 -0.4375 -0.265625q-0.1875 -0.15625 -0.28125 -0.375q-0.078125 -0.21875 -0.078125 -0.484375q0 -0.265625 0.09375 -0.484375q0.109375 -0.21875 0.296875 -0.375q0.28125 -0.21875 0.734375 -0.328125q0.46875 -0.109375 1.09375 -0.109375l1.125 0l0 1.4375q-0.109375 0.203125 -0.296875 0.390625q-0.171875 0.1875 -0.421875 0.34375q-0.25 0.15625 -0.5625 0.25q-0.296875 0.078125 -0.65625 0.078125zm8.498199 0.078125q-0.5625 0 -0.9375 -0.21875q-0.375 -0.234375 -0.609375 -0.59375q-0.234375 -0.359375 -0.34375 -0.8125q-0.09375 -0.453125 -0.09375 -0.921875l0 -0.265625q0 -0.453125 0.09375 -0.90625q0.109375 -0.453125 0.34375 -0.8125q0.234375 -0.359375 0.609375 -0.578125q0.390625 -0.234375 0.9375 -0.234375q0.375 0 0.6875 0.125q0.3125 0.125 0.546875 0.34375q0.21875 0.21875 0.34375 0.5q0.140625 0.28125 0.15625 0.59375l1.140625 0q0 -0.53125 -0.21875 -1.0q-0.21875 -0.46875 -0.59375 -0.8125q-0.375 -0.34375 -0.90625 -0.53125q-0.53125 -0.203125 -1.15625 -0.203125q-0.796875 0 -1.390625 0.296875q-0.59375 0.28125 -1.0 0.75q-0.40625 0.5 -0.609375 1.140625q-0.1875 0.625 -0.1875 1.328125l0 0.265625q0 0.703125 0.1875 1.34375q0.203125 0.640625 0.609375 1.109375q0.40625 0.5 1.0 0.78125q0.59375 0.28125 1.390625 0.28125q0.5625 0 1.078125 -0.1875q0.515625 -0.1875 0.921875 -0.515625q0.390625 -0.3125 0.625 -0.734375q0.234375 -0.4375 0.25 -0.90625l-1.140625 0q-0.015625 0.296875 -0.15625 0.546875q-0.140625 0.25 -0.390625 0.421875q-0.234375 0.203125 -0.546875 0.3125q-0.3125 0.09375 -0.640625 0.09375zm8.123169 0.96875q1.015625 0 1.71875 -0.40625q0.703125 -0.421875 1.046875 -0.953125l-0.734375 -0.5625q-0.328125 0.421875 -0.828125 0.6875q-0.5 0.25 -1.140625 0.25q-0.5 0 -0.90625 -0.171875q-0.390625 -0.1875 -0.671875 -0.5q-0.28125 -0.296875 -0.453125 -0.6875q-0.15625 -0.390625 -0.203125 -0.90625l0 -0.046875l5.03125 0l0 -0.546875q0 -0.734375 -0.1875 -1.359375q-0.1875 -0.640625 -0.5625 -1.109375q-0.375 -0.453125 -0.953125 -0.71875q-0.5625 -0.265625 -1.3125 -0.265625q-0.609375 0 -1.1875 0.25q-0.578125 0.25 -1.03125 0.703125q-0.453125 0.46875 -0.734375 1.140625q-0.265625 0.671875 -0.265625 1.53125l0 0.265625q0 0.75 0.25 1.375q0.25 0.625 0.6875 1.078125q0.453125 0.453125 1.0625 0.703125q0.625 0.25 1.375 0.25zm-0.15625 -6.3125q0.453125 0 0.78125 0.171875q0.34375 0.171875 0.5625 0.4375q0.21875 0.28125 0.34375 0.65625q0.125 0.375 0.125 0.703125l0 0.046875l-3.78125 0q0.0625 -0.484375 0.234375 -0.859375q0.1875 -0.375 0.453125 -0.625q0.265625 -0.265625 0.578125 -0.390625q0.328125 -0.140625 0.703125 -0.140625zm9.716949 4.3125q0 0.171875 -0.0625 0.328125q-0.0625 0.140625 -0.1875 0.265625q-0.203125 0.203125 -0.5625 0.328125q-0.359375 0.109375 -0.84375 0.109375q-0.296875 0 -0.609375 -0.0625q-0.3125 -0.0625 -0.578125 -0.21875q-0.25 -0.15625 -0.421875 -0.40625q-0.171875 -0.265625 -0.203125 -0.640625l-1.203125 0q0 0.453125 0.203125 0.875q0.203125 0.40625 0.59375 0.71875q0.390625 0.328125 0.9375 0.515625q0.5625 0.1875 1.28125 0.1875q0.625 0 1.15625 -0.140625q0.53125 -0.15625 0.90625 -0.421875q0.375 -0.28125 0.578125 -0.65625q0.21875 -0.390625 0.21875 -0.859375q0 -0.4375 -0.1875 -0.765625q-0.1875 -0.328125 -0.53125 -0.59375q-0.359375 -0.234375 -0.875 -0.40625q-0.515625 -0.1875 -1.15625 -0.328125q-0.5 -0.09375 -0.828125 -0.203125q-0.3125 -0.109375 -0.5 -0.234375q-0.203125 -0.125 -0.28125 -0.28125q-0.078125 -0.171875 -0.078125 -0.375q0 -0.203125 0.09375 -0.390625q0.109375 -0.203125 0.296875 -0.34375q0.1875 -0.140625 0.46875 -0.21875q0.296875 -0.09375 0.6875 -0.09375q0.375 0 0.671875 0.109375q0.296875 0.109375 0.5 0.265625q0.203125 0.171875 0.3125 0.390625q0.125 0.21875 0.125 0.453125l1.203125 0q0 -0.46875 -0.203125 -0.859375q-0.1875 -0.40625 -0.546875 -0.703125q-0.375 -0.296875 -0.890625 -0.46875q-0.515625 -0.171875 -1.171875 -0.171875q-0.609375 0 -1.109375 0.171875q-0.5 0.15625 -0.875 0.4375q-0.359375 0.28125 -0.5625 0.65625q-0.203125 0.375 -0.203125 0.796875q0 0.4375 0.1875 0.765625q0.203125 0.328125 0.5625 0.5625q0.359375 0.25 0.84375 0.4375q0.5 0.171875 1.109375 0.296875q0.5 0.09375 0.828125 0.21875q0.328125 0.109375 0.53125 0.25q0.203125 0.15625 0.28125 0.328125q0.09375 0.171875 0.09375 0.375z" fill-rule="nonzero"/><path fill="#000000" fill-opacity="0.0" d="m283.60367 145.9116l28.75592 0" fill-rule="evenodd"/><path stroke="#8190a8" stroke-width="1.0" stroke-linejoin="round" stroke-linecap="butt" d="m289.60367 145.9116l16.75592 0" fill-rule="evenodd"/><path fill="#8190a8" stroke="#8190a8" stroke-width="1.0" stroke-linecap="butt" d="m289.60367 144.25987l-4.538086 1.6517334l4.538086 1.6517334z" fill-rule="evenodd"/><path fill="#8190a8" stroke="#8190a8" stroke-width="1.0" stroke-linecap="butt" d="m306.3596 147.56334l4.538086 -1.6517334l-4.538086 -1.6517334z" fill-rule="evenodd"/><path fill="#000000" fill-opacity="0.0" d="m191.39944 17.501312l213.16537 0l0 32.31496l-213.16537 0z" fill-rule="evenodd"/><path fill="#3b454e" d="m256.03683 29.991312l0 -0.828125l-5.6250153 0l0 0.828125l2.34375 0l0 6.750002l0.9375 0l0 -6.750002l2.3437653 0zm4.9729004 1.015625q-0.609375 0 -1.09375 0.265625q-0.484375 0.265625 -0.828125 0.7343769l0 -0.1406269l-0.046875 -0.75l-0.90625 0l0 5.625002l0.953125 0l0 -3.609375q0.09375 -0.265625 0.234375 -0.46875q0.15625 -0.21875 0.34375 -0.359375q0.21875 -0.171875 0.5 -0.25q0.28125 -0.09375191 0.640625 -0.09375191q0.28125 0 0.53125 0.03125q0.25 0.031251907 0.53125 0.09375191l0.125 -0.9375019q-0.140625 -0.0625 -0.4375 -0.09375q-0.28125 -0.046875 -0.546875 -0.046875zm2.863556 0.109375l0 0.828125l1.90625 0l0 3.968752l-1.90625 0l0 0.828125l4.703125 0l0 -0.828125l-1.828125 0l0 -4.796877l-2.875 0zm1.78125 -1.484375q0 0.234375 0.140625 0.390625q0.140625 0.15625 0.4375 0.15625q0.28125 0 0.421875 -0.15625q0.15625 -0.15625 0.15625 -0.390625q0 -0.125 -0.046875 -0.234375q-0.03125 -0.109375 -0.125 -0.1875q-0.0625 -0.0625 -0.171875 -0.09375q-0.09375 -0.046875 -0.234375 -0.046875q-0.140625 0 -0.25 0.046875q-0.09375 0.03125 -0.171875 0.09375q-0.078125 0.078125 -0.125 0.1875q-0.03125 0.109375 -0.03125 0.234375zm4.2854004 4.250002l0 0.109375q0 0.59375 0.15625 1.125q0.15625 0.515625 0.4375 0.90625q0.296875 0.390625 0.703125 0.609375q0.421875 0.21875 0.9375 0.21875q0.296875 0 0.5625 -0.078125q0.265625 -0.0625 0.484375 -0.171875q0.140625 -0.078125 0.265625 -0.1875q0.125 -0.109375 0.234375 -0.234375l0 0.484375q0 0.375 -0.109375 0.65625q-0.09375 0.28125 -0.296875 0.46875q-0.1875 0.1875 -0.46875 0.28125q-0.28125 0.109375 -0.625 0.109375q-0.1875 0 -0.375 -0.046875q-0.1875 -0.03125 -0.390625 -0.125q-0.1875 -0.09375 -0.375 -0.25q-0.1875 -0.140625 -0.359375 -0.34375l-0.5 0.578125q0.1875 0.265625 0.453125 0.453125q0.265625 0.1875 0.5625 0.296875q0.28125 0.125 0.5625 0.171875q0.28125 0.046875 0.5 0.046875q0.53125 0 0.96875 -0.15625q0.4375 -0.15625 0.75 -0.453125q0.3125 -0.3125 0.484375 -0.75q0.1875 -0.421875 0.1875 -0.984375l0 -5.500002l-0.875 0l-0.046875 0.609375q-0.109375 -0.125 -0.21875 -0.21875q-0.109375 -0.109375 -0.234375 -0.1875q-0.234375 -0.15625 -0.515625 -0.234375q-0.28125 -0.078125 -0.625 -0.078125q-0.515625 0 -0.9375 0.21875q-0.40625 0.203125 -0.703125 0.59375q-0.296875 0.3750019 -0.453125 0.9062519q-0.140625 0.53125 -0.140625 1.15625zm0.953125 0.109375l0 -0.109375q0 -0.40625 0.078125 -0.78125q0.09375 -0.375 0.28125 -0.65625q0.1875 -0.28125 0.46875 -0.4531269q0.296875 -0.171875 0.703125 -0.171875q0.234375 0 0.421875 0.0625q0.203125 0.0625 0.375 0.1718769q0.15625 0.109375 0.28125 0.25q0.125 0.140625 0.21875 0.328125l0 2.578125q-0.09375 0.171875 -0.21875 0.328125q-0.125 0.15625 -0.28125 0.265625q-0.15625 0.109375 -0.359375 0.171875q-0.203125 0.046875 -0.453125 0.046875q-0.40625 0 -0.6875 -0.15625q-0.28125 -0.171875 -0.46875 -0.453125q-0.1875 -0.28125 -0.28125 -0.640625q-0.078125 -0.375 -0.078125 -0.78125zm5.441681 -0.109375l0 0.109375q0 0.59375 0.15625 1.125q0.15625 0.515625 0.4375 0.90625q0.296875 0.390625 0.703125 0.609375q0.421875 0.21875 0.9375 0.21875q0.296875 0 0.5625 -0.078125q0.265625 -0.0625 0.484375 -0.171875q0.140625 -0.078125 0.265625 -0.1875q0.125 -0.109375 0.234375 -0.234375l0 0.484375q0 0.375 -0.109375 0.65625q-0.09375 0.28125 -0.296875 0.46875q-0.1875 0.1875 -0.46875 0.28125q-0.28125 0.109375 -0.625 0.109375q-0.1875 0 -0.375 -0.046875q-0.1875 -0.03125 -0.390625 -0.125q-0.1875 -0.09375 -0.375 -0.25q-0.1875 -0.140625 -0.359375 -0.34375l-0.5 0.578125q0.1875 0.265625 0.453125 0.453125q0.265625 0.1875 0.5625 0.296875q0.28125 0.125 0.5625 0.171875q0.28125 0.046875 0.5 0.046875q0.53125 0 0.96875 -0.15625q0.4375 -0.15625 0.75 -0.453125q0.3125 -0.3125 0.484375 -0.75q0.1875 -0.421875 0.1875 -0.984375l0 -5.500002l-0.875 0l-0.046875 0.609375q-0.109375 -0.125 -0.21875 -0.21875q-0.109375 -0.109375 -0.234375 -0.1875q-0.234375 -0.15625 -0.515625 -0.234375q-0.28125 -0.078125 -0.625 -0.078125q-0.515625 0 -0.9375 0.21875q-0.40625 0.203125 -0.703125 0.59375q-0.296875 0.3750019 -0.453125 0.9062519q-0.140625 0.53125 -0.140625 1.15625zm0.953125 0.109375l0 -0.109375q0 -0.40625 0.078125 -0.78125q0.09375 -0.375 0.28125 -0.65625q0.1875 -0.28125 0.46875 -0.4531269q0.296875 -0.171875 0.703125 -0.171875q0.234375 0 0.421875 0.0625q0.203125 0.0625 0.375 0.1718769q0.15625 0.109375 0.28125 0.25q0.125 0.140625 0.21875 0.328125l0 2.578125q-0.09375 0.171875 -0.21875 0.328125q-0.125 0.15625 -0.28125 0.265625q-0.15625 0.109375 -0.359375 0.171875q-0.203125 0.046875 -0.453125 0.046875q-0.40625 0 -0.6875 -0.15625q-0.28125 -0.171875 -0.46875 -0.453125q-0.1875 -0.28125 -0.28125 -0.640625q-0.078125 -0.375 -0.078125 -0.78125zm8.0979 2.859375q0.828125 0 1.375 -0.328125q0.5625 -0.34375 0.84375 -0.765625l-0.578125 -0.453125q-0.265625 0.34375 -0.671875 0.546875q-0.40625 0.203125 -0.921875 0.203125q-0.390625 0 -0.71875 -0.140625q-0.3125 -0.140625 -0.53125 -0.40625q-0.234375 -0.234375 -0.359375 -0.546875q-0.125 -0.3125 -0.15625 -0.71875l0 -0.046875l4.015625 0l0 -0.421875q0 -0.59375 -0.15625 -1.09375q-0.140625 -0.5 -0.4375 -0.8750019q-0.3125 -0.375 -0.765625 -0.578125q-0.453125 -0.21875 -1.0625 -0.21875q-0.484375 0 -0.953125 0.203125q-0.453125 0.1875 -0.8125 0.5625q-0.359375 0.3750019 -0.578125 0.9218769q-0.21875 0.53125 -0.21875 1.21875l0 0.203125q0 0.59375 0.1875 1.09375q0.203125 0.5 0.5625 0.859375q0.359375 0.375 0.84375 0.578125q0.5 0.203125 1.09375 0.203125zm-0.125 -5.046877q0.375 0 0.640625 0.140625q0.265625 0.1250019 0.4375 0.3437519q0.1875 0.21875 0.28125 0.515625q0.09375 0.296875 0.09375 0.5625l0 0.046875l-3.015625 0q0.046875 -0.390625 0.1875 -0.6875q0.15625 -0.296875 0.359375 -0.515625q0.203125 -0.203125 0.453125 -0.2968769q0.265625 -0.109375 0.5625 -0.109375zm7.722931 -0.796875q-0.609375 0 -1.09375 0.265625q-0.484375 0.265625 -0.828125 0.7343769l0 -0.1406269l-0.046875 -0.75l-0.90625 0l0 5.625002l0.953125 0l0 -3.609375q0.09375 -0.265625 0.234375 -0.46875q0.15625 -0.21875 0.34375 -0.359375q0.21875 -0.171875 0.5 -0.25q0.28125 -0.09375191 0.640625 -0.09375191q0.28125 0 0.53125 0.03125q0.25 0.031251907 0.53125 0.09375191l0.125 -0.9375019q-0.140625 -0.0625 -0.4375 -0.09375q-0.28125 -0.046875 -0.546875 -0.046875zm12.805206 5.734377l1.0 0l0 -0.078125q-0.09375 -0.234375 -0.15625 -0.546875q-0.046875 -0.328125 -0.046875 -0.609375l0 -2.609375q0 -0.46875 -0.171875 -0.828125q-0.171875 -0.3593769 -0.46875 -0.5937519q-0.296875 -0.234375 -0.71875 -0.34375q-0.40625 -0.125 -0.875 -0.125q-0.53125 0 -0.953125 0.15625q-0.40625 0.140625 -0.6875 0.375q-0.296875 0.234375 -0.453125 0.5312519q-0.140625 0.296875 -0.15625 0.609375l0.96875 0q0 -0.1875 0.078125 -0.34375q0.09375 -0.171875 0.25 -0.28125q0.15625 -0.1250019 0.375 -0.1875019q0.234375 -0.078125 0.515625 -0.078125q0.3125 0 0.5625 0.078125q0.25 0.078125 0.421875 0.2187519q0.171875 0.140625 0.265625 0.34375q0.09375 0.203125 0.09375 0.453125l0 0.453125l-1.0625 0q-0.578125 0 -1.0625 0.109375q-0.46875 0.109375 -0.8125 0.34375q-0.328125 0.234375 -0.515625 0.578125q-0.1875 0.34375 -0.1875 0.8125q0 0.359375 0.140625 0.671875q0.140625 0.296875 0.390625 0.515625q0.25 0.21875 0.609375 0.359375q0.359375 0.125 0.8125 0.125q0.265625 0 0.515625 -0.0625q0.25 -0.0625 0.46875 -0.15625q0.203125 -0.09375 0.375 -0.21875q0.1875 -0.140625 0.34375 -0.28125q0.015625 0.171875 0.046875 0.34375q0.03125 0.15625 0.09375 0.265625zm-1.703125 -0.734375q-0.28125 0 -0.5 -0.0625q-0.203125 -0.078125 -0.34375 -0.21875q-0.140625 -0.125 -0.21875 -0.296875q-0.0625 -0.171875 -0.0625 -0.390625q0 -0.21875 0.078125 -0.390625q0.078125 -0.171875 0.234375 -0.296875q0.21875 -0.171875 0.578125 -0.25q0.375 -0.09375 0.875 -0.09375l0.90625 0l0 1.140625q-0.09375 0.171875 -0.234375 0.328125q-0.140625 0.140625 -0.34375 0.265625q-0.203125 0.125 -0.453125 0.203125q-0.234375 0.0625 -0.515625 0.0625zm6.7854004 0.0625q-0.453125 0 -0.75 -0.171875q-0.296875 -0.1875 -0.484375 -0.484375q-0.1875 -0.28125 -0.265625 -0.640625q-0.078125 -0.375 -0.078125 -0.734375l0 -0.21875q0 -0.359375 0.078125 -0.71875q0.078125 -0.359375 0.265625 -0.65625q0.1875 -0.28125 0.484375 -0.4531269q0.3125 -0.1875 0.75 -0.1875q0.296875 0 0.546875 0.09375q0.25 0.09375 0.4375 0.2656269q0.1875 0.171875 0.28125 0.40625q0.109375 0.21875 0.125 0.484375l0.90625 0q0 -0.4375 -0.171875 -0.8125q-0.171875 -0.3750019 -0.46875 -0.6406269q-0.3125 -0.28125 -0.734375 -0.4375q-0.421875 -0.15625 -0.921875 -0.15625q-0.625 0 -1.109375 0.234375q-0.484375 0.21875 -0.796875 0.609375q-0.328125 0.3906269 -0.484375 0.9062519q-0.15625 0.5 -0.15625 1.0625l0 0.21875q0 0.5625 0.15625 1.078125q0.15625 0.5 0.484375 0.875q0.3125 0.390625 0.796875 0.625q0.484375 0.234375 1.109375 0.234375q0.453125 0 0.859375 -0.15625q0.421875 -0.15625 0.734375 -0.421875q0.3125 -0.25 0.5 -0.59375q0.203125 -0.34375 0.203125 -0.71875l-0.90625 0q-0.015625 0.234375 -0.140625 0.4375q-0.109375 0.203125 -0.296875 0.34375q-0.1875 0.15625 -0.4375 0.25q-0.25 0.078125 -0.515625 0.078125zm6.285431 -6.328127l-0.96875 0l0 1.375l-1.484375 0l0 0.734375l1.484375 0l0 3.062502q0 0.515625 0.140625 0.890625q0.140625 0.359375 0.375 0.59375q0.234375 0.234375 0.5625 0.34375q0.328125 0.109375 0.703125 0.109375q0.21875 0 0.4375 -0.03125q0.234375 -0.015625 0.4375 -0.0625q0.203125 -0.03125 0.375 -0.078125q0.171875 -0.0625 0.296875 -0.140625l-0.140625 -0.671875q-0.09375 0.015625 -0.234375 0.046875q-0.125 0.03125 -0.28125 0.046875q-0.171875 0.03125 -0.34375 0.046875q-0.15625 0.015625 -0.3125 0.015625q-0.21875 0 -0.40625 -0.046875q-0.1875 -0.046875 -0.328125 -0.1875q-0.15625 -0.125 -0.234375 -0.328125q-0.078125 -0.21875 -0.078125 -0.546875l0 -3.062502l2.140625 0l0 -0.734375l-2.140625 0l0 -1.375zm4.2697754 1.375l0 0.828125l1.90625 0l0 3.968752l-1.90625 0l0 0.828125l4.703125 0l0 -0.828125l-1.828125 0l0 -4.796877l-2.875 0zm1.78125 -1.484375q0 0.234375 0.140625 0.390625q0.140625 0.15625 0.4375 0.15625q0.28125 0 0.421875 -0.15625q0.15625 -0.15625 0.15625 -0.390625q0 -0.125 -0.046875 -0.234375q-0.03125 -0.109375 -0.125 -0.1875q-0.0625 -0.0625 -0.171875 -0.09375q-0.09375 -0.046875 -0.234375 -0.046875q-0.140625 0 -0.25 0.046875q-0.09375 0.03125 -0.171875 0.09375q-0.078125 0.078125 -0.125 0.1875q-0.03125 0.109375 -0.03125 0.234375zm4.191681 4.250002l0 0.109375q0 0.609375 0.171875 1.125q0.171875 0.515625 0.515625 0.90625q0.328125 0.390625 0.796875 0.609375q0.484375 0.21875 1.078125 0.21875q0.59375 0 1.0625 -0.21875q0.46875 -0.21875 0.8125 -0.609375q0.328125 -0.390625 0.5 -0.90625q0.171875 -0.515625 0.171875 -1.125l0 -0.109375q0 -0.609375 -0.171875 -1.125q-0.171875 -0.53125 -0.5 -0.9218769q-0.34375 -0.390625 -0.828125 -0.609375q-0.46875 -0.21875 -1.0625 -0.21875q-0.59375 0 -1.0625 0.21875q-0.46875 0.21875 -0.796875 0.609375q-0.34375 0.3906269 -0.515625 0.9218769q-0.171875 0.515625 -0.171875 1.125zm0.953125 0.109375l0 -0.109375q0 -0.421875 0.09375 -0.796875q0.109375 -0.375 0.3125 -0.65625q0.203125 -0.296875 0.484375 -0.4531269q0.296875 -0.171875 0.703125 -0.171875q0.40625 0 0.703125 0.171875q0.296875 0.1562519 0.5 0.4531269q0.203125 0.28125 0.296875 0.65625q0.109375 0.375 0.109375 0.796875l0 0.109375q0 0.40625 -0.109375 0.796875q-0.09375 0.375 -0.296875 0.65625q-0.203125 0.28125 -0.5 0.453125q-0.296875 0.171875 -0.6875 0.171875q-0.40625 0 -0.703125 -0.171875q-0.296875 -0.171875 -0.5 -0.453125q-0.203125 -0.28125 -0.3125 -0.65625q-0.09375 -0.390625 -0.09375 -0.796875zm5.7072754 2.75l0.96875 0l0 -4.03125q0.09375 -0.1875 0.21875 -0.328125q0.140625 -0.15625 0.296875 -0.28125q0.1875 -0.1250019 0.40625 -0.2031269q0.234375 -0.078125 0.5 -0.078125q0.3125 0 0.546875 0.078125q0.234375 0.078125 0.40625 0.2343769q0.15625 0.15625 0.234375 0.421875q0.09375 0.265625 0.09375 0.640625l0 3.546875l0.96875 0l0 -3.578125q0 -0.5625 -0.140625 -0.96875q-0.140625 -0.4062519 -0.390625 -0.6718769q-0.265625 -0.265625 -0.625 -0.390625q-0.359375 -0.125 -0.796875 -0.125q-0.328125 0 -0.625 0.09375q-0.296875 0.09375 -0.546875 0.265625q-0.15625 0.109375 -0.3125 0.265625q-0.140625 0.140625 -0.265625 0.3125l-0.078125 -0.828125l-0.859375 0l0 5.625002zm10.129181 -1.5q0 0.140625 -0.046875 0.265625q-0.046875 0.109375 -0.15625 0.21875q-0.15625 0.15625 -0.453125 0.25q-0.28125 0.09375 -0.65625 0.09375q-0.25 0 -0.5 -0.046875q-0.25 -0.0625 -0.453125 -0.1875q-0.203125 -0.125 -0.34375 -0.328125q-0.140625 -0.203125 -0.15625 -0.5l-0.96875 0q0 0.359375 0.15625 0.703125q0.171875 0.328125 0.484375 0.578125q0.3125 0.25 0.75 0.40625q0.453125 0.15625 1.03125 0.15625q0.5 0 0.921875 -0.125q0.421875 -0.125 0.71875 -0.34375q0.296875 -0.21875 0.46875 -0.515625q0.171875 -0.3125 0.171875 -0.6875q0 -0.34375 -0.15625 -0.609375q-0.140625 -0.265625 -0.421875 -0.46875q-0.28125 -0.203125 -0.703125 -0.34375q-0.40625 -0.140625 -0.921875 -0.25q-0.390625 -0.078125 -0.65625 -0.15625q-0.25 -0.09375 -0.40625 -0.1875q-0.15625 -0.109375 -0.21875 -0.234375q-0.0625 -0.140625 -0.0625 -0.296875q0 -0.171875 0.078125 -0.3125q0.078125 -0.15625 0.234375 -0.265625q0.15625 -0.1250019 0.375 -0.1875019q0.234375 -0.0625 0.546875 -0.0625q0.296875 0 0.53125 0.078125q0.234375 0.078125 0.40625 0.2187519q0.171875 0.140625 0.265625 0.3125q0.09375 0.171875 0.09375 0.359375l0.953125 0q0 -0.375 -0.15625 -0.6875q-0.15625 -0.3281269 -0.453125 -0.5625019q-0.28125 -0.25 -0.703125 -0.375q-0.421875 -0.140625 -0.9375 -0.140625q-0.484375 0 -0.890625 0.140625q-0.390625 0.125 -0.6875 0.34375q-0.296875 0.21875 -0.453125 0.5312519q-0.15625 0.296875 -0.15625 0.640625q0 0.34375 0.15625 0.609375q0.15625 0.265625 0.4375 0.453125q0.28125 0.203125 0.671875 0.34375q0.40625 0.125 0.890625 0.234375q0.390625 0.078125 0.65625 0.171875q0.265625 0.09375 0.421875 0.203125q0.171875 0.125 0.234375 0.265625q0.0625 0.125 0.0625 0.296875z" fill-rule="nonzero"/><path fill="#000000" fill-opacity="0.0" d="m86.307465 71.69292l51.65355 0l0 32.314957l-51.65355 0z" fill-rule="evenodd"/><path fill="#3b454e" d="m97.276215 83.35479l-1.203125 0l0 7.578125l0.9375 0l0 -3.015625l-0.078125 -3.0625l1.28125 3.96875l0.5625 0l1.390625 -4.078125l-0.078125 3.171875l0 3.015625l0.9375 0l0 -7.578125l-1.1875 0l-1.34375 3.796875l-1.21875 -3.796875zm6.3947906 0l-1.203125 0l0 7.578125l0.9375 0l0 -3.015625l-0.078125 -3.0625l1.28125 3.96875l0.5625 0l1.390625 -4.078125l-0.078125 3.171875l0 3.015625l0.9375 0l0 -7.578125l-1.1875 0l-1.34375 3.796875l-1.21875 -3.796875zm5.3322906 0l0 0.84375l1.765625 0l0 5.90625l-1.765625 0l0 0.828125l4.578125 0l0 -0.828125l-1.8125 0l0 -5.90625l1.8125 0l0 -0.84375l-4.578125 0z" fill-rule="nonzero"/><path fill="#ffffff" d="m12.451444 23.499794l0 0c0 -5.8901997 4.774949 -10.665149 10.665147 -10.665149l99.961044 0c2.8285675 0 5.5412903 1.1236467 7.541397 3.1237497c2.0001068 2.000103 3.1237488 4.712826 3.1237488 7.541399l0 152.84293c0 5.8901978 -4.774948 10.665146 -10.665146 10.665146l-99.961044 0c-5.8901978 0 -10.665147 -4.774948 -10.665147 -10.665146z" fill-rule="evenodd"/><path stroke="#e8ecef" stroke-width="1.0" stroke-linejoin="round" stroke-linecap="butt" d="m12.451444 23.499794l0 0c0 -5.8901997 4.774949 -10.665149 10.665147 -10.665149l99.961044 0c2.8285675 0 5.5412903 1.1236467 7.541397 3.1237497c2.0001068 2.000103 3.1237488 4.712826 3.1237488 7.541399l0 152.84293c0 5.8901978 -4.774948 10.665146 -10.665146 10.665146l-99.961044 0c-5.8901978 0 -10.665147 -4.774948 -10.665147 -10.665146z" fill-rule="evenodd"/><path fill="#f3f5f6" d="m20.937214 12.834645l104.35654 0c2.245697 0 4.3994064 0.8920984 5.987358 2.4800434c1.5879364 1.587945 2.4800415 3.741662 2.4800415 5.987355l0 19.62709c0 5.569458E-4 -4.5776367E-4 0.0010108948 -0.0010070801 0.0010108948l-121.29033 -0.0010108948l0 0c-5.578995E-4 0 -0.0010108948 -4.5394897E-4 -0.0010108948 -0.0010108948l0.0010108948 -19.62608l0 0c0 -4.6764145 3.7909832 -8.467399 8.467398 -8.467399z" fill-rule="evenodd"/><path stroke="#e8ecef" stroke-width="1.0" stroke-linejoin="round" stroke-linecap="butt" d="m20.937214 12.834645l104.35654 0c2.245697 0 4.3994064 0.8920984 5.987358 2.4800434c1.5879364 1.587945 2.4800415 3.741662 2.4800415 5.987355l0 19.62709c0 5.569458E-4 -4.5776367E-4 0.0010108948 -0.0010070801 0.0010108948l-121.29033 -0.0010108948l0 0c-5.578995E-4 0 -0.0010108948 -4.5394897E-4 -0.0010108948 -0.0010108948l0.0010108948 -19.62608l0 0c0 -4.6764145 3.7909832 -8.467399 8.467398 -8.467399z" fill-rule="evenodd"/><path fill="#3b454e" d="m47.918716 29.453146l1.40625 0q0.78125 0 1.40625 -0.21875q0.625 -0.234375 1.0625 -0.625q0.4375 -0.390625 0.671875 -0.921875q0.25 -0.546875 0.25 -1.1875q0 -0.6875 -0.25 -1.234375q-0.234375 -0.5625 -0.671875 -0.96875q-0.4375 -0.40625 -1.0625 -0.625q-0.625 -0.21875 -1.40625 -0.21875l-3.234375 0l0 9.468752l1.828125 0l0 -3.468752zm0 -1.484375l0 -3.03125l1.40625 0q0.390625 0 0.671875 0.125q0.296875 0.109375 0.5 0.328125q0.1875 0.21875 0.28125 0.515625q0.09375 0.28125 0.09375 0.609375q0 0.28125 -0.09375 0.546875q-0.09375 0.265625 -0.28125 0.46875q-0.203125 0.203125 -0.5 0.328125q-0.28125 0.109375 -0.671875 0.109375l-1.40625 0zm13.013809 -3.03125l0 -1.484375l-7.640625 0l0 1.484375l2.890625 0l0 7.984377l1.828125 0l0 -7.984377l2.921875 0zm5.951309 5.515625q0 0.25 -0.109375 0.46875q-0.09375 0.203125 -0.28125 0.359375q-0.203125 0.140625 -0.484375 0.234375q-0.28125 0.078125 -0.640625 0.078125q-0.421875 0 -0.765625 -0.09375q-0.328125 -0.09375 -0.578125 -0.28125q-0.25 -0.203125 -0.390625 -0.5q-0.125 -0.3125 -0.140625 -0.734375l-1.796875 0q0 0.734375 0.28125 1.28125q0.28125 0.546875 0.78125 0.9531269q0.5 0.40625 1.1875 0.625q0.703125 0.203125 1.421875 0.203125q0.71875 0 1.328125 -0.171875q0.609375 -0.171875 1.046875 -0.515625q0.453125 -0.328125 0.703125 -0.8125019q0.25 -0.484375 0.25 -1.109375q0 -0.71875 -0.34375 -1.265625q-0.328125 -0.5625 -0.875 -0.984375q-0.375 -0.25 -0.828125 -0.4375q-0.4375 -0.203125 -0.921875 -0.34375q-0.453125 -0.125 -0.828125 -0.265625q-0.359375 -0.140625 -0.609375 -0.3125q-0.25 -0.171875 -0.390625 -0.390625q-0.125 -0.21875 -0.125 -0.484375q0 -0.25 0.09375 -0.46875q0.109375 -0.21875 0.296875 -0.375q0.203125 -0.15625 0.484375 -0.234375q0.28125 -0.09375 0.640625 -0.09375q0.40625 0 0.703125 0.109375q0.296875 0.09375 0.5 0.28125q0.1875 0.203125 0.28125 0.46875q0.109375 0.265625 0.125 0.578125l1.78125 0q0 -0.625 -0.25 -1.15625q-0.25 -0.546875 -0.6875 -0.9375q-0.4375 -0.375 -1.0625 -0.59375q-0.609375 -0.21875 -1.359375 -0.21875q-0.703125 0 -1.328125 0.1875q-0.609375 0.1875 -1.046875 0.53125q-0.453125 0.34375 -0.71875 0.84375q-0.25 0.484375 -0.25 1.078125q0 0.515625 0.1875 0.96875q0.203125 0.4375 0.578125 0.796875q0.375 0.375 0.96875 0.6875q0.609375 0.296875 1.390625 0.5q0.5 0.140625 0.84375 0.3125q0.34375 0.15625 0.5625 0.34375q0.203125 0.1875 0.28125 0.40625q0.09375 0.21875 0.09375 0.484375zm9.482559 -0.984375l0 -1.453125l-5.421875 0l0 1.453125l5.421875 0zm8.013809 0l0 -0.125q0 -0.640625 -0.125 -1.203125q-0.109375 -0.5625 -0.34375 -1.015625q-0.140625 -0.28125 -0.34375 -0.515625q-0.1875 -0.234375 -0.4375 -0.40625q-0.296875 -0.21875 -0.6875 -0.328125q-0.375 -0.125 -0.828125 -0.125q-0.328125 0 -0.609375 0.078125q-0.28125 0.0625 -0.53125 0.203125q-0.15625 0.078125 -0.3125 0.21875q-0.15625 0.125 -0.28125 0.265625l0 -3.59375l-1.8125 0l0 10.000002l1.625 0l0.09375 -0.75q0.109375 0.140625 0.234375 0.265625q0.125 0.125 0.265625 0.21875q0.265625 0.1875 0.59375 0.28125q0.34375 0.109375 0.75 0.109375q0.453125 0 0.828125 -0.109375q0.375 -0.109375 0.671875 -0.328125q0.328125 -0.234375 0.5625 -0.578125q0.25 -0.3437519 0.40625 -0.7656269q0.140625 -0.375 0.203125 -0.828125q0.078125 -0.453125 0.078125 -0.96875zm-1.8125 -0.125l0 0.125q0 0.28125 -0.03125 0.53125q-0.015625 0.25 -0.0625 0.46875q-0.0625 0.296875 -0.203125 0.53125q-0.125 0.21875 -0.328125 0.359375q-0.140625 0.109375 -0.34375 0.171875q-0.1875 0.0625 -0.421875 0.0625q-0.28125 0 -0.5 -0.0625q-0.21875 -0.078125 -0.375 -0.203125q-0.140625 -0.09375 -0.25 -0.21875q-0.09375 -0.140625 -0.171875 -0.296875l0 -2.8125q0.0625 -0.125 0.125 -0.234375q0.078125 -0.109375 0.15625 -0.1875q0.1875 -0.171875 0.421875 -0.265625q0.25 -0.09375 0.578125 -0.09375q0.234375 0 0.421875 0.0625q0.203125 0.046875 0.34375 0.15625q0.234375 0.1875 0.34375 0.40625q0.109375 0.203125 0.1875 0.46875q0.0625 0.21875 0.078125 0.484375q0.03125 0.265625 0.03125 0.546875zm3.2169342 0l0 0.125q0 0.78125 0.21875 1.4375q0.21875 0.65625 0.65625 1.1250019q0.421875 0.484375 1.03125 0.765625q0.625 0.265625 1.421875 0.265625q0.796875 0 1.40625 -0.265625q0.625 -0.28125 1.046875 -0.765625q0.421875 -0.4687519 0.640625 -1.1250019q0.21875 -0.65625 0.21875 -1.4375l0 -0.125q0 -0.78125 -0.21875 -1.421875q-0.21875 -0.65625 -0.640625 -1.140625q-0.4375 -0.484375 -1.0625 -0.75q-0.609375 -0.28125 -1.40625 -0.28125q-0.78125 0 -1.40625 0.28125q-0.609375 0.265625 -1.03125 0.75q-0.4375 0.484375 -0.65625 1.140625q-0.21875 0.640625 -0.21875 1.421875zm1.8125 0.125l0 -0.125q0 -0.4375 0.078125 -0.8125q0.09375 -0.390625 0.265625 -0.6875q0.1875 -0.296875 0.46875 -0.453125q0.28125 -0.171875 0.6875 -0.171875q0.421875 0 0.703125 0.171875q0.28125 0.15625 0.46875 0.453125q0.171875 0.296875 0.25 0.6875q0.09375 0.375 0.09375 0.8125l0 0.125q0 0.453125 -0.09375 0.84375q-0.078125 0.375 -0.25 0.65625q-0.1875 0.296875 -0.46875 0.46875q-0.28125 0.171875 -0.6875 0.171875q-0.40625 0 -0.703125 -0.171875q-0.28125 -0.171875 -0.46875 -0.46875q-0.171875 -0.28125 -0.265625 -0.65625q-0.078125 -0.390625 -0.078125 -0.84375zm9.748184 -5.3125l-1.8125 0l0 1.71875l-1.609375 0l0 1.34375l1.609375 0l0 3.203125q0 0.6875 0.1875 1.1875q0.1875 0.5000019 0.515625 0.8125019q0.34375 0.328125 0.8125 0.484375q0.46875 0.15625 1.046875 0.15625q0.296875 0 0.609375 -0.03125q0.3125 -0.03125 0.59375 -0.078125q0.28125 -0.0625 0.53125 -0.140625q0.265625 -0.078125 0.453125 -0.1875l-0.171875 -1.2500019q-0.125 0.03125 -0.296875 0.078125q-0.171875 0.03125 -0.375 0.046875q-0.203125 0.03125 -0.421875 0.0625q-0.21875 0.015625 -0.421875 0.015625q-0.28125 0 -0.515625 -0.0625q-0.234375 -0.078125 -0.390625 -0.234375q-0.171875 -0.140625 -0.265625 -0.390625q-0.078125 -0.265625 -0.078125 -0.65625l0 -3.015625l2.625 0l0 -1.34375l-2.625 0l0 -1.71875z" fill-rule="nonzero"/><path fill="#8190a8" d="m30.958254 68.14362l0 0c0 -4.050171 3.2833118 -7.333481 7.333479 -7.333481l69.648 0c1.9449615 0 3.810257 0.7726326 5.1855545 2.1479263c1.3752899 1.3752899 2.1479263 3.240593 2.1479263 5.1855545l0 29.333038c0 4.050171 -3.28331 7.333481 -7.333481 7.333481l-69.648 0c-4.050167 0 -7.333479 -3.28331 -7.333479 -7.333481z" fill-rule="evenodd"/><path fill="#ffffff" d="m51.574306 70.14139l-1.484375 0l0 9.46875l1.171875 0l0 -3.78125l-0.109375 -3.8125l1.609375 4.953125l0.6875 0l1.75 -5.09375l-0.09375 3.953125l0 3.78125l1.171875 0l0 -9.46875l-1.5 0l-1.65625 4.734375l-1.546875 -4.734375zm7.998184 0l-1.484375 0l0 9.46875l1.171875 0l0 -3.78125l-0.109375 -3.8125l1.609375 4.953125l0.6875 0l1.75 -5.09375l-0.09375 3.953125l0 3.78125l1.1718712 0l0 -9.46875l-1.4999962 0l-1.65625 4.734375l-1.546875 -4.734375zm6.6700554 0l0 1.046875l2.21875 0l0 7.375l-2.21875 0l0 1.046875l5.734375 0l0 -1.046875l-2.265625 0l0 -7.375l2.265625 0l0 -1.046875l-5.734375 0zm18.855743 0.71875l-1.21875 0l0 1.703125l-1.84375 0l0 0.9375l1.84375 0l0 3.828125q0 0.640625 0.171875 1.109375q0.1875 0.453125 0.484375 0.75q0.296875 0.28125 0.703125 0.421875q0.40625 0.125 0.875 0.125q0.28125 0 0.5625 -0.03125q0.28125 -0.015625 0.53125 -0.0625q0.265625 -0.046875 0.46875 -0.109375q0.21875 -0.078125 0.375 -0.171875l-0.171875 -0.84375q-0.109375 0.015625 -0.28125 0.0625q-0.171875 0.03125 -0.375 0.0625q-0.203125 0.03125 -0.40625 0.0625q-0.203125 0.015625 -0.40625 0.015625q-0.265625 0 -0.5 -0.0625q-0.234375 -0.0625 -0.421875 -0.234375q-0.1875 -0.15625 -0.296875 -0.421875q-0.09375 -0.265625 -0.09375 -0.671875l0 -3.828125l2.6875 0l0 -0.9375l-2.6875 0l0 -1.703125zm4.810684 5.171875l0 0.140625q0 0.75 0.21875 1.40625q0.21875 0.65625 0.640625 1.140625q0.40625 0.46875 1.0 0.75q0.59375 0.265625 1.34375 0.265625q0.75 0 1.328125 -0.265625q0.59375 -0.28125 1.015625 -0.75q0.40625 -0.484375 0.625 -1.140625q0.234375 -0.65625 0.234375 -1.40625l0 -0.140625q0 -0.765625 -0.234375 -1.421875q-0.21875 -0.65625 -0.625 -1.140625q-0.421875 -0.484375 -1.015625 -0.75q-0.59375 -0.28125 -1.34375 -0.28125q-0.734375 0 -1.328125 0.28125q-0.59375 0.265625 -1.0 0.75q-0.421875 0.484375 -0.640625 1.140625q-0.21875 0.65625 -0.21875 1.421875zm1.203125 0.140625l0 -0.140625q0 -0.515625 0.125 -0.984375q0.125 -0.484375 0.375 -0.84375q0.25 -0.359375 0.609375 -0.5625q0.375 -0.21875 0.875 -0.21875q0.5 0 0.875 0.21875q0.375 0.203125 0.640625 0.5625q0.234375 0.359375 0.359375 0.84375q0.140625 0.46875 0.140625 0.984375l0 0.140625q0 0.515625 -0.125 0.984375q-0.125 0.46875 -0.375 0.828125q-0.25 0.359375 -0.625 0.578125q-0.375 0.203125 -0.875 0.203125q-0.5 0 -0.875 -0.203125q-0.375 -0.21875 -0.625 -0.578125q-0.25 -0.359375 -0.375 -0.828125q-0.125 -0.46875 -0.125 -0.984375z" fill-rule="nonzero"/><path fill="#ffffff" d="m58.025616 92.03201l0 0.140625q0 0.75 0.1875 1.40625q0.203125 0.65625 0.578125 1.140625q0.359375 0.46875 0.875 0.75q0.515625 0.265625 1.15625 0.265625q0.390625 0 0.71875 -0.078125q0.328125 -0.078125 0.609375 -0.234375q0.171875 -0.09375 0.328125 -0.21875q0.15625 -0.140625 0.296875 -0.296875l0 0.609375q0 0.453125 -0.140625 0.796875q-0.125 0.359375 -0.375 0.59375q-0.234375 0.25 -0.59375 0.375q-0.34375 0.125 -0.765625 0.125q-0.234375 0 -0.484375 -0.0625q-0.234375 -0.046875 -0.484375 -0.15625q-0.234375 -0.109375 -0.46875 -0.296875q-0.234375 -0.1875 -0.453125 -0.453125l-0.625 0.734375q0.234375 0.34375 0.5625 0.578125q0.34375 0.234375 0.703125 0.359375q0.359375 0.15625 0.703125 0.203125q0.359375 0.0625 0.640625 0.0625q0.65625 0 1.203125 -0.203125q0.546875 -0.1875 0.953125 -0.5625q0.390625 -0.375 0.609375 -0.921875q0.21875 -0.53125 0.21875 -1.234375l0 -6.890625l-1.09375 0l-0.0625 0.765625q-0.125 -0.15625 -0.265625 -0.28125q-0.140625 -0.125 -0.296875 -0.21875q-0.28125 -0.1875 -0.640625 -0.28125q-0.359375 -0.109375 -0.78125 -0.109375q-0.65625 0 -1.171875 0.265625q-0.515625 0.265625 -0.890625 0.75q-0.359375 0.46875 -0.5625 1.140625q-0.1875 0.65625 -0.1875 1.4375zm1.203125 0.140625l0 -0.140625q0 -0.515625 0.109375 -0.984375q0.109375 -0.46875 0.34375 -0.8125q0.234375 -0.359375 0.59375 -0.5625q0.359375 -0.21875 0.859375 -0.21875q0.3125 0 0.546875 0.078125q0.25 0.078125 0.453125 0.203125q0.203125 0.140625 0.359375 0.328125q0.15625 0.171875 0.28125 0.40625l0 3.21875q-0.125 0.234375 -0.28125 0.421875q-0.15625 0.1875 -0.34375 0.328125q-0.203125 0.125 -0.453125 0.203125q-0.25 0.078125 -0.5625 0.078125q-0.515625 0 -0.875 -0.203125q-0.34375 -0.203125 -0.578125 -0.5625q-0.234375 -0.34375 -0.34375 -0.796875q-0.109375 -0.46875 -0.109375 -0.984375zm10.15443 -0.421875l1.859375 3.859375l1.28125 0l0 -0.078125l-2.015625 -4.046875q0.390625 -0.171875 0.71875 -0.40625q0.328125 -0.25 0.5625 -0.5625q0.234375 -0.3125 0.359375 -0.6875q0.140625 -0.390625 0.140625 -0.84375q0 -0.71875 -0.25 -1.25q-0.25 -0.53125 -0.6875 -0.890625q-0.4375 -0.34375 -1.03125 -0.515625q-0.578125 -0.1875 -1.25 -0.1875l-2.78125 0l0 9.46875l1.203125 0l0 -3.859375l1.890625 0zm-1.890625 -1.0l0 -3.625l1.578125 0q0.4375 0 0.796875 0.125q0.375 0.109375 0.640625 0.34375q0.265625 0.234375 0.421875 0.578125q0.15625 0.34375 0.15625 0.796875q0 0.421875 -0.15625 0.75q-0.15625 0.328125 -0.4375 0.5625q-0.265625 0.21875 -0.625 0.34375q-0.359375 0.125 -0.765625 0.125l-1.609375 0zm8.076309 1.0625l1.859375 0q0.640625 -0.015625 1.203125 -0.203125q0.578125 -0.1875 1.0 -0.546875q0.4375 -0.359375 0.6875 -0.875q0.25 -0.53125 0.25 -1.203125q0 -0.6875 -0.25 -1.21875q-0.25 -0.53125 -0.6875 -0.890625q-0.421875 -0.34375 -1.0 -0.53125q-0.5625 -0.203125 -1.203125 -0.203125l-3.0625 0l0 9.46875l1.203125 0l0 -3.796875zm0 -1.0l0 -3.6875l1.859375 0q0.421875 0 0.765625 0.140625q0.359375 0.125 0.625 0.359375q0.25 0.25 0.390625 0.59375q0.15625 0.34375 0.15625 0.765625q0 0.4375 -0.15625 0.78125q-0.140625 0.328125 -0.40625 0.5625q-0.25 0.234375 -0.609375 0.359375q-0.34375 0.125 -0.765625 0.125l-1.859375 0zm12.810684 1.953125l-1.203125 0q-0.0625 0.421875 -0.203125 0.796875q-0.140625 0.359375 -0.375 0.625q-0.25 0.28125 -0.59375 0.4375q-0.34375 0.140625 -0.828125 0.140625q-0.4375 0 -0.765625 -0.140625q-0.3125 -0.140625 -0.5625 -0.390625q-0.234375 -0.234375 -0.390625 -0.546875q-0.15625 -0.328125 -0.25 -0.6875q-0.109375 -0.359375 -0.15625 -0.734375q-0.03125 -0.375 -0.03125 -0.734375l0 -1.328125q0 -0.359375 0.03125 -0.734375q0.046875 -0.375 0.15625 -0.71875q0.09375 -0.359375 0.25 -0.671875q0.15625 -0.328125 0.40625 -0.578125q0.234375 -0.234375 0.5625 -0.375q0.328125 -0.140625 0.75 -0.140625q0.484375 0 0.828125 0.171875q0.34375 0.15625 0.59375 0.421875q0.234375 0.28125 0.375 0.65625q0.140625 0.375 0.203125 0.796875l1.203125 0q-0.078125 -0.671875 -0.328125 -1.234375q-0.234375 -0.5625 -0.640625 -0.953125q-0.40625 -0.40625 -0.96875 -0.625q-0.546875 -0.21875 -1.265625 -0.21875q-0.59375 0 -1.0625 0.171875q-0.46875 0.15625 -0.84375 0.453125q-0.375 0.296875 -0.65625 0.703125q-0.265625 0.390625 -0.4375 0.859375q-0.1875 0.46875 -0.28125 0.984375q-0.078125 0.515625 -0.078125 1.046875l0 1.3125q0 0.53125 0.078125 1.046875q0.09375 0.515625 0.28125 0.984375q0.171875 0.46875 0.4375 0.875q0.28125 0.390625 0.65625 0.671875q0.375 0.296875 0.84375 0.46875q0.484375 0.15625 1.0625 0.15625q0.6875 0 1.234375 -0.21875q0.5625 -0.21875 0.984375 -0.609375q0.390625 -0.390625 0.640625 -0.9375q0.265625 -0.546875 0.34375 -1.203125z" fill-rule="nonzero"/><path fill="#2c9693" d="m31.569553 129.7412l0 0c0 -3.2200546 2.6103783 -5.8304367 5.8304405 -5.8304367l71.39424 0c1.5463257 0 3.0293198 0.6142807 4.1227417 1.707695c1.0934143 1.0934219 1.707695 2.576416 1.707695 4.1227417l0 32.339127c0 3.2200623 -2.6103745 5.8304443 -5.8304367 5.8304443l-71.39424 0c-3.2200623 0 -5.8304405 -2.610382 -5.8304405 -5.8304443z" fill-rule="evenodd"/><path fill="#ffffff" d="m63.55296 146.91388l1.8593788 0q0.640625 -0.015625 1.203125 -0.203125q0.578125 -0.1875 1.0 -0.546875q0.4375 -0.359375 0.6875 -0.875q0.25 -0.53125 0.25 -1.203125q0 -0.6875 -0.25 -1.21875q-0.25 -0.53125 -0.6875 -0.890625q-0.421875 -0.34375 -1.0 -0.53125q-0.5625 -0.203125 -1.203125 -0.203125l-3.0625038 0l0 9.46875l1.203125 0l0 -3.796875zm0 -1.0l0 -3.6875l1.8593788 0q0.421875 0 0.765625 0.140625q0.359375 0.125 0.625 0.359375q0.25 0.25 0.390625 0.59375q0.15625 0.34375 0.15625 0.765625q0 0.4375 -0.15625 0.78125q-0.140625 0.328125 -0.40625 0.5625q-0.25 0.234375 -0.609375 0.359375q-0.34375 0.125 -0.765625 0.125l-1.8593788 0zm13.060688 -3.65625l0 -1.015625l-7.015625 0l0 1.015625l2.921875 0l0 8.453125l1.171875 0l0 -8.453125l2.921875 0zm6.576309 6.0625q0 0.390625 -0.171875 0.671875q-0.171875 0.28125 -0.4375 0.46875q-0.265625 0.1875 -0.609375 0.28125q-0.34375 0.078125 -0.6875 0.078125q-0.453125 0 -0.828125 -0.109375q-0.359375 -0.125 -0.65625 -0.375q-0.28125 -0.234375 -0.46875 -0.578125q-0.171875 -0.34375 -0.234375 -0.78125l-1.234375 0q0.015625 0.609375 0.265625 1.109375q0.25 0.5 0.6875 0.875q0.484375 0.421875 1.125 0.65625q0.65625 0.21875 1.34375 0.21875q0.5625 0 1.125 -0.15625q0.578125 -0.15625 1.015625 -0.46875q0.453125 -0.3125 0.734375 -0.78125q0.28125 -0.484375 0.28125 -1.125q0 -0.640625 -0.265625 -1.109375q-0.265625 -0.484375 -0.6875 -0.8125q-0.4375 -0.359375 -0.96875 -0.59375q-0.515625 -0.234375 -1.046875 -0.390625q-0.328125 -0.109375 -0.6875 -0.234375q-0.359375 -0.125 -0.65625 -0.328125q-0.3125 -0.1875 -0.515625 -0.46875q-0.203125 -0.28125 -0.21875 -0.703125q0 -0.375 0.15625 -0.65625q0.15625 -0.28125 0.421875 -0.484375q0.25 -0.1875 0.578125 -0.28125q0.328125 -0.109375 0.671875 -0.109375q0.4375 0 0.765625 0.140625q0.34375 0.125 0.59375 0.375q0.25 0.234375 0.390625 0.578125q0.15625 0.328125 0.203125 0.734375l1.25 0q-0.015625 -0.65625 -0.28125 -1.171875q-0.265625 -0.53125 -0.71875 -0.90625q-0.4375 -0.375 -1.015625 -0.578125q-0.5625 -0.203125 -1.1875 -0.203125q-0.5625 0 -1.125 0.171875q-0.546875 0.171875 -0.96875 0.515625q-0.4375 0.328125 -0.71875 0.8125q-0.265625 0.46875 -0.265625 1.09375q0 0.609375 0.265625 1.0625q0.28125 0.453125 0.703125 0.78125q0.421875 0.328125 0.9375 0.5625q0.515625 0.21875 1.015625 0.390625q0.359375 0.109375 0.71875 0.25q0.375 0.125 0.6875 0.328125q0.3125 0.21875 0.515625 0.515625q0.203125 0.296875 0.203125 0.734375z" fill-rule="nonzero"/><path fill="#000000" fill-opacity="0.0" d="m114.62467 145.91077l96.18897 0" fill-rule="evenodd"/><path stroke="#8190a8" stroke-width="1.0" stroke-linejoin="round" stroke-linecap="butt" stroke-dasharray="1.0,3.0" d="m120.62467 145.91077l84.18897 0" fill-rule="evenodd"/><path fill="#8190a8" stroke="#8190a8" stroke-width="1.0" stroke-linecap="butt" d="m120.62467 144.25903l-4.538101 1.6517334l4.538101 1.6517334z" fill-rule="evenodd"/><path fill="#8190a8" stroke="#8190a8" stroke-width="1.0" stroke-linecap="butt" d="m204.81364 147.5625l4.538101 -1.6517334l-4.538101 -1.6517334z" fill-rule="evenodd"/><path fill="#000000" fill-opacity="0.0" d="m73.11573 60.810143l0 -10.993523l443.089 0l0 96.09589l-34.64804 0" fill-rule="evenodd"/><path stroke="#8190a8" stroke-width="1.0" stroke-linejoin="round" stroke-linecap="butt" d="m73.11573 60.810143l0 -10.993526l443.089 0l0 96.09589l-28.64804 0" fill-rule="evenodd"/><path fill="#8190a8" stroke="#8190a8" stroke-width="1.0" stroke-linecap="butt" d="m487.55667 144.26077l-4.538086 1.6517334l4.538086 1.6517334z" fill-rule="evenodd"/><path fill="#000000" fill-opacity="0.0" d="m73.11573 104.81014l-0.03149414 19.086617" fill-rule="evenodd"/><path stroke="#8190a8" stroke-width="1.0" stroke-linejoin="round" stroke-linecap="butt" d="m73.105835 110.810135l-0.021598816 13.086624" fill-rule="evenodd"/><path fill="#8190a8" stroke="#8190a8" stroke-width="1.0" stroke-linecap="butt" d="m74.75756 110.81286l-1.6442413 -4.5408173l-1.6592178 4.53537z" fill-rule="evenodd"/></g></svg>